<?xml version="1.0" encoding="UTF-8" standalone="no"?>
<!DOCTYPE svg PUBLIC "-//W3C//DTD SVG 1.1//EN"
 "http://www.w3.org/Graphics/SVG/1.1/DTD/svg11.dtd">
<!-- Generated by graphviz version 2.30.1 (20130501.1332)
 -->
<!-- Title: controllers_diagram Pages: 1 -->
<svg width="1158pt" height="1195pt"
 viewBox="0.00 0.00 1157.65 1194.83" xmlns="http://www.w3.org/2000/svg" xmlns:xlink="http://www.w3.org/1999/xlink">
<g id="graph0" class="graph" transform="scale(1 1) rotate(0) translate(4 1190.83)">
<title>controllers_diagram</title>
<polygon fill="white" stroke="white" points="-4,5 -4,-1190.83 1154.65,-1190.83 1154.65,5 -4,5"/>
<!-- _diagram_info -->
<g id="node1" class="node"><title>_diagram_info</title>
<text text-anchor="start" x="920" y="-810" font-family="Times,serif" font-size="13.00">Controllers diagram</text>
<text text-anchor="start" x="920" y="-794.4" font-family="Times,serif" font-size="13.00">Date: May 08 2013 &#45; 16:23</text>
<text text-anchor="start" x="920" y="-778.8" font-family="Times,serif" font-size="13.00">Migration version: 20130501192929</text>
<text text-anchor="start" x="920" y="-763.2" font-family="Times,serif" font-size="13.00">Generated by RailRoady 1.1.0</text>
<text text-anchor="start" x="920" y="-747.6" font-family="Times,serif" font-size="13.00">http://railroady.prestonlee.com</text>
</g>
<!-- AddressesController -->
<g id="node2" class="node"><title>AddressesController</title>
<path fill="none" stroke="black" d="M34.245,-349.309C34.245,-349.309 141.335,-349.309 141.335,-349.309 147.335,-349.309 153.335,-355.309 153.335,-361.309 153.335,-361.309 153.335,-519.709 153.335,-519.709 153.335,-525.709 147.335,-531.709 141.335,-531.709 141.335,-531.709 34.245,-531.709 34.245,-531.709 28.245,-531.709 22.245,-525.709 22.245,-519.709 22.245,-519.709 22.245,-361.309 22.245,-361.309 22.245,-355.309 28.245,-349.309 34.245,-349.309"/>
<text text-anchor="middle" x="87.7899" y="-513.709" font-family="Times,serif" font-size="14.00">AddressesController</text>
<polyline fill="none" stroke="black" points="22.245,-506.909 153.335,-506.909 "/>
<text text-anchor="start" x="30.245" y="-488.909" font-family="Times,serif" font-size="14.00">create</text>
<text text-anchor="start" x="30.245" y="-472.109" font-family="Times,serif" font-size="14.00">edit</text>
<text text-anchor="start" x="30.245" y="-455.309" font-family="Times,serif" font-size="14.00">new</text>
<text text-anchor="start" x="30.245" y="-438.509" font-family="Times,serif" font-size="14.00">show</text>
<text text-anchor="start" x="30.245" y="-421.709" font-family="Times,serif" font-size="14.00">update</text>
<polyline fill="none" stroke="black" points="22.245,-414.909 153.335,-414.909 "/>
<polyline fill="none" stroke="black" points="22.245,-390.909 153.335,-390.909 "/>
<text text-anchor="start" x="30.245" y="-372.909" font-family="Times,serif" font-size="14.00">_layout</text>
<text text-anchor="start" x="30.245" y="-356.109" font-family="Times,serif" font-size="14.00">address_params</text>
</g>
<!-- ApplicationController -->
<g id="node3" class="node"><title>ApplicationController</title>
<path fill="none" stroke="black" d="M441.379,-489.813C441.379,-489.813 627.014,-489.813 627.014,-489.813 633.014,-489.813 639.014,-495.813 639.014,-501.813 639.014,-501.813 639.014,-661.013 639.014,-661.013 639.014,-667.013 633.014,-673.013 627.014,-673.013 627.014,-673.013 441.379,-673.013 441.379,-673.013 435.379,-673.013 429.379,-667.013 429.379,-661.013 429.379,-661.013 429.379,-501.813 429.379,-501.813 429.379,-495.813 435.379,-489.813 441.379,-489.813"/>
<text text-anchor="middle" x="534.196" y="-655.013" font-family="Times,serif" font-size="14.00">ApplicationController</text>
<polyline fill="none" stroke="black" points="429.379,-648.213 639.014,-648.213 "/>
<text text-anchor="start" x="437.379" y="-630.213" font-family="Times,serif" font-size="14.00">_one_time_conditions_valid_102?</text>
<text text-anchor="start" x="437.379" y="-613.413" font-family="Times,serif" font-size="14.00">_one_time_conditions_valid_104?</text>
<polyline fill="none" stroke="black" points="429.379,-606.613 639.014,-606.613 "/>
<text text-anchor="start" x="437.379" y="-588.613" font-family="Times,serif" font-size="14.00">current_grading_period</text>
<text text-anchor="start" x="437.379" y="-571.813" font-family="Times,serif" font-size="14.00">current_semester</text>
<text text-anchor="start" x="437.379" y="-555.013" font-family="Times,serif" font-size="14.00">current_year</text>
<text text-anchor="start" x="437.379" y="-538.213" font-family="Times,serif" font-size="14.00">next_semester</text>
<text text-anchor="start" x="437.379" y="-521.413" font-family="Times,serif" font-size="14.00">next_year</text>
<polyline fill="none" stroke="black" points="429.379,-514.613 639.014,-514.613 "/>
<text text-anchor="start" x="437.379" y="-496.613" font-family="Times,serif" font-size="14.00">_layout</text>
</g>
<!-- ApplicationController&#45;&gt;AddressesController -->
<g id="edge1" class="edge"><title>ApplicationController&#45;&gt;AddressesController</title>
<path fill="none" stroke="black" d="M429.248,-546.033C411.921,-540.306 394.128,-534.495 377.31,-529.119 300.703,-504.633 212.251,-477.764 153.476,-460.107"/>
</g>
<!-- CoursesController -->
<g id="node4" class="node"><title>CoursesController</title>
<path fill="none" stroke="black" d="M282.942,-0.5C282.942,-0.5 377.598,-0.5 377.598,-0.5 383.598,-0.5 389.598,-6.5 389.598,-12.5 389.598,-12.5 389.598,-187.7 389.598,-187.7 389.598,-193.7 383.598,-199.7 377.598,-199.7 377.598,-199.7 282.942,-199.7 282.942,-199.7 276.942,-199.7 270.942,-193.7 270.942,-187.7 270.942,-187.7 270.942,-12.5 270.942,-12.5 270.942,-6.5 276.942,-0.5 282.942,-0.5"/>
<text text-anchor="middle" x="330.27" y="-181.7" font-family="Times,serif" font-size="14.00">CoursesController</text>
<polyline fill="none" stroke="black" points="270.942,-174.9 389.598,-174.9 "/>
<text text-anchor="start" x="278.942" y="-156.9" font-family="Times,serif" font-size="14.00">course_params</text>
<text text-anchor="start" x="278.942" y="-140.1" font-family="Times,serif" font-size="14.00">create</text>
<text text-anchor="start" x="278.942" y="-123.3" font-family="Times,serif" font-size="14.00">edit</text>
<text text-anchor="start" x="278.942" y="-106.5" font-family="Times,serif" font-size="14.00">index</text>
<text text-anchor="start" x="278.942" y="-89.7" font-family="Times,serif" font-size="14.00">new</text>
<text text-anchor="start" x="278.942" y="-72.9" font-family="Times,serif" font-size="14.00">show</text>
<text text-anchor="start" x="278.942" y="-56.1" font-family="Times,serif" font-size="14.00">update</text>
<polyline fill="none" stroke="black" points="270.942,-49.3 389.598,-49.3 "/>
<polyline fill="none" stroke="black" points="270.942,-25.3 389.598,-25.3 "/>
<text text-anchor="start" x="278.942" y="-7.3" font-family="Times,serif" font-size="14.00">_layout</text>
</g>
<!-- ApplicationController&#45;&gt;CoursesController -->
<g id="edge2" class="edge"><title>ApplicationController&#45;&gt;CoursesController</title>
<path fill="none" stroke="black" d="M478.063,-489.645C474.417,-482.793 470.921,-475.923 467.699,-469.179 425.405,-380.646 387.345,-275.397 362.061,-199.991"/>
</g>
<!-- GradesController -->
<g id="node7" class="node"><title>GradesController</title>
<path fill="none" stroke="black" d="M50.288,-909.627C50.288,-909.627 191.578,-909.627 191.578,-909.627 197.578,-909.627 203.578,-915.627 203.578,-921.627 203.578,-921.627 203.578,-1130.43 203.578,-1130.43 203.578,-1136.43 197.578,-1142.43 191.578,-1142.43 191.578,-1142.43 50.288,-1142.43 50.288,-1142.43 44.288,-1142.43 38.288,-1136.43 38.288,-1130.43 38.288,-1130.43 38.288,-921.627 38.288,-921.627 38.288,-915.627 44.288,-909.627 50.288,-909.627"/>
<text text-anchor="middle" x="120.933" y="-1124.43" font-family="Times,serif" font-size="14.00">GradesController</text>
<polyline fill="none" stroke="black" points="38.288,-1117.63 203.578,-1117.63 "/>
<text text-anchor="start" x="46.288" y="-1099.63" font-family="Times,serif" font-size="14.00">create</text>
<text text-anchor="start" x="46.288" y="-1082.83" font-family="Times,serif" font-size="14.00">edit</text>
<text text-anchor="start" x="46.288" y="-1066.03" font-family="Times,serif" font-size="14.00">index</text>
<text text-anchor="start" x="46.288" y="-1049.23" font-family="Times,serif" font-size="14.00">new</text>
<text text-anchor="start" x="46.288" y="-1032.43" font-family="Times,serif" font-size="14.00">show</text>
<text text-anchor="start" x="46.288" y="-1015.63" font-family="Times,serif" font-size="14.00">update</text>
<polyline fill="none" stroke="black" points="38.288,-1008.83 203.578,-1008.83 "/>
<polyline fill="none" stroke="black" points="38.288,-984.827 203.578,-984.827 "/>
<text text-anchor="start" x="46.288" y="-966.827" font-family="Times,serif" font-size="14.00">_layout</text>
<text text-anchor="start" x="46.288" y="-950.027" font-family="Times,serif" font-size="14.00">calculate_semseter_grade</text>
<text text-anchor="start" x="46.288" y="-933.227" font-family="Times,serif" font-size="14.00">get_student_section_grade</text>
<text text-anchor="start" x="46.288" y="-916.427" font-family="Times,serif" font-size="14.00">grade_params</text>
</g>
<!-- ApplicationController&#45;&gt;GradesController -->
<g id="edge3" class="edge"><title>ApplicationController&#45;&gt;GradesController</title>
<path fill="none" stroke="black" d="M489.912,-673.247C481.459,-691.026 472.739,-709.538 464.688,-726.946 435.627,-789.782 447.764,-818.026 401.056,-869.126 346.902,-928.374 265.038,-970.612 203.773,-996.231"/>
</g>
<!-- GradingPeriodsController -->
<g id="node8" class="node"><title>GradingPeriodsController</title>
<path fill="none" stroke="black" d="M479.888,-730.146C479.888,-730.146 617.309,-730.146 617.309,-730.146 623.309,-730.146 629.309,-736.146 629.309,-742.146 629.309,-742.146 629.309,-883.746 629.309,-883.746 629.309,-889.746 623.309,-895.746 617.309,-895.746 617.309,-895.746 479.888,-895.746 479.888,-895.746 473.888,-895.746 467.888,-889.746 467.888,-883.746 467.888,-883.746 467.888,-742.146 467.888,-742.146 467.888,-736.146 473.888,-730.146 479.888,-730.146"/>
<text text-anchor="middle" x="548.598" y="-877.746" font-family="Times,serif" font-size="14.00">GradingPeriodsController</text>
<polyline fill="none" stroke="black" points="467.888,-870.946 629.309,-870.946 "/>
<text text-anchor="start" x="475.888" y="-852.946" font-family="Times,serif" font-size="14.00">create</text>
<text text-anchor="start" x="475.888" y="-836.146" font-family="Times,serif" font-size="14.00">new</text>
<text text-anchor="start" x="475.888" y="-819.346" font-family="Times,serif" font-size="14.00">show</text>
<polyline fill="none" stroke="black" points="467.888,-812.546 629.309,-812.546 "/>
<polyline fill="none" stroke="black" points="467.888,-788.546 629.309,-788.546 "/>
<text text-anchor="start" x="475.888" y="-770.546" font-family="Times,serif" font-size="14.00">_layout</text>
<text text-anchor="start" x="475.888" y="-753.746" font-family="Times,serif" font-size="14.00">find_semester</text>
<text text-anchor="start" x="475.888" y="-736.946" font-family="Times,serif" font-size="14.00">grading_period_params</text>
</g>
<!-- ApplicationController&#45;&gt;GradingPeriodsController -->
<g id="edge4" class="edge"><title>ApplicationController&#45;&gt;GradingPeriodsController</title>
<path fill="none" stroke="black" d="M539.909,-673.254C541.072,-691.94 542.288,-711.495 543.43,-729.856"/>
</g>
<!-- GuardianshipsController -->
<g id="node9" class="node"><title>GuardianshipsController</title>
<path fill="none" stroke="black" d="M255.435,-751.526C255.435,-751.526 385.856,-751.526 385.856,-751.526 391.856,-751.526 397.856,-757.526 397.856,-763.526 397.856,-763.526 397.856,-853.926 397.856,-853.926 397.856,-859.926 391.856,-865.926 385.856,-865.926 385.856,-865.926 255.435,-865.926 255.435,-865.926 249.435,-865.926 243.435,-859.926 243.435,-853.926 243.435,-853.926 243.435,-763.526 243.435,-763.526 243.435,-757.526 249.435,-751.526 255.435,-751.526"/>
<text text-anchor="middle" x="320.645" y="-847.926" font-family="Times,serif" font-size="14.00">GuardianshipsController</text>
<polyline fill="none" stroke="black" points="243.435,-841.126 397.856,-841.126 "/>
<polyline fill="none" stroke="black" points="243.435,-817.126 397.856,-817.126 "/>
<polyline fill="none" stroke="black" points="243.435,-793.126 397.856,-793.126 "/>
<text text-anchor="start" x="251.435" y="-775.126" font-family="Times,serif" font-size="14.00">_layout</text>
<text text-anchor="start" x="251.435" y="-758.326" font-family="Times,serif" font-size="14.00">guardianship_params</text>
</g>
<!-- ApplicationController&#45;&gt;GuardianshipsController -->
<g id="edge5" class="edge"><title>ApplicationController&#45;&gt;GuardianshipsController</title>
<path fill="none" stroke="black" d="M447.953,-673.215C423.18,-699.584 396.876,-727.583 374.648,-751.244"/>
</g>
<!-- Instructor::SectionsController -->
<g id="node10" class="node"><title>Instructor::SectionsController</title>
<path fill="none" stroke="black" d="M13.5089,-74.6382C13.5089,-74.6382 172.702,-74.6382 172.702,-74.6382 178.702,-74.6382 184.702,-80.6382 184.702,-86.6382 184.702,-86.6382 184.702,-177.838 184.702,-177.838 184.702,-183.838 178.702,-189.838 172.702,-189.838 172.702,-189.838 13.5089,-189.838 13.5089,-189.838 7.50889,-189.838 1.50889,-183.838 1.50889,-177.838 1.50889,-177.838 1.50889,-86.6382 1.50889,-86.6382 1.50889,-80.6382 7.50889,-74.6382 13.5089,-74.6382"/>
<text text-anchor="middle" x="93.1056" y="-171.838" font-family="Times,serif" font-size="14.00">Instructor::SectionsController</text>
<polyline fill="none" stroke="black" points="1.50889,-165.038 184.702,-165.038 "/>
<text text-anchor="start" x="9.50889" y="-147.038" font-family="Times,serif" font-size="14.00">index</text>
<text text-anchor="start" x="9.50889" y="-130.238" font-family="Times,serif" font-size="14.00">show</text>
<polyline fill="none" stroke="black" points="1.50889,-123.438 184.702,-123.438 "/>
<polyline fill="none" stroke="black" points="1.50889,-99.4382 184.702,-99.4382 "/>
<text text-anchor="start" x="9.50889" y="-81.4382" font-family="Times,serif" font-size="14.00">_layout</text>
</g>
<!-- ApplicationController&#45;&gt;Instructor::SectionsController -->
<g id="edge6" class="edge"><title>ApplicationController&#45;&gt;Instructor::SectionsController</title>
<path fill="none" stroke="black" d="M429.257,-534.858C373.98,-506.636 307.776,-466.587 259.195,-417.505 192.977,-350.606 143.359,-252.121 116.299,-190.121"/>
</g>
<!-- ParentsController -->
<g id="node11" class="node"><title>ParentsController</title>
<path fill="none" stroke="black" d="M727.721,-359.434C727.721,-359.434 818.48,-359.434 818.48,-359.434 824.48,-359.434 830.48,-365.434 830.48,-371.434 830.48,-371.434 830.48,-529.834 830.48,-529.834 830.48,-535.834 824.48,-541.834 818.48,-541.834 818.48,-541.834 727.721,-541.834 727.721,-541.834 721.721,-541.834 715.721,-535.834 715.721,-529.834 715.721,-529.834 715.721,-371.434 715.721,-371.434 715.721,-365.434 721.721,-359.434 727.721,-359.434"/>
<text text-anchor="middle" x="773.1" y="-523.834" font-family="Times,serif" font-size="14.00">ParentsController</text>
<polyline fill="none" stroke="black" points="715.721,-517.034 830.48,-517.034 "/>
<text text-anchor="start" x="723.721" y="-499.034" font-family="Times,serif" font-size="14.00">create</text>
<text text-anchor="start" x="723.721" y="-482.234" font-family="Times,serif" font-size="14.00">edit</text>
<text text-anchor="start" x="723.721" y="-465.434" font-family="Times,serif" font-size="14.00">new</text>
<text text-anchor="start" x="723.721" y="-448.634" font-family="Times,serif" font-size="14.00">show</text>
<text text-anchor="start" x="723.721" y="-431.834" font-family="Times,serif" font-size="14.00">update</text>
<polyline fill="none" stroke="black" points="715.721,-425.034 830.48,-425.034 "/>
<polyline fill="none" stroke="black" points="715.721,-401.034 830.48,-401.034 "/>
<text text-anchor="start" x="723.721" y="-383.034" font-family="Times,serif" font-size="14.00">_layout</text>
<text text-anchor="start" x="723.721" y="-366.234" font-family="Times,serif" font-size="14.00">parent_params</text>
</g>
<!-- ApplicationController&#45;&gt;ParentsController -->
<g id="edge7" class="edge"><title>ApplicationController&#45;&gt;ParentsController</title>
<path fill="none" stroke="black" d="M639.331,-523.861C665.495,-509.539 692.588,-494.707 715.493,-482.169"/>
</g>
<!-- SchedulesController -->
<g id="node12" class="node"><title>SchedulesController</title>
<path fill="none" stroke="black" d="M255.799,-532.319C255.799,-532.319 362.11,-532.319 362.11,-532.319 368.11,-532.319 374.11,-538.319 374.11,-544.319 374.11,-544.319 374.11,-618.719 374.11,-618.719 374.11,-624.719 368.11,-630.719 362.11,-630.719 362.11,-630.719 255.799,-630.719 255.799,-630.719 249.799,-630.719 243.799,-624.719 243.799,-618.719 243.799,-618.719 243.799,-544.319 243.799,-544.319 243.799,-538.319 249.799,-532.319 255.799,-532.319"/>
<text text-anchor="middle" x="308.954" y="-612.719" font-family="Times,serif" font-size="14.00">SchedulesController</text>
<polyline fill="none" stroke="black" points="243.799,-605.919 374.11,-605.919 "/>
<text text-anchor="start" x="251.799" y="-587.919" font-family="Times,serif" font-size="14.00">show</text>
<polyline fill="none" stroke="black" points="243.799,-581.119 374.11,-581.119 "/>
<polyline fill="none" stroke="black" points="243.799,-557.119 374.11,-557.119 "/>
<text text-anchor="start" x="251.799" y="-539.119" font-family="Times,serif" font-size="14.00">_layout</text>
</g>
<!-- ApplicationController&#45;&gt;SchedulesController -->
<g id="edge8" class="edge"><title>ApplicationController&#45;&gt;SchedulesController</title>
<path fill="none" stroke="black" d="M429.159,-581.463C410.465,-581.471 391.49,-581.48 374.309,-581.488"/>
</g>
<!-- SchoolYearsController -->
<g id="node13" class="node"><title>SchoolYearsController</title>
<path fill="none" stroke="black" d="M491.577,-9.91714C491.577,-9.91714 611.265,-9.91714 611.265,-9.91714 617.265,-9.91714 623.265,-15.9171 623.265,-21.9171 623.265,-21.9171 623.265,-163.517 623.265,-163.517 623.265,-169.517 617.265,-175.517 611.265,-175.517 611.265,-175.517 491.577,-175.517 491.577,-175.517 485.577,-175.517 479.577,-169.517 479.577,-163.517 479.577,-163.517 479.577,-21.9171 479.577,-21.9171 479.577,-15.9171 485.577,-9.91714 491.577,-9.91714"/>
<text text-anchor="middle" x="551.421" y="-157.517" font-family="Times,serif" font-size="14.00">SchoolYearsController</text>
<polyline fill="none" stroke="black" points="479.577,-150.717 623.265,-150.717 "/>
<text text-anchor="start" x="487.577" y="-132.717" font-family="Times,serif" font-size="14.00">create</text>
<text text-anchor="start" x="487.577" y="-115.917" font-family="Times,serif" font-size="14.00">index</text>
<text text-anchor="start" x="487.577" y="-99.1171" font-family="Times,serif" font-size="14.00">new</text>
<text text-anchor="start" x="487.577" y="-82.3171" font-family="Times,serif" font-size="14.00">show</text>
<polyline fill="none" stroke="black" points="479.577,-75.5171 623.265,-75.5171 "/>
<polyline fill="none" stroke="black" points="479.577,-51.5171 623.265,-51.5171 "/>
<text text-anchor="start" x="487.577" y="-33.5171" font-family="Times,serif" font-size="14.00">_layout</text>
<text text-anchor="start" x="487.577" y="-16.7171" font-family="Times,serif" font-size="14.00">school_year_params</text>
</g>
<!-- ApplicationController&#45;&gt;SchoolYearsController -->
<g id="edge9" class="edge"><title>ApplicationController&#45;&gt;SchoolYearsController</title>
<path fill="none" stroke="black" d="M474.822,-489.734C472.013,-482.947 469.585,-476.06 467.699,-469.179 439.605,-366.647 438.949,-332.329 467.699,-229.979 472.908,-211.437 481.391,-192.918 491.005,-175.758"/>
</g>
<!-- SchoolsController -->
<g id="node14" class="node"><title>SchoolsController</title>
<path fill="none" stroke="black" d="M274.395,-299.105C274.395,-299.105 368.277,-299.105 368.277,-299.105 374.277,-299.105 380.277,-305.105 380.277,-311.105 380.277,-311.105 380.277,-402.305 380.277,-402.305 380.277,-408.305 374.277,-414.305 368.277,-414.305 368.277,-414.305 274.395,-414.305 274.395,-414.305 268.395,-414.305 262.395,-408.305 262.395,-402.305 262.395,-402.305 262.395,-311.105 262.395,-311.105 262.395,-305.105 268.395,-299.105 274.395,-299.105"/>
<text text-anchor="middle" x="321.336" y="-396.305" font-family="Times,serif" font-size="14.00">SchoolsController</text>
<polyline fill="none" stroke="black" points="262.395,-389.505 380.277,-389.505 "/>
<text text-anchor="start" x="270.395" y="-371.505" font-family="Times,serif" font-size="14.00">index</text>
<polyline fill="none" stroke="black" points="262.395,-364.705 380.277,-364.705 "/>
<polyline fill="none" stroke="black" points="262.395,-340.705 380.277,-340.705 "/>
<text text-anchor="start" x="270.395" y="-322.705" font-family="Times,serif" font-size="14.00">_layout</text>
<text text-anchor="start" x="270.395" y="-305.905" font-family="Times,serif" font-size="14.00">school_params</text>
</g>
<!-- ApplicationController&#45;&gt;SchoolsController -->
<g id="edge10" class="edge"><title>ApplicationController&#45;&gt;SchoolsController</title>
<path fill="none" stroke="black" d="M447.311,-489.692C423.17,-464.207 397.639,-437.256 375.921,-414.328"/>
</g>
<!-- SectionsController -->
<g id="node15" class="node"><title>SectionsController</title>
<path fill="none" stroke="black" d="M12,-613.655C12,-613.655 160.27,-613.655 160.27,-613.655 166.27,-613.655 172.27,-619.655 172.27,-625.655 172.27,-625.655 172.27,-817.655 172.27,-817.655 172.27,-823.655 166.27,-829.655 160.27,-829.655 160.27,-829.655 12,-829.655 12,-829.655 6,-829.655 -5.68434e-14,-823.655 -5.68434e-14,-817.655 -5.68434e-14,-817.655 -5.68434e-14,-625.655 -5.68434e-14,-625.655 -5.68434e-14,-619.655 6,-613.655 12,-613.655"/>
<text text-anchor="middle" x="86.1348" y="-811.655" font-family="Times,serif" font-size="14.00">SectionsController</text>
<polyline fill="none" stroke="black" points="-5.68434e-14,-804.855 172.27,-804.855 "/>
<text text-anchor="start" x="8" y="-786.855" font-family="Times,serif" font-size="14.00">create</text>
<text text-anchor="start" x="8" y="-770.055" font-family="Times,serif" font-size="14.00">edit</text>
<text text-anchor="start" x="8" y="-753.255" font-family="Times,serif" font-size="14.00">new</text>
<text text-anchor="start" x="8" y="-736.455" font-family="Times,serif" font-size="14.00">show</text>
<text text-anchor="start" x="8" y="-719.655" font-family="Times,serif" font-size="14.00">update</text>
<polyline fill="none" stroke="black" points="-5.68434e-14,-712.855 172.27,-712.855 "/>
<polyline fill="none" stroke="black" points="-5.68434e-14,-688.855 172.27,-688.855 "/>
<text text-anchor="start" x="8" y="-670.855" font-family="Times,serif" font-size="14.00">_layout</text>
<text text-anchor="start" x="8" y="-654.055" font-family="Times,serif" font-size="14.00">create_section_registrations</text>
<text text-anchor="start" x="8" y="-637.255" font-family="Times,serif" font-size="14.00">find_course</text>
<text text-anchor="start" x="8" y="-620.455" font-family="Times,serif" font-size="14.00">section_params</text>
</g>
<!-- ApplicationController&#45;&gt;SectionsController -->
<g id="edge11" class="edge"><title>ApplicationController&#45;&gt;SectionsController</title>
<path fill="none" stroke="black" d="M429.274,-617.016C411.944,-622.757 394.144,-628.567 377.31,-633.919 308.63,-655.753 230.408,-679.247 172.346,-696.423"/>
</g>
<!-- SemestersController -->
<g id="node16" class="node"><title>SemestersController</title>
<path fill="none" stroke="black" d="M722.335,-639.103C722.335,-639.103 828.645,-639.103 828.645,-639.103 834.645,-639.103 840.645,-645.103 840.645,-651.103 840.645,-651.103 840.645,-792.703 840.645,-792.703 840.645,-798.703 834.645,-804.703 828.645,-804.703 828.645,-804.703 722.335,-804.703 722.335,-804.703 716.335,-804.703 710.335,-798.703 710.335,-792.703 710.335,-792.703 710.335,-651.103 710.335,-651.103 710.335,-645.103 716.335,-639.103 722.335,-639.103"/>
<text text-anchor="middle" x="775.49" y="-786.703" font-family="Times,serif" font-size="14.00">SemestersController</text>
<polyline fill="none" stroke="black" points="710.335,-779.903 840.645,-779.903 "/>
<text text-anchor="start" x="718.335" y="-761.903" font-family="Times,serif" font-size="14.00">create</text>
<text text-anchor="start" x="718.335" y="-745.103" font-family="Times,serif" font-size="14.00">new</text>
<text text-anchor="start" x="718.335" y="-728.303" font-family="Times,serif" font-size="14.00">show</text>
<polyline fill="none" stroke="black" points="710.335,-721.503 840.645,-721.503 "/>
<polyline fill="none" stroke="black" points="710.335,-697.503 840.645,-697.503 "/>
<text text-anchor="start" x="718.335" y="-679.503" font-family="Times,serif" font-size="14.00">_layout</text>
<text text-anchor="start" x="718.335" y="-662.703" font-family="Times,serif" font-size="14.00">find_school_year</text>
<text text-anchor="start" x="718.335" y="-645.903" font-family="Times,serif" font-size="14.00">semester_params</text>
</g>
<!-- ApplicationController&#45;&gt;SemestersController -->
<g id="edge12" class="edge"><title>ApplicationController&#45;&gt;SemestersController</title>
<path fill="none" stroke="black" d="M639.329,-642.625C663.459,-656.674 688.431,-671.214 710.297,-683.945"/>
</g>
<!-- StaticPagesController -->
<g id="node17" class="node"><title>StaticPagesController</title>
<path fill="none" stroke="black" d="M686.756,-978.162C686.756,-978.162 800.845,-978.162 800.845,-978.162 806.845,-978.162 812.845,-984.162 812.845,-990.162 812.845,-990.162 812.845,-1063.76 812.845,-1063.76 812.845,-1069.76 806.845,-1075.76 800.845,-1075.76 800.845,-1075.76 686.756,-1075.76 686.756,-1075.76 680.756,-1075.76 674.756,-1069.76 674.756,-1063.76 674.756,-1063.76 674.756,-990.162 674.756,-990.162 674.756,-984.162 680.756,-978.162 686.756,-978.162"/>
<text text-anchor="middle" x="743.801" y="-1057.76" font-family="Times,serif" font-size="14.00">StaticPagesController</text>
<polyline fill="none" stroke="black" points="674.756,-1050.96 812.845,-1050.96 "/>
<polyline fill="none" stroke="black" points="674.756,-1026.96 812.845,-1026.96 "/>
<polyline fill="none" stroke="black" points="674.756,-1002.96 812.845,-1002.96 "/>
<text text-anchor="start" x="682.756" y="-984.962" font-family="Times,serif" font-size="14.00">_layout</text>
</g>
<!-- ApplicationController&#45;&gt;StaticPagesController -->
<g id="edge13" class="edge"><title>ApplicationController&#45;&gt;StaticPagesController</title>
<path fill="none" stroke="black" d="M601.075,-673.335C612.322,-690.704 623.311,-709.047 632.509,-726.946 675.99,-811.565 711.1,-917.227 729.581,-977.912"/>
</g>
<!-- StudentsController -->
<g id="node18" class="node"><title>StudentsController</title>
<path fill="none" stroke="black" d="M366.637,-919.926C366.637,-919.926 496.272,-919.926 496.272,-919.926 502.272,-919.926 508.272,-925.926 508.272,-931.926 508.272,-931.926 508.272,-1174.33 508.272,-1174.33 508.272,-1180.33 502.272,-1186.33 496.272,-1186.33 496.272,-1186.33 366.637,-1186.33 366.637,-1186.33 360.637,-1186.33 354.637,-1180.33 354.637,-1174.33 354.637,-1174.33 354.637,-931.926 354.637,-931.926 354.637,-925.926 360.637,-919.926 366.637,-919.926"/>
<text text-anchor="middle" x="431.455" y="-1168.33" font-family="Times,serif" font-size="14.00">StudentsController</text>
<polyline fill="none" stroke="black" points="354.637,-1161.53 508.272,-1161.53 "/>
<text text-anchor="start" x="362.637" y="-1143.53" font-family="Times,serif" font-size="14.00">create</text>
<text text-anchor="start" x="362.637" y="-1126.73" font-family="Times,serif" font-size="14.00">current_student</text>
<text text-anchor="start" x="362.637" y="-1109.93" font-family="Times,serif" font-size="14.00">edit</text>
<text text-anchor="start" x="362.637" y="-1093.13" font-family="Times,serif" font-size="14.00">index</text>
<text text-anchor="start" x="362.637" y="-1076.33" font-family="Times,serif" font-size="14.00">new</text>
<text text-anchor="start" x="362.637" y="-1059.53" font-family="Times,serif" font-size="14.00">show</text>
<text text-anchor="start" x="362.637" y="-1042.73" font-family="Times,serif" font-size="14.00">update</text>
<polyline fill="none" stroke="black" points="354.637,-1035.93 508.272,-1035.93 "/>
<polyline fill="none" stroke="black" points="354.637,-1011.93 508.272,-1011.93 "/>
<text text-anchor="start" x="362.637" y="-993.926" font-family="Times,serif" font-size="14.00">_layout</text>
<text text-anchor="start" x="362.637" y="-977.126" font-family="Times,serif" font-size="14.00">find_student_or_redirect</text>
<text text-anchor="start" x="362.637" y="-960.326" font-family="Times,serif" font-size="14.00">sort_column</text>
<text text-anchor="start" x="362.637" y="-943.526" font-family="Times,serif" font-size="14.00">sort_direction</text>
<text text-anchor="start" x="362.637" y="-926.726" font-family="Times,serif" font-size="14.00">student_params</text>
</g>
<!-- ApplicationController&#45;&gt;StudentsController -->
<g id="edge14" class="edge"><title>ApplicationController&#45;&gt;StudentsController</title>
<path fill="none" stroke="black" d="M484.591,-673.117C476.826,-690.585 469.718,-709.019 464.688,-726.946 447.273,-789.013 438.762,-860 434.686,-919.867"/>
</g>
<!-- TeachersController -->
<g id="node19" class="node"><title>TeachersController</title>
<path fill="none" stroke="black" d="M482.899,-233.179C482.899,-233.179 612.5,-233.179 612.5,-233.179 618.5,-233.179 624.5,-239.179 624.5,-245.179 624.5,-245.179 624.5,-453.979 624.5,-453.979 624.5,-459.979 618.5,-465.979 612.5,-465.979 612.5,-465.979 482.899,-465.979 482.899,-465.979 476.899,-465.979 470.899,-459.979 470.899,-453.979 470.899,-453.979 470.899,-245.179 470.899,-245.179 470.899,-239.179 476.899,-233.179 482.899,-233.179"/>
<text text-anchor="middle" x="547.7" y="-447.979" font-family="Times,serif" font-size="14.00">TeachersController</text>
<polyline fill="none" stroke="black" points="470.899,-441.179 624.5,-441.179 "/>
<text text-anchor="start" x="478.899" y="-423.179" font-family="Times,serif" font-size="14.00">create</text>
<text text-anchor="start" x="478.899" y="-406.379" font-family="Times,serif" font-size="14.00">edit</text>
<text text-anchor="start" x="478.899" y="-389.579" font-family="Times,serif" font-size="14.00">index</text>
<text text-anchor="start" x="478.899" y="-372.779" font-family="Times,serif" font-size="14.00">new</text>
<text text-anchor="start" x="478.899" y="-355.979" font-family="Times,serif" font-size="14.00">show</text>
<text text-anchor="start" x="478.899" y="-339.179" font-family="Times,serif" font-size="14.00">update</text>
<polyline fill="none" stroke="black" points="470.899,-332.379 624.5,-332.379 "/>
<polyline fill="none" stroke="black" points="470.899,-308.379 624.5,-308.379 "/>
<text text-anchor="start" x="478.899" y="-290.379" font-family="Times,serif" font-size="14.00">_layout</text>
<text text-anchor="start" x="478.899" y="-273.579" font-family="Times,serif" font-size="14.00">find_teacher_or_redirect</text>
<text text-anchor="start" x="478.899" y="-256.779" font-family="Times,serif" font-size="14.00">password_generator</text>
<text text-anchor="start" x="478.899" y="-239.979" font-family="Times,serif" font-size="14.00">teacher_params</text>
</g>
<!-- ApplicationController&#45;&gt;TeachersController -->
<g id="edge15" class="edge"><title>ApplicationController&#45;&gt;TeachersController</title>
<path fill="none" stroke="black" d="M539.533,-489.786C539.983,-482.066 540.441,-474.195 540.9,-466.319"/>
</g>
<!-- TimeBlocksController -->
<g id="node20" class="node"><title>TimeBlocksController</title>
<path fill="none" stroke="black" d="M719.914,-90.3041C719.914,-90.3041 837.408,-90.3041 837.408,-90.3041 843.408,-90.3041 849.408,-96.3041 849.408,-102.304 849.408,-102.304 849.408,-176.704 849.408,-176.704 849.408,-182.704 843.408,-188.704 837.408,-188.704 837.408,-188.704 719.914,-188.704 719.914,-188.704 713.914,-188.704 707.914,-182.704 707.914,-176.704 707.914,-176.704 707.914,-102.304 707.914,-102.304 707.914,-96.3041 713.914,-90.3041 719.914,-90.3041"/>
<text text-anchor="middle" x="778.661" y="-170.704" font-family="Times,serif" font-size="14.00">TimeBlocksController</text>
<polyline fill="none" stroke="black" points="707.914,-163.904 849.408,-163.904 "/>
<text text-anchor="start" x="715.914" y="-145.904" font-family="Times,serif" font-size="14.00">time_blocks_params</text>
<polyline fill="none" stroke="black" points="707.914,-139.104 849.408,-139.104 "/>
<polyline fill="none" stroke="black" points="707.914,-115.104 849.408,-115.104 "/>
<text text-anchor="start" x="715.914" y="-97.1041" font-family="Times,serif" font-size="14.00">_layout</text>
</g>
<!-- ApplicationController&#45;&gt;TimeBlocksController -->
<g id="edge16" class="edge"><title>ApplicationController&#45;&gt;TimeBlocksController</title>
<path fill="none" stroke="black" d="M613.749,-489.775C618.671,-482.951 623.375,-476.047 627.7,-469.179 686.656,-375.561 735.813,-255.104 760.838,-188.783"/>
</g>
<!-- CustomDevise::PasswordsController -->
<g id="node5" class="node"><title>CustomDevise::PasswordsController</title>
<path fill="none" stroke="black" d="M924,-285.5C924,-285.5 1122.88,-285.5 1122.88,-285.5 1128.88,-285.5 1134.88,-291.5 1134.88,-297.5 1134.88,-297.5 1134.88,-387.9 1134.88,-387.9 1134.88,-393.9 1128.88,-399.9 1122.88,-399.9 1122.88,-399.9 924,-399.9 924,-399.9 918,-399.9 912,-393.9 912,-387.9 912,-387.9 912,-297.5 912,-297.5 912,-291.5 918,-285.5 924,-285.5"/>
<text text-anchor="middle" x="1023.44" y="-381.9" font-family="Times,serif" font-size="14.00">CustomDevise::PasswordsController</text>
<polyline fill="none" stroke="black" points="912,-375.1 1134.88,-375.1 "/>
<polyline fill="none" stroke="black" points="912,-351.1 1134.88,-351.1 "/>
<polyline fill="none" stroke="black" points="912,-327.1 1134.88,-327.1 "/>
<text text-anchor="start" x="920" y="-309.1" font-family="Times,serif" font-size="14.00">_layout</text>
<text text-anchor="start" x="920" y="-292.3" font-family="Times,serif" font-size="14.00">resource_params</text>
</g>
<!-- CustomDevise::RegistrationsController -->
<g id="node6" class="node"><title>CustomDevise::RegistrationsController</title>
<path fill="none" stroke="black" d="M924,-513.5C924,-513.5 1137.65,-513.5 1137.65,-513.5 1143.65,-513.5 1149.65,-519.5 1149.65,-525.5 1149.65,-525.5 1149.65,-615.9 1149.65,-615.9 1149.65,-621.9 1143.65,-627.9 1137.65,-627.9 1137.65,-627.9 924,-627.9 924,-627.9 918,-627.9 912,-621.9 912,-615.9 912,-615.9 912,-525.5 912,-525.5 912,-519.5 918,-513.5 924,-513.5"/>
<text text-anchor="middle" x="1030.82" y="-609.9" font-family="Times,serif" font-size="14.00">CustomDevise::RegistrationsController</text>
<polyline fill="none" stroke="black" points="912,-603.1 1149.65,-603.1 "/>
<polyline fill="none" stroke="black" points="912,-579.1 1149.65,-579.1 "/>
<polyline fill="none" stroke="black" points="912,-555.1 1149.65,-555.1 "/>
<text text-anchor="start" x="920" y="-537.1" font-family="Times,serif" font-size="14.00">_layout</text>
<text text-anchor="start" x="920" y="-520.3" font-family="Times,serif" font-size="14.00">resource_params</text>
</g>
</g>
</svg>
