<?xml version="1.0" encoding="UTF-8" standalone="no"?>
<!DOCTYPE svg PUBLIC "-//W3C//DTD SVG 1.1//EN"
 "http://www.w3.org/Graphics/SVG/1.1/DTD/svg11.dtd">
<!-- Generated by graphviz version 2.30.1 (20130501.1332)
 -->
<!-- Title: controllers_diagram Pages: 1 -->
<svg width="1075pt" height="728pt"
 viewBox="0.00 0.00 1075.48 728.00" xmlns="http://www.w3.org/2000/svg" xmlns:xlink="http://www.w3.org/1999/xlink">
<g id="graph0" class="graph" transform="scale(1 1) rotate(0) translate(4 724)">
<title>controllers_diagram</title>
<polygon fill="white" stroke="white" points="-4,5 -4,-724 1072.48,-724 1072.48,5 -4,5"/>
<!-- _diagram_info -->
<g id="node1" class="node"><title>_diagram_info</title>
<text text-anchor="start" x="464" y="-69" font-family="Times,serif" font-size="13.00">Controllers diagram</text>
<text text-anchor="start" x="464" y="-53.4" font-family="Times,serif" font-size="13.00">Date: May 08 2013 &#45; 16:23</text>
<text text-anchor="start" x="464" y="-37.8" font-family="Times,serif" font-size="13.00">Migration version: 20130501192929</text>
<text text-anchor="start" x="464" y="-22.2" font-family="Times,serif" font-size="13.00">Generated by RailRoady 1.1.0</text>
<text text-anchor="start" x="464" y="-6.6" font-family="Times,serif" font-size="13.00">http://railroady.prestonlee.com</text>
</g>
<!-- AddressesController -->
<g id="node2" class="node"><title>AddressesController</title>
<ellipse fill="none" stroke="black" cx="101.453" cy="-372.349" rx="90.3468" ry="18"/>
<text text-anchor="middle" x="101.453" y="-366.749" font-family="Times,serif" font-size="14.00">AddressesController</text>
</g>
<!-- ApplicationController -->
<g id="node3" class="node"><title>ApplicationController</title>
<ellipse fill="none" stroke="black" cx="523.584" cy="-405.439" rx="96.1448" ry="18"/>
<text text-anchor="middle" x="523.584" y="-399.839" font-family="Times,serif" font-size="14.00">ApplicationController</text>
</g>
<!-- ApplicationController&#45;&gt;AddressesController -->
<g id="edge1" class="edge"><title>ApplicationController&#45;&gt;AddressesController</title>
<path fill="none" stroke="black" d="M434.577,-398.462C361.163,-392.707 257.731,-384.599 185.666,-378.95"/>
</g>
<!-- CoursesController -->
<g id="node4" class="node"><title>CoursesController</title>
<ellipse fill="none" stroke="black" cx="337.561" cy="-177" rx="81.6928" ry="18"/>
<text text-anchor="middle" x="337.561" y="-171.4" font-family="Times,serif" font-size="14.00">CoursesController</text>
</g>
<!-- ApplicationController&#45;&gt;CoursesController -->
<g id="edge2" class="edge"><title>ApplicationController&#45;&gt;CoursesController</title>
<path fill="none" stroke="black" d="M487.209,-388.629C449.698,-369.354 392.437,-334.156 361.424,-286.424 343.097,-258.217 338.643,-218.162 337.681,-195.154"/>
</g>
<!-- GradesController -->
<g id="node7" class="node"><title>GradesController</title>
<ellipse fill="none" stroke="black" cx="312.719" cy="-562.335" rx="78.1575" ry="18"/>
<text text-anchor="middle" x="312.719" y="-556.735" font-family="Times,serif" font-size="14.00">GradesController</text>
</g>
<!-- ApplicationController&#45;&gt;GradesController -->
<g id="edge3" class="edge"><title>ApplicationController&#45;&gt;GradesController</title>
<path fill="none" stroke="black" d="M513.399,-423.433C509.669,-429.153 505.131,-435.26 500.156,-440.156 453.091,-486.475 385.878,-525.155 346.031,-545.916"/>
</g>
<!-- GradingPeriodsController -->
<g id="node8" class="node"><title>GradingPeriodsController</title>
<ellipse fill="none" stroke="black" cx="643.981" cy="-489.108" rx="111.191" ry="18"/>
<text text-anchor="middle" x="643.981" y="-483.508" font-family="Times,serif" font-size="14.00">GradingPeriodsController</text>
</g>
<!-- ApplicationController&#45;&gt;GradingPeriodsController -->
<g id="edge4" class="edge"><title>ApplicationController&#45;&gt;GradingPeriodsController</title>
<path fill="none" stroke="black" d="M548.823,-422.979C569.233,-437.163 597.849,-457.049 618.36,-471.303"/>
</g>
<!-- GuardianshipsController -->
<g id="node9" class="node"><title>GuardianshipsController</title>
<ellipse fill="none" stroke="black" cx="392.042" cy="-440.029" rx="106.533" ry="18"/>
<text text-anchor="middle" x="392.042" y="-434.429" font-family="Times,serif" font-size="14.00">GuardianshipsController</text>
</g>
<!-- ApplicationController&#45;&gt;GuardianshipsController -->
<g id="edge5" class="edge"><title>ApplicationController&#45;&gt;GuardianshipsController</title>
<path fill="none" stroke="black" d="M467.417,-420.209C461.551,-421.751 455.581,-423.321 449.699,-424.868"/>
</g>
<!-- Instructor::SectionsController -->
<g id="node10" class="node"><title>Instructor::SectionsController</title>
<ellipse fill="none" stroke="black" cx="126.363" cy="-191.026" rx="126.227" ry="18"/>
<text text-anchor="middle" x="126.363" y="-185.426" font-family="Times,serif" font-size="14.00">Instructor::SectionsController</text>
</g>
<!-- ApplicationController&#45;&gt;Instructor::SectionsController -->
<g id="edge6" class="edge"><title>ApplicationController&#45;&gt;Instructor::SectionsController</title>
<path fill="none" stroke="black" d="M491.749,-388.255C417.465,-348.158 233.332,-248.766 158.627,-208.441"/>
</g>
<!-- ParentsController -->
<g id="node11" class="node"><title>ParentsController</title>
<ellipse fill="none" stroke="black" cx="823.725" cy="-309.562" rx="79.3174" ry="18"/>
<text text-anchor="middle" x="823.725" y="-303.962" font-family="Times,serif" font-size="14.00">ParentsController</text>
</g>
<!-- ApplicationController&#45;&gt;ParentsController -->
<g id="edge7" class="edge"><title>ApplicationController&#45;&gt;ParentsController</title>
<path fill="none" stroke="black" d="M572.475,-389.822C629.285,-371.674 722.304,-341.96 777.811,-324.229"/>
</g>
<!-- SchedulesController -->
<g id="node12" class="node"><title>SchedulesController</title>
<ellipse fill="none" stroke="black" cx="272.442" cy="-352.894" rx="89.7718" ry="18"/>
<text text-anchor="middle" x="272.442" y="-347.294" font-family="Times,serif" font-size="14.00">SchedulesController</text>
</g>
<!-- ApplicationController&#45;&gt;SchedulesController -->
<g id="edge8" class="edge"><title>ApplicationController&#45;&gt;SchedulesController</title>
<path fill="none" stroke="black" d="M459.235,-391.976C421.013,-383.979 372.771,-373.885 334.888,-365.959"/>
</g>
<!-- SchoolYearsController -->
<g id="node13" class="node"><title>SchoolYearsController</title>
<ellipse fill="none" stroke="black" cx="555.959" cy="-171.298" rx="99.2275" ry="18"/>
<text text-anchor="middle" x="555.959" y="-165.698" font-family="Times,serif" font-size="14.00">SchoolYearsController</text>
</g>
<!-- ApplicationController&#45;&gt;SchoolYearsController -->
<g id="edge9" class="edge"><title>ApplicationController&#45;&gt;SchoolYearsController</title>
<path fill="none" stroke="black" d="M526.125,-387.067C532.177,-343.298 547.39,-233.268 553.43,-189.585"/>
</g>
<!-- SchoolsController -->
<g id="node14" class="node"><title>SchoolsController</title>
<ellipse fill="none" stroke="black" cx="444.336" cy="-286.553" rx="81.1273" ry="18"/>
<text text-anchor="middle" x="444.336" y="-280.953" font-family="Times,serif" font-size="14.00">SchoolsController</text>
</g>
<!-- ApplicationController&#45;&gt;SchoolsController -->
<g id="edge10" class="edge"><title>ApplicationController&#45;&gt;SchoolsController</title>
<path fill="none" stroke="black" d="M511.548,-387.383C496.566,-364.908 471.139,-326.762 456.225,-304.39"/>
</g>
<!-- SectionsController -->
<g id="node15" class="node"><title>SectionsController</title>
<ellipse fill="none" stroke="black" cx="121.384" cy="-550.83" rx="83.4083" ry="18"/>
<text text-anchor="middle" x="121.384" y="-545.23" font-family="Times,serif" font-size="14.00">SectionsController</text>
</g>
<!-- ApplicationController&#45;&gt;SectionsController -->
<g id="edge11" class="edge"><title>ApplicationController&#45;&gt;SectionsController</title>
<path fill="none" stroke="black" d="M514.1,-423.595C510.364,-429.459 505.645,-435.612 500.156,-440.156 488.172,-450.077 482.667,-448.801 467.996,-453.978 367.536,-489.423 247.143,-520.616 177.93,-537.498"/>
</g>
<!-- SemestersController -->
<g id="node16" class="node"><title>SemestersController</title>
<ellipse fill="none" stroke="black" cx="824.239" cy="-450.606" rx="89.7718" ry="18"/>
<text text-anchor="middle" x="824.239" y="-445.006" font-family="Times,serif" font-size="14.00">SemestersController</text>
</g>
<!-- ApplicationController&#45;&gt;SemestersController -->
<g id="edge12" class="edge"><title>ApplicationController&#45;&gt;SemestersController</title>
<path fill="none" stroke="black" d="M598.677,-416.72C645.638,-423.775 705.796,-432.813 752.174,-439.78"/>
</g>
<!-- StaticPagesController -->
<g id="node17" class="node"><title>StaticPagesController</title>
<ellipse fill="none" stroke="black" cx="783.651" cy="-585.569" rx="95.0044" ry="18"/>
<text text-anchor="middle" x="783.651" y="-579.969" font-family="Times,serif" font-size="14.00">StaticPagesController</text>
</g>
<!-- ApplicationController&#45;&gt;StaticPagesController -->
<g id="edge13" class="edge"><title>ApplicationController&#45;&gt;StaticPagesController</title>
<path fill="none" stroke="black" d="M606.125,-414.839C656.716,-424.927 718.864,-445.835 756.925,-489.166 776.296,-511.218 781.739,-546.168 783.201,-567.375"/>
</g>
<!-- StudentsController -->
<g id="node18" class="node"><title>StudentsController</title>
<ellipse fill="none" stroke="black" cx="511.66" cy="-575.613" rx="83.9928" ry="18"/>
<text text-anchor="middle" x="511.66" y="-570.013" font-family="Times,serif" font-size="14.00">StudentsController</text>
</g>
<!-- ApplicationController&#45;&gt;StudentsController -->
<g id="edge14" class="edge"><title>ApplicationController&#45;&gt;StudentsController</title>
<path fill="none" stroke="black" d="M522.308,-423.651C520.013,-456.404 515.215,-524.874 512.927,-557.532"/>
</g>
<!-- TeachersController -->
<g id="node19" class="node"><title>TeachersController</title>
<ellipse fill="none" stroke="black" cx="641.445" cy="-312.472" rx="84.8036" ry="18"/>
<text text-anchor="middle" x="641.445" y="-306.872" font-family="Times,serif" font-size="14.00">TeachersController</text>
</g>
<!-- ApplicationController&#45;&gt;TeachersController -->
<g id="edge15" class="edge"><title>ApplicationController&#45;&gt;TeachersController</title>
<path fill="none" stroke="black" d="M546.03,-387.734C567.002,-371.192 598.137,-346.633 619.082,-330.112"/>
</g>
<!-- TimeBlocksController -->
<g id="node20" class="node"><title>TimeBlocksController</title>
<ellipse fill="none" stroke="black" cx="785.402" cy="-170" rx="97.7003" ry="18"/>
<text text-anchor="middle" x="785.402" y="-164.4" font-family="Times,serif" font-size="14.00">TimeBlocksController</text>
</g>
<!-- ApplicationController&#45;&gt;TimeBlocksController -->
<g id="edge16" class="edge"><title>ApplicationController&#45;&gt;TimeBlocksController</title>
<path fill="none" stroke="black" d="M525.955,-387.218C529.372,-367.048 537.328,-334.463 554.947,-312.28 604.661,-249.686 689.975,-207.482 741.684,-186.19"/>
</g>
<!-- CustomDevise::PasswordsController -->
<g id="node5" class="node"><title>CustomDevise::PasswordsController</title>
<ellipse fill="none" stroke="black" cx="913.74" cy="-702" rx="153.981" ry="18"/>
<text text-anchor="middle" x="913.74" y="-696.4" font-family="Times,serif" font-size="14.00">CustomDevise::PasswordsController</text>
</g>
<!-- CustomDevise::RegistrationsController -->
<g id="node6" class="node"><title>CustomDevise::RegistrationsController</title>
<ellipse fill="none" stroke="black" cx="467.926" cy="-664" rx="163.851" ry="18"/>
<text text-anchor="middle" x="467.926" y="-658.4" font-family="Times,serif" font-size="14.00">CustomDevise::RegistrationsController</text>
</g>
</g>
</svg>
