<?xml version="1.0" encoding="UTF-8" standalone="no"?>
<!DOCTYPE svg PUBLIC "-//W3C//DTD SVG 1.1//EN"
 "http://www.w3.org/Graphics/SVG/1.1/DTD/svg11.dtd">
<!-- Generated by graphviz version 2.30.1 (20130501.1332)
 -->
<!-- Title: controllers_diagram Pages: 1 -->
<svg width="1062pt" height="1057pt"
 viewBox="0.00 0.00 1061.65 1057.25" xmlns="http://www.w3.org/2000/svg" xmlns:xlink="http://www.w3.org/1999/xlink">
<g id="graph0" class="graph" transform="scale(1 1) rotate(0) translate(4 1053.25)">
<title>controllers_diagram</title>
<polygon fill="white" stroke="white" points="-4,5 -4,-1053.25 1058.65,-1053.25 1058.65,5 -4,5"/>
<!-- _diagram_info -->
<g id="node1" class="node"><title>_diagram_info</title>
<text text-anchor="start" x="824" y="-579" font-family="Times,serif" font-size="13.00">Controllers diagram</text>
<text text-anchor="start" x="824" y="-563.4" font-family="Times,serif" font-size="13.00">Date: May 01 2013 &#45; 09:34</text>
<text text-anchor="start" x="824" y="-547.8" font-family="Times,serif" font-size="13.00">Migration version: 20130423202448</text>
<text text-anchor="start" x="824" y="-532.2" font-family="Times,serif" font-size="13.00">Generated by RailRoady 1.1.0</text>
<text text-anchor="start" x="824" y="-516.6" font-family="Times,serif" font-size="13.00">http://railroady.prestonlee.com</text>
</g>
<!-- AddressesController -->
<g id="node2" class="node"><title>AddressesController</title>
<path fill="none" stroke="black" d="M12,-302.272C12,-302.272 119.09,-302.272 119.09,-302.272 125.09,-302.272 131.09,-308.272 131.09,-314.272 131.09,-314.272 131.09,-472.672 131.09,-472.672 131.09,-478.672 125.09,-484.672 119.09,-484.672 119.09,-484.672 12,-484.672 12,-484.672 6,-484.672 0,-478.672 0,-472.672 0,-472.672 0,-314.272 0,-314.272 0,-308.272 6,-302.272 12,-302.272"/>
<text text-anchor="middle" x="65.5449" y="-466.672" font-family="Times,serif" font-size="14.00">AddressesController</text>
<polyline fill="none" stroke="black" points="0,-459.872 131.09,-459.872 "/>
<text text-anchor="start" x="8" y="-441.872" font-family="Times,serif" font-size="14.00">create</text>
<text text-anchor="start" x="8" y="-425.072" font-family="Times,serif" font-size="14.00">edit</text>
<text text-anchor="start" x="8" y="-408.272" font-family="Times,serif" font-size="14.00">new</text>
<text text-anchor="start" x="8" y="-391.472" font-family="Times,serif" font-size="14.00">show</text>
<text text-anchor="start" x="8" y="-374.672" font-family="Times,serif" font-size="14.00">update</text>
<polyline fill="none" stroke="black" points="0,-367.872 131.09,-367.872 "/>
<polyline fill="none" stroke="black" points="0,-343.872 131.09,-343.872 "/>
<text text-anchor="start" x="8" y="-325.872" font-family="Times,serif" font-size="14.00">_layout</text>
<text text-anchor="start" x="8" y="-309.072" font-family="Times,serif" font-size="14.00">address_params</text>
</g>
<!-- ApplicationController -->
<g id="node3" class="node"><title>ApplicationController</title>
<path fill="none" stroke="black" d="M373.059,-433.413C373.059,-433.413 558.694,-433.413 558.694,-433.413 564.694,-433.413 570.694,-439.413 570.694,-445.413 570.694,-445.413 570.694,-587.813 570.694,-587.813 570.694,-593.813 564.694,-599.813 558.694,-599.813 558.694,-599.813 373.059,-599.813 373.059,-599.813 367.059,-599.813 361.059,-593.813 361.059,-587.813 361.059,-587.813 361.059,-445.413 361.059,-445.413 361.059,-439.413 367.059,-433.413 373.059,-433.413"/>
<text text-anchor="middle" x="465.877" y="-581.813" font-family="Times,serif" font-size="14.00">ApplicationController</text>
<polyline fill="none" stroke="black" points="361.059,-575.013 570.694,-575.013 "/>
<text text-anchor="start" x="369.059" y="-557.013" font-family="Times,serif" font-size="14.00">_one_time_conditions_valid_102?</text>
<text text-anchor="start" x="369.059" y="-540.213" font-family="Times,serif" font-size="14.00">_one_time_conditions_valid_104?</text>
<polyline fill="none" stroke="black" points="361.059,-533.413 570.694,-533.413 "/>
<text text-anchor="start" x="369.059" y="-515.413" font-family="Times,serif" font-size="14.00">current_semester</text>
<text text-anchor="start" x="369.059" y="-498.613" font-family="Times,serif" font-size="14.00">current_year</text>
<text text-anchor="start" x="369.059" y="-481.813" font-family="Times,serif" font-size="14.00">next_semester</text>
<text text-anchor="start" x="369.059" y="-465.013" font-family="Times,serif" font-size="14.00">next_year</text>
<polyline fill="none" stroke="black" points="361.059,-458.213 570.694,-458.213 "/>
<text text-anchor="start" x="369.059" y="-440.213" font-family="Times,serif" font-size="14.00">_layout</text>
</g>
<!-- ApplicationController&#45;&gt;AddressesController -->
<g id="edge1" class="edge"><title>ApplicationController&#45;&gt;AddressesController</title>
<path fill="none" stroke="black" d="M361.05,-437.063C354.536,-434.058 347.917,-431.419 341.253,-429.271 333.072,-426.635 195.063,-428.599 186.555,-427.376 168.307,-424.754 148.921,-420.169 131.137,-415.203"/>
</g>
<!-- CoursesController -->
<g id="node4" class="node"><title>CoursesController</title>
<path fill="none" stroke="black" d="M327.92,-0.5C327.92,-0.5 422.575,-0.5 422.575,-0.5 428.575,-0.5 434.575,-6.5 434.575,-12.5 434.575,-12.5 434.575,-187.7 434.575,-187.7 434.575,-193.7 428.575,-199.7 422.575,-199.7 422.575,-199.7 327.92,-199.7 327.92,-199.7 321.92,-199.7 315.92,-193.7 315.92,-187.7 315.92,-187.7 315.92,-12.5 315.92,-12.5 315.92,-6.5 321.92,-0.5 327.92,-0.5"/>
<text text-anchor="middle" x="375.247" y="-181.7" font-family="Times,serif" font-size="14.00">CoursesController</text>
<polyline fill="none" stroke="black" points="315.92,-174.9 434.575,-174.9 "/>
<text text-anchor="start" x="323.92" y="-156.9" font-family="Times,serif" font-size="14.00">course_params</text>
<text text-anchor="start" x="323.92" y="-140.1" font-family="Times,serif" font-size="14.00">create</text>
<text text-anchor="start" x="323.92" y="-123.3" font-family="Times,serif" font-size="14.00">edit</text>
<text text-anchor="start" x="323.92" y="-106.5" font-family="Times,serif" font-size="14.00">index</text>
<text text-anchor="start" x="323.92" y="-89.7" font-family="Times,serif" font-size="14.00">new</text>
<text text-anchor="start" x="323.92" y="-72.9" font-family="Times,serif" font-size="14.00">show</text>
<text text-anchor="start" x="323.92" y="-56.1" font-family="Times,serif" font-size="14.00">update</text>
<polyline fill="none" stroke="black" points="315.92,-49.3 434.575,-49.3 "/>
<polyline fill="none" stroke="black" points="315.92,-25.3 434.575,-25.3 "/>
<text text-anchor="start" x="323.92" y="-7.3" font-family="Times,serif" font-size="14.00">_layout</text>
</g>
<!-- ApplicationController&#45;&gt;CoursesController -->
<g id="edge2" class="edge"><title>ApplicationController&#45;&gt;CoursesController</title>
<path fill="none" stroke="black" d="M426.669,-433.111C418.026,-411.803 409.781,-388.659 404.154,-366.545 390.387,-312.434 383.175,-250.507 379.398,-199.981"/>
</g>
<!-- GradingPeriodsController -->
<g id="node7" class="node"><title>GradingPeriodsController</title>
<path fill="none" stroke="black" d="M28.7984,-825.882C28.7984,-825.882 166.219,-825.882 166.219,-825.882 172.219,-825.882 178.219,-831.882 178.219,-837.882 178.219,-837.882 178.219,-979.482 178.219,-979.482 178.219,-985.482 172.219,-991.482 166.219,-991.482 166.219,-991.482 28.7984,-991.482 28.7984,-991.482 22.7984,-991.482 16.7984,-985.482 16.7984,-979.482 16.7984,-979.482 16.7984,-837.882 16.7984,-837.882 16.7984,-831.882 22.7984,-825.882 28.7984,-825.882"/>
<text text-anchor="middle" x="97.5088" y="-973.482" font-family="Times,serif" font-size="14.00">GradingPeriodsController</text>
<polyline fill="none" stroke="black" points="16.7984,-966.682 178.219,-966.682 "/>
<text text-anchor="start" x="24.7984" y="-948.682" font-family="Times,serif" font-size="14.00">create</text>
<text text-anchor="start" x="24.7984" y="-931.882" font-family="Times,serif" font-size="14.00">new</text>
<text text-anchor="start" x="24.7984" y="-915.082" font-family="Times,serif" font-size="14.00">show</text>
<polyline fill="none" stroke="black" points="16.7984,-908.282 178.219,-908.282 "/>
<polyline fill="none" stroke="black" points="16.7984,-884.282 178.219,-884.282 "/>
<text text-anchor="start" x="24.7984" y="-866.282" font-family="Times,serif" font-size="14.00">_layout</text>
<text text-anchor="start" x="24.7984" y="-849.482" font-family="Times,serif" font-size="14.00">find_semester</text>
<text text-anchor="start" x="24.7984" y="-832.682" font-family="Times,serif" font-size="14.00">grading_period_params</text>
</g>
<!-- ApplicationController&#45;&gt;GradingPeriodsController -->
<g id="edge3" class="edge"><title>ApplicationController&#45;&gt;GradingPeriodsController</title>
<path fill="none" stroke="black" d="M424.605,-600.042C416.139,-619.048 407.813,-639.356 401.223,-658.731 384.08,-709.136 407.362,-733.861 374.061,-775.401 350.092,-805.301 330.876,-796.126 296.349,-812.752 257.5,-831.46 214.395,-852.251 178.278,-869.682"/>
</g>
<!-- GuardianshipsController -->
<g id="node8" class="node"><title>GuardianshipsController</title>
<path fill="none" stroke="black" d="M416.423,-661.931C416.423,-661.931 546.844,-661.931 546.844,-661.931 552.844,-661.931 558.844,-667.931 558.844,-673.931 558.844,-673.931 558.844,-764.331 558.844,-764.331 558.844,-770.331 552.844,-776.331 546.844,-776.331 546.844,-776.331 416.423,-776.331 416.423,-776.331 410.423,-776.331 404.423,-770.331 404.423,-764.331 404.423,-764.331 404.423,-673.931 404.423,-673.931 404.423,-667.931 410.423,-661.931 416.423,-661.931"/>
<text text-anchor="middle" x="481.633" y="-758.331" font-family="Times,serif" font-size="14.00">GuardianshipsController</text>
<polyline fill="none" stroke="black" points="404.423,-751.531 558.844,-751.531 "/>
<polyline fill="none" stroke="black" points="404.423,-727.531 558.844,-727.531 "/>
<polyline fill="none" stroke="black" points="404.423,-703.531 558.844,-703.531 "/>
<text text-anchor="start" x="412.423" y="-685.531" font-family="Times,serif" font-size="14.00">_layout</text>
<text text-anchor="start" x="412.423" y="-668.731" font-family="Times,serif" font-size="14.00">guardianship_params</text>
</g>
<!-- ApplicationController&#45;&gt;GuardianshipsController -->
<g id="edge4" class="edge"><title>ApplicationController&#45;&gt;GuardianshipsController</title>
<path fill="none" stroke="black" d="M472.354,-599.862C473.975,-620.699 475.678,-642.588 477.176,-661.844"/>
</g>
<!-- Instructor::SectionsController -->
<g id="node9" class="node"><title>Instructor::SectionsController</title>
<path fill="none" stroke="black" d="M199.668,-657.001C199.668,-657.001 358.861,-657.001 358.861,-657.001 364.861,-657.001 370.861,-663.001 370.861,-669.001 370.861,-669.001 370.861,-760.201 370.861,-760.201 370.861,-766.201 364.861,-772.201 358.861,-772.201 358.861,-772.201 199.668,-772.201 199.668,-772.201 193.668,-772.201 187.668,-766.201 187.668,-760.201 187.668,-760.201 187.668,-669.001 187.668,-669.001 187.668,-663.001 193.668,-657.001 199.668,-657.001"/>
<text text-anchor="middle" x="279.264" y="-754.201" font-family="Times,serif" font-size="14.00">Instructor::SectionsController</text>
<polyline fill="none" stroke="black" points="187.668,-747.401 370.861,-747.401 "/>
<text text-anchor="start" x="195.668" y="-729.401" font-family="Times,serif" font-size="14.00">index</text>
<text text-anchor="start" x="195.668" y="-712.601" font-family="Times,serif" font-size="14.00">show</text>
<polyline fill="none" stroke="black" points="187.668,-705.801 370.861,-705.801 "/>
<polyline fill="none" stroke="black" points="187.668,-681.801 370.861,-681.801 "/>
<text text-anchor="start" x="195.668" y="-663.801" font-family="Times,serif" font-size="14.00">_layout</text>
</g>
<!-- ApplicationController&#45;&gt;Instructor::SectionsController -->
<g id="edge5" class="edge"><title>ApplicationController&#45;&gt;Instructor::SectionsController</title>
<path fill="none" stroke="black" d="M387.277,-600.004C369.248,-619.132 350.467,-639.058 333.72,-656.827"/>
</g>
<!-- ParentsController -->
<g id="node10" class="node"><title>ParentsController</title>
<path fill="none" stroke="black" d="M51.0822,-33.1216C51.0822,-33.1216 141.841,-33.1216 141.841,-33.1216 147.841,-33.1216 153.841,-39.1216 153.841,-45.1216 153.841,-45.1216 153.841,-203.522 153.841,-203.522 153.841,-209.522 147.841,-215.522 141.841,-215.522 141.841,-215.522 51.0822,-215.522 51.0822,-215.522 45.0822,-215.522 39.0822,-209.522 39.0822,-203.522 39.0822,-203.522 39.0822,-45.1216 39.0822,-45.1216 39.0822,-39.1216 45.0822,-33.1216 51.0822,-33.1216"/>
<text text-anchor="middle" x="96.4616" y="-197.522" font-family="Times,serif" font-size="14.00">ParentsController</text>
<polyline fill="none" stroke="black" points="39.0822,-190.722 153.841,-190.722 "/>
<text text-anchor="start" x="47.0822" y="-172.722" font-family="Times,serif" font-size="14.00">create</text>
<text text-anchor="start" x="47.0822" y="-155.922" font-family="Times,serif" font-size="14.00">edit</text>
<text text-anchor="start" x="47.0822" y="-139.122" font-family="Times,serif" font-size="14.00">new</text>
<text text-anchor="start" x="47.0822" y="-122.322" font-family="Times,serif" font-size="14.00">show</text>
<text text-anchor="start" x="47.0822" y="-105.522" font-family="Times,serif" font-size="14.00">update</text>
<polyline fill="none" stroke="black" points="39.0822,-98.7216 153.841,-98.7216 "/>
<polyline fill="none" stroke="black" points="39.0822,-74.7216 153.841,-74.7216 "/>
<text text-anchor="start" x="47.0822" y="-56.7216" font-family="Times,serif" font-size="14.00">_layout</text>
<text text-anchor="start" x="47.0822" y="-39.9216" font-family="Times,serif" font-size="14.00">parent_params</text>
</g>
<!-- ApplicationController&#45;&gt;ParentsController -->
<g id="edge6" class="edge"><title>ApplicationController&#45;&gt;ParentsController</title>
<path fill="none" stroke="black" d="M428.964,-433.329C420.166,-411.815 411.275,-388.521 404.154,-366.545 381.388,-296.278 422.335,-251.818 365.225,-204.976 360.711,-201.274 318.448,-204.026 312.72,-202.9 257.256,-192.002 197.035,-169.144 154.262,-150.878"/>
</g>
<!-- SchedulesController -->
<g id="node11" class="node"><title>SchedulesController</title>
<path fill="none" stroke="black" d="M629.166,-336.737C629.166,-336.737 735.476,-336.737 735.476,-336.737 741.476,-336.737 747.476,-342.737 747.476,-348.737 747.476,-348.737 747.476,-439.937 747.476,-439.937 747.476,-445.937 741.476,-451.937 735.476,-451.937 735.476,-451.937 629.166,-451.937 629.166,-451.937 623.166,-451.937 617.166,-445.937 617.166,-439.937 617.166,-439.937 617.166,-348.737 617.166,-348.737 617.166,-342.737 623.166,-336.737 629.166,-336.737"/>
<text text-anchor="middle" x="682.321" y="-433.937" font-family="Times,serif" font-size="14.00">SchedulesController</text>
<polyline fill="none" stroke="black" points="617.166,-427.137 747.476,-427.137 "/>
<text text-anchor="start" x="625.166" y="-409.137" font-family="Times,serif" font-size="14.00">next</text>
<text text-anchor="start" x="625.166" y="-392.337" font-family="Times,serif" font-size="14.00">show</text>
<polyline fill="none" stroke="black" points="617.166,-385.537 747.476,-385.537 "/>
<polyline fill="none" stroke="black" points="617.166,-361.537 747.476,-361.537 "/>
<text text-anchor="start" x="625.166" y="-343.537" font-family="Times,serif" font-size="14.00">_layout</text>
</g>
<!-- ApplicationController&#45;&gt;SchedulesController -->
<g id="edge7" class="edge"><title>ApplicationController&#45;&gt;SchedulesController</title>
<path fill="none" stroke="black" d="M570.929,-457.266C586.654,-448.382 602.469,-439.448 617.044,-431.214"/>
</g>
<!-- SchoolYearsController -->
<g id="node12" class="node"><title>SchoolYearsController</title>
<path fill="none" stroke="black" d="M206.364,-432.471C206.364,-432.471 326.053,-432.471 326.053,-432.471 332.053,-432.471 338.053,-438.471 338.053,-444.471 338.053,-444.471 338.053,-586.071 338.053,-586.071 338.053,-592.071 332.053,-598.071 326.053,-598.071 326.053,-598.071 206.364,-598.071 206.364,-598.071 200.364,-598.071 194.364,-592.071 194.364,-586.071 194.364,-586.071 194.364,-444.471 194.364,-444.471 194.364,-438.471 200.364,-432.471 206.364,-432.471"/>
<text text-anchor="middle" x="266.208" y="-580.071" font-family="Times,serif" font-size="14.00">SchoolYearsController</text>
<polyline fill="none" stroke="black" points="194.364,-573.271 338.053,-573.271 "/>
<text text-anchor="start" x="202.364" y="-555.271" font-family="Times,serif" font-size="14.00">create</text>
<text text-anchor="start" x="202.364" y="-538.471" font-family="Times,serif" font-size="14.00">index</text>
<text text-anchor="start" x="202.364" y="-521.671" font-family="Times,serif" font-size="14.00">new</text>
<text text-anchor="start" x="202.364" y="-504.871" font-family="Times,serif" font-size="14.00">show</text>
<polyline fill="none" stroke="black" points="194.364,-498.071 338.053,-498.071 "/>
<polyline fill="none" stroke="black" points="194.364,-474.071 338.053,-474.071 "/>
<text text-anchor="start" x="202.364" y="-456.071" font-family="Times,serif" font-size="14.00">_layout</text>
<text text-anchor="start" x="202.364" y="-439.271" font-family="Times,serif" font-size="14.00">school_year_params</text>
</g>
<!-- ApplicationController&#45;&gt;SchoolYearsController -->
<g id="edge8" class="edge"><title>ApplicationController&#45;&gt;SchoolYearsController</title>
<path fill="none" stroke="black" d="M360.78,-515.907C353.17,-515.856 345.601,-515.805 338.25,-515.756"/>
</g>
<!-- SchoolsController -->
<g id="node13" class="node"><title>SchoolsController</title>
<path fill="none" stroke="black" d="M607.848,-66.64C607.848,-66.64 701.731,-66.64 701.731,-66.64 707.731,-66.64 713.731,-72.64 713.731,-78.64 713.731,-78.64 713.731,-169.84 713.731,-169.84 713.731,-175.84 707.731,-181.84 701.731,-181.84 701.731,-181.84 607.848,-181.84 607.848,-181.84 601.848,-181.84 595.848,-175.84 595.848,-169.84 595.848,-169.84 595.848,-78.64 595.848,-78.64 595.848,-72.64 601.848,-66.64 607.848,-66.64"/>
<text text-anchor="middle" x="654.789" y="-163.84" font-family="Times,serif" font-size="14.00">SchoolsController</text>
<polyline fill="none" stroke="black" points="595.848,-157.04 713.731,-157.04 "/>
<text text-anchor="start" x="603.848" y="-139.04" font-family="Times,serif" font-size="14.00">index</text>
<polyline fill="none" stroke="black" points="595.848,-132.24 713.731,-132.24 "/>
<polyline fill="none" stroke="black" points="595.848,-108.24 713.731,-108.24 "/>
<text text-anchor="start" x="603.848" y="-90.24" font-family="Times,serif" font-size="14.00">_layout</text>
<text text-anchor="start" x="603.848" y="-73.44" font-family="Times,serif" font-size="14.00">school_params</text>
</g>
<!-- ApplicationController&#45;&gt;SchoolsController -->
<g id="edge9" class="edge"><title>ApplicationController&#45;&gt;SchoolsController</title>
<path fill="none" stroke="black" d="M516.222,-433.055C528.462,-411.648 541.153,-388.473 552.049,-366.545 582.749,-304.757 612.978,-231.558 632.61,-181.906"/>
</g>
<!-- SectionsController -->
<g id="node14" class="node"><title>SectionsController</title>
<path fill="none" stroke="black" d="M201.755,-208.176C201.755,-208.176 350.025,-208.176 350.025,-208.176 356.025,-208.176 362.025,-214.176 362.025,-220.176 362.025,-220.176 362.025,-412.176 362.025,-412.176 362.025,-418.176 356.025,-424.176 350.025,-424.176 350.025,-424.176 201.755,-424.176 201.755,-424.176 195.755,-424.176 189.755,-418.176 189.755,-412.176 189.755,-412.176 189.755,-220.176 189.755,-220.176 189.755,-214.176 195.755,-208.176 201.755,-208.176"/>
<text text-anchor="middle" x="275.89" y="-406.176" font-family="Times,serif" font-size="14.00">SectionsController</text>
<polyline fill="none" stroke="black" points="189.755,-399.376 362.025,-399.376 "/>
<text text-anchor="start" x="197.755" y="-381.376" font-family="Times,serif" font-size="14.00">create</text>
<text text-anchor="start" x="197.755" y="-364.576" font-family="Times,serif" font-size="14.00">edit</text>
<text text-anchor="start" x="197.755" y="-347.776" font-family="Times,serif" font-size="14.00">new</text>
<text text-anchor="start" x="197.755" y="-330.976" font-family="Times,serif" font-size="14.00">show</text>
<text text-anchor="start" x="197.755" y="-314.176" font-family="Times,serif" font-size="14.00">update</text>
<polyline fill="none" stroke="black" points="189.755,-307.376 362.025,-307.376 "/>
<polyline fill="none" stroke="black" points="189.755,-283.376 362.025,-283.376 "/>
<text text-anchor="start" x="197.755" y="-265.376" font-family="Times,serif" font-size="14.00">_layout</text>
<text text-anchor="start" x="197.755" y="-248.576" font-family="Times,serif" font-size="14.00">create_section_registrations</text>
<text text-anchor="start" x="197.755" y="-231.776" font-family="Times,serif" font-size="14.00">find_course</text>
<text text-anchor="start" x="197.755" y="-214.976" font-family="Times,serif" font-size="14.00">section_params</text>
</g>
<!-- ApplicationController&#45;&gt;SectionsController -->
<g id="edge10" class="edge"><title>ApplicationController&#45;&gt;SectionsController</title>
<path fill="none" stroke="black" d="M386.956,-433.351C378.8,-424.747 370.481,-415.97 362.249,-407.286"/>
</g>
<!-- SemestersController -->
<g id="node15" class="node"><title>SemestersController</title>
<path fill="none" stroke="black" d="M13.3294,-558.627C13.3294,-558.627 119.64,-558.627 119.64,-558.627 125.64,-558.627 131.64,-564.627 131.64,-570.627 131.64,-570.627 131.64,-712.227 131.64,-712.227 131.64,-718.227 125.64,-724.227 119.64,-724.227 119.64,-724.227 13.3294,-724.227 13.3294,-724.227 7.32943,-724.227 1.32943,-718.227 1.32943,-712.227 1.32943,-712.227 1.32943,-570.627 1.32943,-570.627 1.32943,-564.627 7.32943,-558.627 13.3294,-558.627"/>
<text text-anchor="middle" x="66.4847" y="-706.227" font-family="Times,serif" font-size="14.00">SemestersController</text>
<polyline fill="none" stroke="black" points="1.32943,-699.427 131.64,-699.427 "/>
<text text-anchor="start" x="9.32943" y="-681.427" font-family="Times,serif" font-size="14.00">create</text>
<text text-anchor="start" x="9.32943" y="-664.627" font-family="Times,serif" font-size="14.00">new</text>
<text text-anchor="start" x="9.32943" y="-647.827" font-family="Times,serif" font-size="14.00">show</text>
<polyline fill="none" stroke="black" points="1.32943,-641.027 131.64,-641.027 "/>
<polyline fill="none" stroke="black" points="1.32943,-617.027 131.64,-617.027 "/>
<text text-anchor="start" x="9.32943" y="-599.027" font-family="Times,serif" font-size="14.00">_layout</text>
<text text-anchor="start" x="9.32943" y="-582.227" font-family="Times,serif" font-size="14.00">find_school_year</text>
<text text-anchor="start" x="9.32943" y="-565.427" font-family="Times,serif" font-size="14.00">semester_params</text>
</g>
<!-- ApplicationController&#45;&gt;SemestersController -->
<g id="edge11" class="edge"><title>ApplicationController&#45;&gt;SemestersController</title>
<path fill="none" stroke="black" d="M360.919,-592.5C354.414,-595.75 347.835,-598.712 341.253,-601.271 272.957,-627.832 188.896,-637.008 131.868,-640.081"/>
</g>
<!-- StaticPagesController -->
<g id="node16" class="node"><title>StaticPagesController</title>
<path fill="none" stroke="black" d="M626.122,-586.212C626.122,-586.212 740.212,-586.212 740.212,-586.212 746.212,-586.212 752.212,-592.212 752.212,-598.212 752.212,-598.212 752.212,-671.812 752.212,-671.812 752.212,-677.812 746.212,-683.812 740.212,-683.812 740.212,-683.812 626.122,-683.812 626.122,-683.812 620.122,-683.812 614.122,-677.812 614.122,-671.812 614.122,-671.812 614.122,-598.212 614.122,-598.212 614.122,-592.212 620.122,-586.212 626.122,-586.212"/>
<text text-anchor="middle" x="683.167" y="-665.812" font-family="Times,serif" font-size="14.00">StaticPagesController</text>
<polyline fill="none" stroke="black" points="614.122,-659.012 752.212,-659.012 "/>
<polyline fill="none" stroke="black" points="614.122,-635.012 752.212,-635.012 "/>
<polyline fill="none" stroke="black" points="614.122,-611.012 752.212,-611.012 "/>
<text text-anchor="start" x="622.122" y="-593.012" font-family="Times,serif" font-size="14.00">_layout</text>
</g>
<!-- ApplicationController&#45;&gt;StaticPagesController -->
<g id="edge12" class="edge"><title>ApplicationController&#45;&gt;StaticPagesController</title>
<path fill="none" stroke="black" d="M570.703,-573.732C585.354,-581.715 600.098,-589.749 613.867,-597.251"/>
</g>
<!-- StudentsController -->
<g id="node17" class="node"><title>StudentsController</title>
<path fill="none" stroke="black" d="M590.969,-774.644C590.969,-774.644 720.604,-774.644 720.604,-774.644 726.604,-774.644 732.604,-780.644 732.604,-786.644 732.604,-786.644 732.604,-1029.04 732.604,-1029.04 732.604,-1035.04 726.604,-1041.04 720.604,-1041.04 720.604,-1041.04 590.969,-1041.04 590.969,-1041.04 584.969,-1041.04 578.969,-1035.04 578.969,-1029.04 578.969,-1029.04 578.969,-786.644 578.969,-786.644 578.969,-780.644 584.969,-774.644 590.969,-774.644"/>
<text text-anchor="middle" x="655.787" y="-1023.04" font-family="Times,serif" font-size="14.00">StudentsController</text>
<polyline fill="none" stroke="black" points="578.969,-1016.24 732.604,-1016.24 "/>
<text text-anchor="start" x="586.969" y="-998.244" font-family="Times,serif" font-size="14.00">create</text>
<text text-anchor="start" x="586.969" y="-981.444" font-family="Times,serif" font-size="14.00">current_student</text>
<text text-anchor="start" x="586.969" y="-964.644" font-family="Times,serif" font-size="14.00">edit</text>
<text text-anchor="start" x="586.969" y="-947.844" font-family="Times,serif" font-size="14.00">index</text>
<text text-anchor="start" x="586.969" y="-931.044" font-family="Times,serif" font-size="14.00">new</text>
<text text-anchor="start" x="586.969" y="-914.244" font-family="Times,serif" font-size="14.00">show</text>
<text text-anchor="start" x="586.969" y="-897.444" font-family="Times,serif" font-size="14.00">update</text>
<polyline fill="none" stroke="black" points="578.969,-890.644 732.604,-890.644 "/>
<polyline fill="none" stroke="black" points="578.969,-866.644 732.604,-866.644 "/>
<text text-anchor="start" x="586.969" y="-848.644" font-family="Times,serif" font-size="14.00">_layout</text>
<text text-anchor="start" x="586.969" y="-831.844" font-family="Times,serif" font-size="14.00">find_student_or_redirect</text>
<text text-anchor="start" x="586.969" y="-815.044" font-family="Times,serif" font-size="14.00">sort_column</text>
<text text-anchor="start" x="586.969" y="-798.244" font-family="Times,serif" font-size="14.00">sort_direction</text>
<text text-anchor="start" x="586.969" y="-781.444" font-family="Times,serif" font-size="14.00">student_params</text>
</g>
<!-- ApplicationController&#45;&gt;StudentsController -->
<g id="edge13" class="edge"><title>ApplicationController&#45;&gt;StudentsController</title>
<path fill="none" stroke="black" d="M526.973,-599.902C539.439,-618.743 551.846,-639.018 562.044,-658.731 580.887,-695.157 597.932,-736.266 612.161,-774.434"/>
</g>
<!-- TeachersController -->
<g id="node18" class="node"><title>TeachersController</title>
<path fill="none" stroke="black" d="M311.549,-815.952C311.549,-815.952 441.15,-815.952 441.15,-815.952 447.15,-815.952 453.15,-821.952 453.15,-827.952 453.15,-827.952 453.15,-1036.75 453.15,-1036.75 453.15,-1042.75 447.15,-1048.75 441.15,-1048.75 441.15,-1048.75 311.549,-1048.75 311.549,-1048.75 305.549,-1048.75 299.549,-1042.75 299.549,-1036.75 299.549,-1036.75 299.549,-827.952 299.549,-827.952 299.549,-821.952 305.549,-815.952 311.549,-815.952"/>
<text text-anchor="middle" x="376.35" y="-1030.75" font-family="Times,serif" font-size="14.00">TeachersController</text>
<polyline fill="none" stroke="black" points="299.549,-1023.95 453.15,-1023.95 "/>
<text text-anchor="start" x="307.549" y="-1005.95" font-family="Times,serif" font-size="14.00">create</text>
<text text-anchor="start" x="307.549" y="-989.152" font-family="Times,serif" font-size="14.00">edit</text>
<text text-anchor="start" x="307.549" y="-972.352" font-family="Times,serif" font-size="14.00">index</text>
<text text-anchor="start" x="307.549" y="-955.552" font-family="Times,serif" font-size="14.00">new</text>
<text text-anchor="start" x="307.549" y="-938.752" font-family="Times,serif" font-size="14.00">show</text>
<text text-anchor="start" x="307.549" y="-921.952" font-family="Times,serif" font-size="14.00">update</text>
<polyline fill="none" stroke="black" points="299.549,-915.152 453.15,-915.152 "/>
<polyline fill="none" stroke="black" points="299.549,-891.152 453.15,-891.152 "/>
<text text-anchor="start" x="307.549" y="-873.152" font-family="Times,serif" font-size="14.00">_layout</text>
<text text-anchor="start" x="307.549" y="-856.352" font-family="Times,serif" font-size="14.00">find_teacher_or_redirect</text>
<text text-anchor="start" x="307.549" y="-839.552" font-family="Times,serif" font-size="14.00">password_generator</text>
<text text-anchor="start" x="307.549" y="-822.752" font-family="Times,serif" font-size="14.00">teacher_params</text>
</g>
<!-- ApplicationController&#45;&gt;TeachersController -->
<g id="edge14" class="edge"><title>ApplicationController&#45;&gt;TeachersController</title>
<path fill="none" stroke="black" d="M422.256,-600.19C414.027,-619.014 406.391,-639.209 401.223,-658.731 387.856,-709.223 381.373,-766.581 378.331,-815.694"/>
</g>
<!-- TimeBlocksController -->
<g id="node19" class="node"><title>TimeBlocksController</title>
<path fill="none" stroke="black" d="M419.354,-264.945C419.354,-264.945 536.849,-264.945 536.849,-264.945 542.849,-264.945 548.849,-270.945 548.849,-276.945 548.849,-276.945 548.849,-351.345 548.849,-351.345 548.849,-357.345 542.849,-363.345 536.849,-363.345 536.849,-363.345 419.354,-363.345 419.354,-363.345 413.354,-363.345 407.354,-357.345 407.354,-351.345 407.354,-351.345 407.354,-276.945 407.354,-276.945 407.354,-270.945 413.354,-264.945 419.354,-264.945"/>
<text text-anchor="middle" x="478.102" y="-345.345" font-family="Times,serif" font-size="14.00">TimeBlocksController</text>
<polyline fill="none" stroke="black" points="407.354,-338.545 548.849,-338.545 "/>
<text text-anchor="start" x="415.354" y="-320.545" font-family="Times,serif" font-size="14.00">time_blocks_params</text>
<polyline fill="none" stroke="black" points="407.354,-313.745 548.849,-313.745 "/>
<polyline fill="none" stroke="black" points="407.354,-289.745 548.849,-289.745 "/>
<text text-anchor="start" x="415.354" y="-271.745" font-family="Times,serif" font-size="14.00">_layout</text>
</g>
<!-- ApplicationController&#45;&gt;TimeBlocksController -->
<g id="edge15" class="edge"><title>ApplicationController&#45;&gt;TimeBlocksController</title>
<path fill="none" stroke="black" d="M470.902,-433.385C472.338,-409.608 473.856,-384.462 475.126,-363.423"/>
</g>
<!-- CustomDevise::PasswordsController -->
<g id="node5" class="node"><title>CustomDevise::PasswordsController</title>
<path fill="none" stroke="black" d="M828,-102.5C828,-102.5 1026.88,-102.5 1026.88,-102.5 1032.88,-102.5 1038.88,-108.5 1038.88,-114.5 1038.88,-114.5 1038.88,-204.9 1038.88,-204.9 1038.88,-210.9 1032.88,-216.9 1026.88,-216.9 1026.88,-216.9 828,-216.9 828,-216.9 822,-216.9 816,-210.9 816,-204.9 816,-204.9 816,-114.5 816,-114.5 816,-108.5 822,-102.5 828,-102.5"/>
<text text-anchor="middle" x="927.441" y="-198.9" font-family="Times,serif" font-size="14.00">CustomDevise::PasswordsController</text>
<polyline fill="none" stroke="black" points="816,-192.1 1038.88,-192.1 "/>
<polyline fill="none" stroke="black" points="816,-168.1 1038.88,-168.1 "/>
<polyline fill="none" stroke="black" points="816,-144.1 1038.88,-144.1 "/>
<text text-anchor="start" x="824" y="-126.1" font-family="Times,serif" font-size="14.00">_layout</text>
<text text-anchor="start" x="824" y="-109.3" font-family="Times,serif" font-size="14.00">resource_params</text>
</g>
<!-- CustomDevise::RegistrationsController -->
<g id="node6" class="node"><title>CustomDevise::RegistrationsController</title>
<path fill="none" stroke="black" d="M828,-306.5C828,-306.5 1041.65,-306.5 1041.65,-306.5 1047.65,-306.5 1053.65,-312.5 1053.65,-318.5 1053.65,-318.5 1053.65,-408.9 1053.65,-408.9 1053.65,-414.9 1047.65,-420.9 1041.65,-420.9 1041.65,-420.9 828,-420.9 828,-420.9 822,-420.9 816,-414.9 816,-408.9 816,-408.9 816,-318.5 816,-318.5 816,-312.5 822,-306.5 828,-306.5"/>
<text text-anchor="middle" x="934.824" y="-402.9" font-family="Times,serif" font-size="14.00">CustomDevise::RegistrationsController</text>
<polyline fill="none" stroke="black" points="816,-396.1 1053.65,-396.1 "/>
<polyline fill="none" stroke="black" points="816,-372.1 1053.65,-372.1 "/>
<polyline fill="none" stroke="black" points="816,-348.1 1053.65,-348.1 "/>
<text text-anchor="start" x="824" y="-330.1" font-family="Times,serif" font-size="14.00">_layout</text>
<text text-anchor="start" x="824" y="-313.3" font-family="Times,serif" font-size="14.00">resource_params</text>
</g>
</g>
</svg>
