<?xml version="1.0" encoding="UTF-8" standalone="no"?>
<!DOCTYPE svg PUBLIC "-//W3C//DTD SVG 1.1//EN"
 "http://www.w3.org/Graphics/SVG/1.1/DTD/svg11.dtd">
<!-- Generated by graphviz version 2.30.1 (20130501.1332)
 -->
<!-- Title: models_diagram Pages: 1 -->
<svg width="889pt" height="454pt"
 viewBox="0.00 0.00 889.00 454.00" xmlns="http://www.w3.org/2000/svg" xmlns:xlink="http://www.w3.org/1999/xlink">
<g id="graph0" class="graph" transform="scale(1 1) rotate(0) translate(4 450)">
<title>models_diagram</title>
<polygon fill="white" stroke="white" points="-4,5 -4,-450 886,-450 886,5 -4,5"/>
<!-- _diagram_info -->
<g id="node1" class="node"><title>_diagram_info</title>
<text text-anchor="start" x="135.55" y="-429" font-family="Times,serif" font-size="13.00">Models diagram</text>
<text text-anchor="start" x="135.55" y="-413.4" font-family="Times,serif" font-size="13.00">Date: May 08 2013 &#45; 16:23</text>
<text text-anchor="start" x="135.55" y="-397.8" font-family="Times,serif" font-size="13.00">Migration version: 20130501192929</text>
<text text-anchor="start" x="135.55" y="-382.2" font-family="Times,serif" font-size="13.00">Generated by RailRoady 1.1.0</text>
<text text-anchor="start" x="135.55" y="-366.6" font-family="Times,serif" font-size="13.00">http://railroady.prestonlee.com</text>
</g>
<!-- Address -->
<g id="node2" class="node"><title>Address</title>
<ellipse fill="none" stroke="black" cx="42" cy="-90" rx="42.5278" ry="18"/>
<text text-anchor="middle" x="42" y="-84.4" font-family="Times,serif" font-size="14.00">Address</text>
</g>
<!-- Admin -->
<g id="node3" class="node"><title>Admin</title>
<ellipse fill="none" stroke="black" cx="520" cy="-403" rx="37.2949" ry="18"/>
<text text-anchor="middle" x="520" y="-397.4" font-family="Times,serif" font-size="14.00">Admin</text>
</g>
<!-- Course -->
<g id="node4" class="node"><title>Course</title>
<ellipse fill="none" stroke="black" cx="294" cy="-306" rx="38.0929" ry="18"/>
<text text-anchor="middle" x="294" y="-300.4" font-family="Times,serif" font-size="14.00">Course</text>
</g>
<!-- Section -->
<g id="node13" class="node"><title>Section</title>
<ellipse fill="none" stroke="black" cx="294" cy="-234" rx="40.0039" ry="18"/>
<text text-anchor="middle" x="294" y="-228.4" font-family="Times,serif" font-size="14.00">Section</text>
</g>
<!-- Course&#45;&gt;Section -->
<g id="edge1" class="edge"><title>Course&#45;&gt;Section</title>
<path fill="none" stroke="#b31c05" d="M294,-279.64C294,-274.063 294,-268.132 294,-262.476"/>
<ellipse fill="none" stroke="#b31c05" cx="294" cy="-283.697" rx="4" ry="4"/>
<polygon fill="#b31c05" stroke="#b31c05" points="294,-262.104 298.5,-252.104 294,-257.104 294,-252.104 294,-252.104 294,-252.104 294,-257.104 289.5,-252.104 294,-262.104 294,-262.104"/>
</g>
<!-- Ethnicity -->
<g id="node5" class="node"><title>Ethnicity</title>
<polygon fill="none" stroke="black" points="643.492,-421 576.508,-421 576.508,-385 643.492,-385 643.492,-421"/>
<text text-anchor="middle" x="610" y="-397.4" font-family="Times,serif" font-size="14.00">Ethnicity</text>
</g>
<!-- Grade -->
<g id="node6" class="node"><title>Grade</title>
<ellipse fill="none" stroke="black" cx="360" cy="-18" rx="34.4401" ry="18"/>
<text text-anchor="middle" x="360" y="-12.4" font-family="Times,serif" font-size="14.00">Grade</text>
</g>
<!-- GradingPeriod -->
<g id="node7" class="node"><title>GradingPeriod</title>
<ellipse fill="none" stroke="black" cx="420" cy="-234" rx="67.3413" ry="18"/>
<text text-anchor="middle" x="420" y="-228.4" font-family="Times,serif" font-size="14.00">GradingPeriod</text>
</g>
<!-- Guardianship -->
<g id="node8" class="node"><title>Guardianship</title>
<ellipse fill="none" stroke="black" cx="166" cy="-90" rx="63.0978" ry="18"/>
<text text-anchor="middle" x="166" y="-84.4" font-family="Times,serif" font-size="14.00">Guardianship</text>
</g>
<!-- Parent -->
<g id="node9" class="node"><title>Parent</title>
<ellipse fill="none" stroke="black" cx="106" cy="-234" rx="35.5596" ry="18"/>
<text text-anchor="middle" x="106" y="-228.4" font-family="Times,serif" font-size="14.00">Parent</text>
</g>
<!-- Parent&#45;&gt;Guardianship -->
<g id="edge2" class="edge"><title>Parent&#45;&gt;Guardianship</title>
<path fill="none" stroke="#9c81c3" d="M116.31,-208.6C127.022,-183.247 143.734,-143.695 154.775,-117.567"/>
<ellipse fill="none" stroke="#9c81c3" cx="114.675" cy="-212.469" rx="4.00002" ry="4.00002"/>
<polygon fill="#9c81c3" stroke="#9c81c3" points="154.812,-117.479 162.849,-110.019 156.758,-112.874 158.704,-108.268 158.704,-108.268 158.704,-108.268 156.758,-112.874 154.559,-106.516 154.812,-117.479 154.812,-117.479"/>
</g>
<!-- Student -->
<g id="node15" class="node"><title>Student</title>
<ellipse fill="none" stroke="black" cx="196" cy="-162" rx="40.3171" ry="18"/>
<text text-anchor="middle" x="196" y="-156.4" font-family="Times,serif" font-size="14.00">Student</text>
</g>
<!-- Parent&#45;&gt;Student -->
<g id="edge3" class="edge"><title>Parent&#45;&gt;Student</title>
<path fill="none" stroke="#b076d2" d="M132.598,-212.313C144.001,-203.444 157.309,-193.093 168.78,-184.171"/>
<polygon fill="#b076d2" stroke="#b076d2" points="132.542,-212.357 121.885,-214.944 128.595,-215.426 124.648,-218.496 124.648,-218.496 124.648,-218.496 128.595,-215.426 127.411,-222.048 132.542,-212.357 132.542,-212.357"/>
<polygon fill="#b076d2" stroke="#b076d2" points="168.861,-184.108 179.518,-181.521 172.808,-181.038 176.755,-177.968 176.755,-177.968 176.755,-177.968 172.808,-181.038 173.992,-174.416 168.861,-184.108 168.861,-184.108"/>
</g>
<!-- Parent&#45;&gt;Address -->
<g id="edge4" class="edge"><title>Parent&#45;&gt;Address</title>
<path fill="none" stroke="#6d2d3d" d="M94.9834,-208.557C83.4875,-183.05 65.5299,-143.207 53.7632,-117.1"/>
<ellipse fill="none" stroke="#6d2d3d" cx="96.7634" cy="-212.506" rx="4.00002" ry="4.00002"/>
<polygon fill="#6d2d3d" stroke="#6d2d3d" points="53.6921,-116.942 53.6857,-105.976 51.6376,-112.383 49.5831,-107.825 49.5831,-107.825 49.5831,-107.825 51.6376,-112.383 45.4805,-109.674 53.6921,-116.942 53.6921,-116.942"/>
</g>
<!-- Schedule -->
<g id="node10" class="node"><title>Schedule</title>
<ellipse fill="none" stroke="black" cx="708" cy="-403" rx="46.1519" ry="18"/>
<text text-anchor="middle" x="708" y="-397.4" font-family="Times,serif" font-size="14.00">Schedule</text>
</g>
<!-- School -->
<g id="node11" class="node"><title>School</title>
<ellipse fill="none" stroke="black" cx="198" cy="-234" rx="37.2949" ry="18"/>
<text text-anchor="middle" x="198" y="-228.4" font-family="Times,serif" font-size="14.00">School</text>
</g>
<!-- School&#45;&gt;Student -->
<g id="edge5" class="edge"><title>School&#45;&gt;Student</title>
<path fill="none" stroke="#55b41d" d="M197.275,-207.64C197.116,-202.063 196.947,-196.132 196.785,-190.476"/>
<ellipse fill="none" stroke="#55b41d" cx="197.391" cy="-211.698" rx="4" ry="4"/>
<polygon fill="#55b41d" stroke="#55b41d" points="196.774,-190.1 200.987,-179.976 196.632,-185.102 196.489,-180.104 196.489,-180.104 196.489,-180.104 196.632,-185.102 191.991,-180.233 196.774,-190.1 196.774,-190.1"/>
</g>
<!-- SchoolYear -->
<g id="node12" class="node"><title>SchoolYear</title>
<ellipse fill="none" stroke="black" cx="408" cy="-403" rx="55.4927" ry="18"/>
<text text-anchor="middle" x="408" y="-397.4" font-family="Times,serif" font-size="14.00">SchoolYear</text>
</g>
<!-- Semester -->
<g id="node14" class="node"><title>Semester</title>
<ellipse fill="none" stroke="black" cx="408" cy="-306" rx="46.1519" ry="18"/>
<text text-anchor="middle" x="408" y="-300.4" font-family="Times,serif" font-size="14.00">Semester</text>
</g>
<!-- SchoolYear&#45;&gt;Semester -->
<g id="edge6" class="edge"><title>SchoolYear&#45;&gt;Semester</title>
<path fill="none" stroke="#6ce016" d="M408,-376.414C408,-363.518 408,-347.862 408,-334.685"/>
<ellipse fill="none" stroke="#6ce016" cx="408" cy="-380.576" rx="4" ry="4"/>
<polygon fill="#6ce016" stroke="#6ce016" points="408,-334.314 412.5,-324.314 408,-329.314 408,-324.314 408,-324.314 408,-324.314 408,-329.314 403.5,-324.314 408,-334.314 408,-334.314"/>
</g>
<!-- StudentSectionEnrollment -->
<g id="node16" class="node"><title>StudentSectionEnrollment</title>
<ellipse fill="none" stroke="black" cx="360" cy="-90" rx="112.437" ry="18"/>
<text text-anchor="middle" x="360" y="-84.4" font-family="Times,serif" font-size="14.00">StudentSectionEnrollment</text>
</g>
<!-- Section&#45;&gt;StudentSectionEnrollment -->
<g id="edge7" class="edge"><title>Section&#45;&gt;StudentSectionEnrollment</title>
<path fill="none" stroke="#7b7ee2" d="M305.341,-208.6C317.124,-183.247 335.508,-143.695 347.652,-117.567"/>
<ellipse fill="none" stroke="#7b7ee2" cx="303.516" cy="-212.526" rx="4.00002" ry="4.00002"/>
<polygon fill="#7b7ee2" stroke="#7b7ee2" points="347.759,-117.336 356.055,-110.165 349.867,-112.802 351.974,-108.268 351.974,-108.268 351.974,-108.268 349.867,-112.802 347.893,-106.371 347.759,-117.336 347.759,-117.336"/>
</g>
<!-- Section&#45;&gt;Student -->
<g id="edge8" class="edge"><title>Section&#45;&gt;Student</title>
<path fill="none" stroke="#d969a9" d="M264.931,-212.237C252.249,-203.178 237.42,-192.586 224.772,-183.551"/>
<polygon fill="#d969a9" stroke="#d969a9" points="265.079,-212.342 270.601,-221.817 269.148,-215.249 273.217,-218.155 273.217,-218.155 273.217,-218.155 269.148,-215.249 275.832,-214.493 265.079,-212.342 265.079,-212.342"/>
<polygon fill="#d969a9" stroke="#d969a9" points="224.555,-183.396 219.033,-173.922 220.486,-180.49 216.417,-177.584 216.417,-177.584 216.417,-177.584 220.486,-180.49 213.802,-181.246 224.555,-183.396 224.555,-183.396"/>
</g>
<!-- Semester&#45;&gt;Section -->
<g id="edge9" class="edge"><title>Semester&#45;&gt;Section</title>
<path fill="none" stroke="#efa3ae" d="M377.346,-286.177C361.264,-276.303 341.596,-264.226 325.405,-254.284"/>
<ellipse fill="none" stroke="#efa3ae" cx="380.97" cy="-288.403" rx="4.00002" ry="4.00002"/>
<polygon fill="#efa3ae" stroke="#efa3ae" points="325.334,-254.24 319.167,-245.173 321.074,-251.624 316.813,-249.008 316.813,-249.008 316.813,-249.008 321.074,-251.624 314.458,-252.843 325.334,-254.24 325.334,-254.24"/>
</g>
<!-- Semester&#45;&gt;GradingPeriod -->
<g id="edge10" class="edge"><title>Semester&#45;&gt;GradingPeriod</title>
<path fill="none" stroke="#5f8d78" d="M412.347,-279.64C413.328,-273.92 414.372,-267.828 415.364,-262.042"/>
<ellipse fill="none" stroke="#5f8d78" cx="411.642" cy="-283.754" rx="4.00001" ry="4.00001"/>
<polygon fill="#5f8d78" stroke="#5f8d78" points="415.378,-261.961 421.503,-252.865 416.223,-257.032 417.068,-252.104 417.068,-252.104 417.068,-252.104 416.223,-257.032 412.633,-251.344 415.378,-261.961 415.378,-261.961"/>
</g>
<!-- Student&#45;&gt;Guardianship -->
<g id="edge11" class="edge"><title>Student&#45;&gt;Guardianship</title>
<path fill="none" stroke="#280a0f" d="M185.52,-136.548C182.898,-130.428 180.072,-123.835 177.407,-117.616"/>
<ellipse fill="none" stroke="#280a0f" cx="187.162" cy="-140.378" rx="4.00002" ry="4.00002"/>
<polygon fill="#280a0f" stroke="#280a0f" points="177.343,-117.467 177.54,-106.503 175.373,-112.871 173.404,-108.275 173.404,-108.275 173.404,-108.275 175.373,-112.871 169.268,-110.048 177.343,-117.467 177.343,-117.467"/>
</g>
<!-- Student&#45;&gt;Address -->
<g id="edge12" class="edge"><title>Student&#45;&gt;Address</title>
<path fill="none" stroke="#d140da" d="M161.337,-145.244C136.865,-134.121 104.115,-119.234 79.1144,-107.87"/>
<ellipse fill="none" stroke="#d140da" cx="165.181" cy="-146.991" rx="4.00002" ry="4.00002"/>
<polygon fill="#d140da" stroke="#d140da" points="79.0491,-107.841 71.8076,-99.6058 74.4973,-105.772 69.9454,-103.702 69.9454,-103.702 69.9454,-103.702 74.4973,-105.772 68.0833,-107.799 79.0491,-107.841 79.0491,-107.841"/>
</g>
<!-- Student&#45;&gt;StudentSectionEnrollment -->
<g id="edge13" class="edge"><title>Student&#45;&gt;StudentSectionEnrollment</title>
<path fill="none" stroke="#2f0eb7" d="M231.821,-145.711C255.676,-135.529 287.266,-122.045 313.117,-111.011"/>
<ellipse fill="none" stroke="#2f0eb7" cx="227.872" cy="-147.396" rx="4.00002" ry="4.00002"/>
<polygon fill="#2f0eb7" stroke="#2f0eb7" points="313.159,-110.993 324.122,-111.206 317.757,-109.031 322.356,-107.068 322.356,-107.068 322.356,-107.068 317.757,-109.031 320.589,-102.929 313.159,-110.993 313.159,-110.993"/>
</g>
<!-- StudentSectionEnrollment&#45;&gt;Grade -->
<g id="edge14" class="edge"><title>StudentSectionEnrollment&#45;&gt;Grade</title>
<path fill="none" stroke="#03f8c9" d="M360,-63.6398C360,-58.0629 360,-52.1319 360,-46.4761"/>
<ellipse fill="none" stroke="#03f8c9" cx="360" cy="-67.6966" rx="4" ry="4"/>
<polygon fill="#03f8c9" stroke="#03f8c9" points="360,-46.1043 364.5,-36.1043 360,-41.1043 360,-36.1043 360,-36.1043 360,-36.1043 360,-41.1043 355.5,-36.1044 360,-46.1043 360,-46.1043"/>
</g>
<!-- Teacher -->
<g id="node17" class="node"><title>Teacher</title>
<ellipse fill="none" stroke="black" cx="119" cy="-306" rx="41.1757" ry="18"/>
<text text-anchor="middle" x="119" y="-300.4" font-family="Times,serif" font-size="14.00">Teacher</text>
</g>
<!-- Teacher&#45;&gt;Address -->
<g id="edge15" class="edge"><title>Teacher&#45;&gt;Address</title>
<path fill="none" stroke="#5a1aa6" d="M90.4563,-285.854C79.4152,-276.909 67.8173,-265.291 61,-252 39.0724,-209.251 37.9398,-151.927 39.6194,-118.473"/>
<ellipse fill="none" stroke="#5a1aa6" cx="93.6891" cy="-288.355" rx="4.00002" ry="4.00002"/>
<polygon fill="#5a1aa6" stroke="#5a1aa6" points="39.644,-118.078 44.762,-108.38 39.9574,-113.088 40.2708,-108.098 40.2708,-108.098 40.2708,-108.098 39.9574,-113.088 35.7796,-107.816 39.644,-118.078 39.644,-118.078"/>
</g>
<!-- Teacher&#45;&gt;Section -->
<g id="edge16" class="edge"><title>Teacher&#45;&gt;Section</title>
<path fill="none" stroke="#a5ba92" d="M155.835,-290.266C185.106,-278.558 225.917,-262.233 255.592,-250.363"/>
<ellipse fill="none" stroke="#a5ba92" cx="152.005" cy="-291.798" rx="4.00001" ry="4.00001"/>
<polygon fill="#a5ba92" stroke="#a5ba92" points="255.911,-250.236 266.867,-250.7 260.553,-248.379 265.196,-246.522 265.196,-246.522 265.196,-246.522 260.553,-248.379 263.524,-242.344 255.911,-250.236 255.911,-250.236"/>
</g>
<!-- TimeBlock -->
<g id="node18" class="node"><title>TimeBlock</title>
<ellipse fill="none" stroke="black" cx="827" cy="-403" rx="54.223" ry="18"/>
<text text-anchor="middle" x="827" y="-397.4" font-family="Times,serif" font-size="14.00">TimeBlock</text>
</g>
</g>
</svg>
