<?xml version="1.0" encoding="UTF-8" standalone="no"?>
<!DOCTYPE svg PUBLIC "-//W3C//DTD SVG 1.1//EN"
 "http://www.w3.org/Graphics/SVG/1.1/DTD/svg11.dtd">
<!-- Generated by graphviz version 2.30.1 (20130501.1332)
 -->
<!-- Title: models_diagram Pages: 1 -->
<svg width="889pt" height="382pt"
 viewBox="0.00 0.00 889.00 382.00" xmlns="http://www.w3.org/2000/svg" xmlns:xlink="http://www.w3.org/1999/xlink">
<g id="graph0" class="graph" transform="scale(1 1) rotate(0) translate(4 378)">
<title>models_diagram</title>
<polygon fill="white" stroke="white" points="-4,5 -4,-378 886,-378 886,5 -4,5"/>
<!-- _diagram_info -->
<g id="node1" class="node"><title>_diagram_info</title>
<text text-anchor="start" x="135.312" y="-357" font-family="Times,serif" font-size="13.00">Models diagram</text>
<text text-anchor="start" x="135.312" y="-341.4" font-family="Times,serif" font-size="13.00">Date: May 01 2013 &#45; 09:34</text>
<text text-anchor="start" x="135.312" y="-325.8" font-family="Times,serif" font-size="13.00">Migration version: 20130423202448</text>
<text text-anchor="start" x="135.312" y="-310.2" font-family="Times,serif" font-size="13.00">Generated by RailRoady 1.1.0</text>
<text text-anchor="start" x="135.312" y="-294.6" font-family="Times,serif" font-size="13.00">http://railroady.prestonlee.com</text>
</g>
<!-- Address -->
<g id="node2" class="node"><title>Address</title>
<ellipse fill="none" stroke="black" cx="42" cy="-18" rx="42.5278" ry="18"/>
<text text-anchor="middle" x="42" y="-12.4" font-family="Times,serif" font-size="14.00">Address</text>
</g>
<!-- Admin -->
<g id="node3" class="node"><title>Admin</title>
<ellipse fill="none" stroke="black" cx="520" cy="-331" rx="37.2949" ry="18"/>
<text text-anchor="middle" x="520" y="-325.4" font-family="Times,serif" font-size="14.00">Admin</text>
</g>
<!-- Course -->
<g id="node4" class="node"><title>Course</title>
<ellipse fill="none" stroke="black" cx="294" cy="-234" rx="38.0929" ry="18"/>
<text text-anchor="middle" x="294" y="-228.4" font-family="Times,serif" font-size="14.00">Course</text>
</g>
<!-- Section -->
<g id="node12" class="node"><title>Section</title>
<ellipse fill="none" stroke="black" cx="294" cy="-162" rx="40.0039" ry="18"/>
<text text-anchor="middle" x="294" y="-156.4" font-family="Times,serif" font-size="14.00">Section</text>
</g>
<!-- Course&#45;&gt;Section -->
<g id="edge1" class="edge"><title>Course&#45;&gt;Section</title>
<path fill="none" stroke="#7625cd" d="M294,-207.64C294,-202.063 294,-196.132 294,-190.476"/>
<ellipse fill="none" stroke="#7625cd" cx="294" cy="-211.697" rx="4" ry="4"/>
<polygon fill="#7625cd" stroke="#7625cd" points="294,-190.104 298.5,-180.104 294,-185.104 294,-180.104 294,-180.104 294,-180.104 294,-185.104 289.5,-180.104 294,-190.104 294,-190.104"/>
</g>
<!-- Ethnicity -->
<g id="node5" class="node"><title>Ethnicity</title>
<polygon fill="none" stroke="black" points="643.492,-349 576.508,-349 576.508,-313 643.492,-313 643.492,-349"/>
<text text-anchor="middle" x="610" y="-325.4" font-family="Times,serif" font-size="14.00">Ethnicity</text>
</g>
<!-- GradingPeriod -->
<g id="node6" class="node"><title>GradingPeriod</title>
<ellipse fill="none" stroke="black" cx="420" cy="-162" rx="67.3413" ry="18"/>
<text text-anchor="middle" x="420" y="-156.4" font-family="Times,serif" font-size="14.00">GradingPeriod</text>
</g>
<!-- Guardianship -->
<g id="node7" class="node"><title>Guardianship</title>
<ellipse fill="none" stroke="black" cx="166" cy="-18" rx="63.0978" ry="18"/>
<text text-anchor="middle" x="166" y="-12.4" font-family="Times,serif" font-size="14.00">Guardianship</text>
</g>
<!-- Parent -->
<g id="node8" class="node"><title>Parent</title>
<ellipse fill="none" stroke="black" cx="106" cy="-162" rx="35.5596" ry="18"/>
<text text-anchor="middle" x="106" y="-156.4" font-family="Times,serif" font-size="14.00">Parent</text>
</g>
<!-- Parent&#45;&gt;Guardianship -->
<g id="edge2" class="edge"><title>Parent&#45;&gt;Guardianship</title>
<path fill="none" stroke="#46d457" d="M116.31,-136.6C127.022,-111.247 143.734,-71.6952 154.775,-45.5669"/>
<ellipse fill="none" stroke="#46d457" cx="114.675" cy="-140.469" rx="4.00002" ry="4.00002"/>
<polygon fill="#46d457" stroke="#46d457" points="154.812,-45.4793 162.849,-38.0193 156.758,-40.8735 158.704,-36.2678 158.704,-36.2678 158.704,-36.2678 156.758,-40.8735 154.559,-34.5163 154.812,-45.4793 154.812,-45.4793"/>
</g>
<!-- Student -->
<g id="node15" class="node"><title>Student</title>
<ellipse fill="none" stroke="black" cx="196" cy="-90" rx="40.3171" ry="18"/>
<text text-anchor="middle" x="196" y="-84.4" font-family="Times,serif" font-size="14.00">Student</text>
</g>
<!-- Parent&#45;&gt;Student -->
<g id="edge3" class="edge"><title>Parent&#45;&gt;Student</title>
<path fill="none" stroke="#78cde6" d="M132.598,-140.313C144.001,-131.444 157.309,-121.093 168.78,-112.171"/>
<polygon fill="#78cde6" stroke="#78cde6" points="132.542,-140.357 121.885,-142.944 128.595,-143.426 124.648,-146.496 124.648,-146.496 124.648,-146.496 128.595,-143.426 127.411,-150.048 132.542,-140.357 132.542,-140.357"/>
<polygon fill="#78cde6" stroke="#78cde6" points="168.861,-112.108 179.518,-109.521 172.808,-109.038 176.755,-105.968 176.755,-105.968 176.755,-105.968 172.808,-109.038 173.992,-102.416 168.861,-112.108 168.861,-112.108"/>
</g>
<!-- Parent&#45;&gt;Address -->
<g id="edge4" class="edge"><title>Parent&#45;&gt;Address</title>
<path fill="none" stroke="#4cdd69" d="M94.9834,-136.557C83.4875,-111.05 65.5299,-71.2069 53.7632,-45.0997"/>
<ellipse fill="none" stroke="#4cdd69" cx="96.7634" cy="-140.506" rx="4.00002" ry="4.00002"/>
<polygon fill="#4cdd69" stroke="#4cdd69" points="53.6921,-44.9418 53.6857,-33.9759 51.6376,-40.3834 49.5831,-35.825 49.5831,-35.825 49.5831,-35.825 51.6376,-40.3834 45.4805,-37.674 53.6921,-44.9418 53.6921,-44.9418"/>
</g>
<!-- Schedule -->
<g id="node9" class="node"><title>Schedule</title>
<ellipse fill="none" stroke="black" cx="708" cy="-331" rx="46.1519" ry="18"/>
<text text-anchor="middle" x="708" y="-325.4" font-family="Times,serif" font-size="14.00">Schedule</text>
</g>
<!-- School -->
<g id="node10" class="node"><title>School</title>
<ellipse fill="none" stroke="black" cx="198" cy="-162" rx="37.2949" ry="18"/>
<text text-anchor="middle" x="198" y="-156.4" font-family="Times,serif" font-size="14.00">School</text>
</g>
<!-- School&#45;&gt;Student -->
<g id="edge5" class="edge"><title>School&#45;&gt;Student</title>
<path fill="none" stroke="#7e5511" d="M197.275,-135.64C197.116,-130.063 196.947,-124.132 196.785,-118.476"/>
<ellipse fill="none" stroke="#7e5511" cx="197.391" cy="-139.698" rx="4" ry="4"/>
<polygon fill="#7e5511" stroke="#7e5511" points="196.774,-118.1 200.987,-107.976 196.632,-113.102 196.489,-108.104 196.489,-108.104 196.489,-108.104 196.632,-113.102 191.991,-108.233 196.774,-118.1 196.774,-118.1"/>
</g>
<!-- SchoolYear -->
<g id="node11" class="node"><title>SchoolYear</title>
<ellipse fill="none" stroke="black" cx="408" cy="-331" rx="55.4927" ry="18"/>
<text text-anchor="middle" x="408" y="-325.4" font-family="Times,serif" font-size="14.00">SchoolYear</text>
</g>
<!-- Semester -->
<g id="node14" class="node"><title>Semester</title>
<ellipse fill="none" stroke="black" cx="408" cy="-234" rx="46.1519" ry="18"/>
<text text-anchor="middle" x="408" y="-228.4" font-family="Times,serif" font-size="14.00">Semester</text>
</g>
<!-- SchoolYear&#45;&gt;Semester -->
<g id="edge6" class="edge"><title>SchoolYear&#45;&gt;Semester</title>
<path fill="none" stroke="#c7162f" d="M408,-304.414C408,-291.518 408,-275.862 408,-262.685"/>
<ellipse fill="none" stroke="#c7162f" cx="408" cy="-308.576" rx="4" ry="4"/>
<polygon fill="#c7162f" stroke="#c7162f" points="408,-262.314 412.5,-252.314 408,-257.314 408,-252.314 408,-252.314 408,-252.314 408,-257.314 403.5,-252.314 408,-262.314 408,-262.314"/>
</g>
<!-- SectionRegistration -->
<g id="node13" class="node"><title>SectionRegistration</title>
<ellipse fill="none" stroke="black" cx="334" cy="-18" rx="87.3116" ry="18"/>
<text text-anchor="middle" x="334" y="-12.4" font-family="Times,serif" font-size="14.00">SectionRegistration</text>
</g>
<!-- Section&#45;&gt;SectionRegistration -->
<g id="edge7" class="edge"><title>Section&#45;&gt;SectionRegistration</title>
<path fill="none" stroke="#e1060a" d="M301.062,-135.929C308.162,-110.725 319.072,-71.9942 326.368,-46.0947"/>
<ellipse fill="none" stroke="#e1060a" cx="299.91" cy="-140.021" rx="4.00001" ry="4.00001"/>
<polygon fill="#e1060a" stroke="#e1060a" points="326.447,-45.8147 333.489,-37.4094 327.802,-41.002 329.158,-36.1893 329.158,-36.1893 329.158,-36.1893 327.802,-41.002 324.827,-34.9691 326.447,-45.8147 326.447,-45.8147"/>
</g>
<!-- Section&#45;&gt;Student -->
<g id="edge8" class="edge"><title>Section&#45;&gt;Student</title>
<path fill="none" stroke="#de0bde" d="M264.931,-140.237C252.249,-131.178 237.42,-120.586 224.772,-111.551"/>
<polygon fill="#de0bde" stroke="#de0bde" points="265.079,-140.342 270.601,-149.817 269.148,-143.249 273.217,-146.155 273.217,-146.155 273.217,-146.155 269.148,-143.249 275.832,-142.493 265.079,-140.342 265.079,-140.342"/>
<polygon fill="#de0bde" stroke="#de0bde" points="224.555,-111.396 219.033,-101.922 220.486,-108.49 216.417,-105.584 216.417,-105.584 216.417,-105.584 220.486,-108.49 213.802,-109.246 224.555,-111.396 224.555,-111.396"/>
</g>
<!-- Semester&#45;&gt;Section -->
<g id="edge9" class="edge"><title>Semester&#45;&gt;Section</title>
<path fill="none" stroke="#249f2a" d="M377.346,-214.177C361.264,-204.303 341.596,-192.226 325.405,-182.284"/>
<ellipse fill="none" stroke="#249f2a" cx="380.97" cy="-216.403" rx="4.00002" ry="4.00002"/>
<polygon fill="#249f2a" stroke="#249f2a" points="325.334,-182.24 319.167,-173.173 321.074,-179.624 316.813,-177.008 316.813,-177.008 316.813,-177.008 321.074,-179.624 314.458,-180.843 325.334,-182.24 325.334,-182.24"/>
</g>
<!-- Semester&#45;&gt;GradingPeriod -->
<g id="edge10" class="edge"><title>Semester&#45;&gt;GradingPeriod</title>
<path fill="none" stroke="#73e4ea" d="M412.347,-207.64C413.328,-201.92 414.372,-195.828 415.364,-190.042"/>
<ellipse fill="none" stroke="#73e4ea" cx="411.642" cy="-211.754" rx="4.00001" ry="4.00001"/>
<polygon fill="#73e4ea" stroke="#73e4ea" points="415.378,-189.961 421.503,-180.865 416.223,-185.032 417.068,-180.104 417.068,-180.104 417.068,-180.104 416.223,-185.032 412.633,-179.344 415.378,-189.961 415.378,-189.961"/>
</g>
<!-- Student&#45;&gt;Guardianship -->
<g id="edge11" class="edge"><title>Student&#45;&gt;Guardianship</title>
<path fill="none" stroke="#24a878" d="M185.52,-64.5475C182.898,-58.4284 180.072,-51.8347 177.407,-45.6163"/>
<ellipse fill="none" stroke="#24a878" cx="187.162" cy="-68.3784" rx="4.00002" ry="4.00002"/>
<polygon fill="#24a878" stroke="#24a878" points="177.343,-45.4668 177.54,-34.5026 175.373,-40.871 173.404,-36.2753 173.404,-36.2753 173.404,-36.2753 175.373,-40.871 169.268,-38.048 177.343,-45.4668 177.343,-45.4668"/>
</g>
<!-- Student&#45;&gt;Address -->
<g id="edge12" class="edge"><title>Student&#45;&gt;Address</title>
<path fill="none" stroke="#34cbec" d="M161.337,-73.244C136.865,-62.1206 104.115,-47.2342 79.1144,-35.8702"/>
<ellipse fill="none" stroke="#34cbec" cx="165.181" cy="-74.9913" rx="4.00002" ry="4.00002"/>
<polygon fill="#34cbec" stroke="#34cbec" points="79.0491,-35.8406 71.8076,-27.6058 74.4973,-33.7715 69.9454,-31.7025 69.9454,-31.7025 69.9454,-31.7025 74.4973,-33.7715 68.0833,-35.7991 79.0491,-35.8406 79.0491,-35.8406"/>
</g>
<!-- Student&#45;&gt;SectionRegistration -->
<g id="edge13" class="edge"><title>Student&#45;&gt;SectionRegistration</title>
<path fill="none" stroke="#e2f298" d="M228.927,-72.2979C248.32,-62.4609 273.002,-49.9409 293.571,-39.5076"/>
<ellipse fill="none" stroke="#e2f298" cx="225.201" cy="-74.1881" rx="4.00002" ry="4.00002"/>
<polygon fill="#e2f298" stroke="#e2f298" points="293.78,-39.4017 304.734,-38.8912 298.239,-37.1398 302.698,-34.8779 302.698,-34.8779 302.698,-34.8779 298.239,-37.1398 300.662,-30.8647 293.78,-39.4017 293.78,-39.4017"/>
</g>
<!-- Teacher -->
<g id="node16" class="node"><title>Teacher</title>
<ellipse fill="none" stroke="black" cx="119" cy="-234" rx="41.1757" ry="18"/>
<text text-anchor="middle" x="119" y="-228.4" font-family="Times,serif" font-size="14.00">Teacher</text>
</g>
<!-- Teacher&#45;&gt;Address -->
<g id="edge14" class="edge"><title>Teacher&#45;&gt;Address</title>
<path fill="none" stroke="#fb472f" d="M90.4563,-213.854C79.4152,-204.909 67.8173,-193.291 61,-180 39.0724,-137.251 37.9398,-79.9265 39.6194,-46.4726"/>
<ellipse fill="none" stroke="#fb472f" cx="93.6891" cy="-216.355" rx="4.00002" ry="4.00002"/>
<polygon fill="#fb472f" stroke="#fb472f" points="39.644,-46.0783 44.762,-36.38 39.9574,-41.0881 40.2708,-36.098 40.2708,-36.098 40.2708,-36.098 39.9574,-41.0881 35.7796,-35.8159 39.644,-46.0783 39.644,-46.0783"/>
</g>
<!-- Teacher&#45;&gt;Section -->
<g id="edge15" class="edge"><title>Teacher&#45;&gt;Section</title>
<path fill="none" stroke="#b4247b" d="M155.835,-218.266C185.106,-206.558 225.917,-190.233 255.592,-178.363"/>
<ellipse fill="none" stroke="#b4247b" cx="152.005" cy="-219.798" rx="4.00001" ry="4.00001"/>
<polygon fill="#b4247b" stroke="#b4247b" points="255.911,-178.236 266.867,-178.7 260.553,-176.379 265.196,-174.522 265.196,-174.522 265.196,-174.522 260.553,-176.379 263.524,-170.344 255.911,-178.236 255.911,-178.236"/>
</g>
<!-- TimeBlock -->
<g id="node17" class="node"><title>TimeBlock</title>
<ellipse fill="none" stroke="black" cx="827" cy="-331" rx="54.223" ry="18"/>
<text text-anchor="middle" x="827" y="-325.4" font-family="Times,serif" font-size="14.00">TimeBlock</text>
</g>
</g>
</svg>
