<?xml version="1.0" encoding="UTF-8" standalone="no"?>
<!DOCTYPE svg PUBLIC "-//W3C//DTD SVG 1.1//EN"
 "http://www.w3.org/Graphics/SVG/1.1/DTD/svg11.dtd">
<!-- Generated by graphviz version 2.30.1 (20130501.1332)
 -->
<!-- Title: models_diagram Pages: 1 -->
<svg width="1137pt" height="1654pt"
 viewBox="0.00 0.00 1136.51 1654.00" xmlns="http://www.w3.org/2000/svg" xmlns:xlink="http://www.w3.org/1999/xlink">
<g id="graph0" class="graph" transform="scale(1 1) rotate(0) translate(4 1650)">
<title>models_diagram</title>
<polygon fill="white" stroke="white" points="-4,5 -4,-1650 1133.51,-1650 1133.51,5 -4,5"/>
<!-- _diagram_info -->
<g id="node1" class="node"><title>_diagram_info</title>
<text text-anchor="start" x="320.065" y="-1546" font-family="Times,serif" font-size="13.00">Models diagram</text>
<text text-anchor="start" x="320.065" y="-1530.4" font-family="Times,serif" font-size="13.00">Date: May 08 2013 &#45; 16:23</text>
<text text-anchor="start" x="320.065" y="-1514.8" font-family="Times,serif" font-size="13.00">Migration version: 20130501192929</text>
<text text-anchor="start" x="320.065" y="-1499.2" font-family="Times,serif" font-size="13.00">Generated by RailRoady 1.1.0</text>
<text text-anchor="start" x="320.065" y="-1483.6" font-family="Times,serif" font-size="13.00">http://railroady.prestonlee.com</text>
</g>
<!-- Address -->
<g id="node2" class="node"><title>Address</title>
<path fill="none" stroke="black" d="M32.0094,-172.8C32.0094,-172.8 141.02,-172.8 141.02,-172.8 147.02,-172.8 153.02,-178.8 153.02,-184.8 153.02,-184.8 153.02,-395.2 153.02,-395.2 153.02,-401.2 147.02,-407.2 141.02,-407.2 141.02,-407.2 32.0094,-407.2 32.0094,-407.2 26.0094,-407.2 20.0094,-401.2 20.0094,-395.2 20.0094,-395.2 20.0094,-184.8 20.0094,-184.8 20.0094,-178.8 26.0094,-172.8 32.0094,-172.8"/>
<text text-anchor="middle" x="86.5148" y="-389.2" font-family="Times,serif" font-size="14.00">Address</text>
<polyline fill="none" stroke="black" points="20.0094,-382.4 153.02,-382.4 "/>
<text text-anchor="start" x="28.0094" y="-364.4" font-family="Times,serif" font-size="14.00">id :integer</text>
<text text-anchor="start" x="28.0094" y="-347.6" font-family="Times,serif" font-size="14.00">street :string</text>
<text text-anchor="start" x="28.0094" y="-330.8" font-family="Times,serif" font-size="14.00">unit :string</text>
<text text-anchor="start" x="28.0094" y="-314" font-family="Times,serif" font-size="14.00">city :string</text>
<text text-anchor="start" x="28.0094" y="-297.2" font-family="Times,serif" font-size="14.00">state :string</text>
<text text-anchor="start" x="28.0094" y="-280.4" font-family="Times,serif" font-size="14.00">zip :string</text>
<text text-anchor="start" x="28.0094" y="-263.6" font-family="Times,serif" font-size="14.00">created_at :datetime</text>
<text text-anchor="start" x="28.0094" y="-246.8" font-family="Times,serif" font-size="14.00">updated_at :datetime</text>
<text text-anchor="start" x="28.0094" y="-230" font-family="Times,serif" font-size="14.00">student_id :integer</text>
<text text-anchor="start" x="28.0094" y="-213.2" font-family="Times,serif" font-size="14.00">parent_id :integer</text>
<text text-anchor="start" x="28.0094" y="-196.4" font-family="Times,serif" font-size="14.00">address_type :string</text>
<text text-anchor="start" x="28.0094" y="-179.6" font-family="Times,serif" font-size="14.00">teacher_id :integer</text>
</g>
<!-- Admin -->
<g id="node3" class="node"><title>Admin</title>
<path fill="none" stroke="black" d="M700.237,-1394.4C700.237,-1394.4 880.793,-1394.4 880.793,-1394.4 886.793,-1394.4 892.793,-1400.4 892.793,-1406.4 892.793,-1406.4 892.793,-1633.6 892.793,-1633.6 892.793,-1639.6 886.793,-1645.6 880.793,-1645.6 880.793,-1645.6 700.237,-1645.6 700.237,-1645.6 694.237,-1645.6 688.237,-1639.6 688.237,-1633.6 688.237,-1633.6 688.237,-1406.4 688.237,-1406.4 688.237,-1400.4 694.237,-1394.4 700.237,-1394.4"/>
<text text-anchor="middle" x="790.515" y="-1627.6" font-family="Times,serif" font-size="14.00">Admin</text>
<polyline fill="none" stroke="black" points="688.237,-1620.8 892.793,-1620.8 "/>
<text text-anchor="start" x="696.237" y="-1602.8" font-family="Times,serif" font-size="14.00">id :integer</text>
<text text-anchor="start" x="696.237" y="-1586" font-family="Times,serif" font-size="14.00">email :string</text>
<text text-anchor="start" x="696.237" y="-1569.2" font-family="Times,serif" font-size="14.00">encrypted_password :string</text>
<text text-anchor="start" x="696.237" y="-1552.4" font-family="Times,serif" font-size="14.00">reset_password_token :string</text>
<text text-anchor="start" x="696.237" y="-1535.6" font-family="Times,serif" font-size="14.00">reset_password_sent_at :datetime</text>
<text text-anchor="start" x="696.237" y="-1518.8" font-family="Times,serif" font-size="14.00">remember_created_at :datetime</text>
<text text-anchor="start" x="696.237" y="-1502" font-family="Times,serif" font-size="14.00">sign_in_count :integer</text>
<text text-anchor="start" x="696.237" y="-1485.2" font-family="Times,serif" font-size="14.00">current_sign_in_at :datetime</text>
<text text-anchor="start" x="696.237" y="-1468.4" font-family="Times,serif" font-size="14.00">last_sign_in_at :datetime</text>
<text text-anchor="start" x="696.237" y="-1451.6" font-family="Times,serif" font-size="14.00">current_sign_in_ip :string</text>
<text text-anchor="start" x="696.237" y="-1434.8" font-family="Times,serif" font-size="14.00">last_sign_in_ip :string</text>
<text text-anchor="start" x="696.237" y="-1418" font-family="Times,serif" font-size="14.00">created_at :datetime</text>
<text text-anchor="start" x="696.237" y="-1401.2" font-family="Times,serif" font-size="14.00">updated_at :datetime</text>
</g>
<!-- Course -->
<g id="node4" class="node"><title>Course</title>
<path fill="none" stroke="black" d="M359.003,-1139.6C359.003,-1139.6 496.027,-1139.6 496.027,-1139.6 502.027,-1139.6 508.027,-1145.6 508.027,-1151.6 508.027,-1151.6 508.027,-1244.4 508.027,-1244.4 508.027,-1250.4 502.027,-1256.4 496.027,-1256.4 496.027,-1256.4 359.003,-1256.4 359.003,-1256.4 353.003,-1256.4 347.003,-1250.4 347.003,-1244.4 347.003,-1244.4 347.003,-1151.6 347.003,-1151.6 347.003,-1145.6 353.003,-1139.6 359.003,-1139.6"/>
<text text-anchor="middle" x="427.515" y="-1238.4" font-family="Times,serif" font-size="14.00">Course</text>
<polyline fill="none" stroke="black" points="347.003,-1231.6 508.027,-1231.6 "/>
<text text-anchor="start" x="355.003" y="-1213.6" font-family="Times,serif" font-size="14.00">id :integer</text>
<text text-anchor="start" x="355.003" y="-1196.8" font-family="Times,serif" font-size="14.00">course_name :string</text>
<text text-anchor="start" x="355.003" y="-1180" font-family="Times,serif" font-size="14.00">course_description :string</text>
<text text-anchor="start" x="355.003" y="-1163.2" font-family="Times,serif" font-size="14.00">created_at :datetime</text>
<text text-anchor="start" x="355.003" y="-1146.4" font-family="Times,serif" font-size="14.00">updated_at :datetime</text>
</g>
<!-- Section -->
<g id="node12" class="node"><title>Section</title>
<path fill="none" stroke="black" d="M344.234,-800.6C344.234,-800.6 510.796,-800.6 510.796,-800.6 516.796,-800.6 522.796,-806.6 522.796,-812.6 522.796,-812.6 522.796,-989.4 522.796,-989.4 522.796,-995.4 516.796,-1001.4 510.796,-1001.4 510.796,-1001.4 344.234,-1001.4 344.234,-1001.4 338.234,-1001.4 332.234,-995.4 332.234,-989.4 332.234,-989.4 332.234,-812.6 332.234,-812.6 332.234,-806.6 338.234,-800.6 344.234,-800.6"/>
<text text-anchor="middle" x="427.515" y="-983.4" font-family="Times,serif" font-size="14.00">Section</text>
<polyline fill="none" stroke="black" points="332.234,-976.6 522.796,-976.6 "/>
<text text-anchor="start" x="340.234" y="-958.6" font-family="Times,serif" font-size="14.00">id :integer</text>
<text text-anchor="start" x="340.234" y="-941.8" font-family="Times,serif" font-size="14.00">course_id :integer</text>
<text text-anchor="start" x="340.234" y="-925" font-family="Times,serif" font-size="14.00">section_number :integer</text>
<text text-anchor="start" x="340.234" y="-908.2" font-family="Times,serif" font-size="14.00">teacher_id :integer</text>
<text text-anchor="start" x="340.234" y="-891.4" font-family="Times,serif" font-size="14.00">created_at :datetime</text>
<text text-anchor="start" x="340.234" y="-874.6" font-family="Times,serif" font-size="14.00">updated_at :datetime</text>
<text text-anchor="start" x="340.234" y="-857.8" font-family="Times,serif" font-size="14.00">section_registration_id :integer</text>
<text text-anchor="start" x="340.234" y="-841" font-family="Times,serif" font-size="14.00">semester_id :integer</text>
<text text-anchor="start" x="340.234" y="-824.2" font-family="Times,serif" font-size="14.00">days_of_week :string</text>
<text text-anchor="start" x="340.234" y="-807.4" font-family="Times,serif" font-size="14.00">time_block :string</text>
</g>
<!-- Course&#45;&gt;Section -->
<g id="edge1" class="edge"><title>Course&#45;&gt;Section</title>
<path fill="none" stroke="#1ab4bf" d="M427.515,-1130.97C427.515,-1095.85 427.515,-1051.76 427.515,-1011.67"/>
<ellipse fill="none" stroke="#1ab4bf" cx="427.515" cy="-1135.42" rx="4" ry="4"/>
<polygon fill="#1ab4bf" stroke="#1ab4bf" points="427.515,-1011.57 432.015,-1001.57 427.515,-1006.57 427.515,-1001.57 427.515,-1001.57 427.515,-1001.57 427.515,-1006.57 423.015,-1001.57 427.515,-1011.57 427.515,-1011.57"/>
</g>
<!-- Ethnicity -->
<g id="node5" class="node"><title>Ethnicity</title>
<polygon fill="none" stroke="black" points="910.853,-1495.2 910.853,-1544.8 978.177,-1544.8 978.177,-1495.2 910.853,-1495.2"/>
<text text-anchor="middle" x="944.515" y="-1526.8" font-family="Times,serif" font-size="14.00">Ethnicity</text>
<polyline fill="none" stroke="black" points="910.853,-1520 978.177,-1520 "/>
<text text-anchor="middle" x="944.515" y="-1502" font-family="Times,serif" font-size="14.00"> </text>
</g>
<!-- Grade -->
<g id="node6" class="node"><title>Grade</title>
<path fill="none" stroke="black" d="M306.068,-1.2C306.068,-1.2 516.962,-1.2 516.962,-1.2 522.962,-1.2 528.962,-7.2 528.962,-13.2 528.962,-13.2 528.962,-122.8 528.962,-122.8 528.962,-128.8 522.962,-134.8 516.962,-134.8 516.962,-134.8 306.068,-134.8 306.068,-134.8 300.068,-134.8 294.068,-128.8 294.068,-122.8 294.068,-122.8 294.068,-13.2 294.068,-13.2 294.068,-7.2 300.068,-1.2 306.068,-1.2"/>
<text text-anchor="middle" x="411.515" y="-116.8" font-family="Times,serif" font-size="14.00">Grade</text>
<polyline fill="none" stroke="black" points="294.068,-110 528.962,-110 "/>
<text text-anchor="start" x="302.068" y="-92" font-family="Times,serif" font-size="14.00">id :integer</text>
<text text-anchor="start" x="302.068" y="-75.2" font-family="Times,serif" font-size="14.00">numerical_grade :float</text>
<text text-anchor="start" x="302.068" y="-58.4" font-family="Times,serif" font-size="14.00">student_section_enrollment_id :integer</text>
<text text-anchor="start" x="302.068" y="-41.6" font-family="Times,serif" font-size="14.00">created_at :datetime</text>
<text text-anchor="start" x="302.068" y="-24.8" font-family="Times,serif" font-size="14.00">updated_at :datetime</text>
<text text-anchor="start" x="302.068" y="-8" font-family="Times,serif" font-size="14.00">grading_period_id :integer</text>
</g>
<!-- GradingPeriod -->
<g id="node7" class="node"><title>GradingPeriod</title>
<path fill="none" stroke="black" d="M553.009,-825.8C553.009,-825.8 662.02,-825.8 662.02,-825.8 668.02,-825.8 674.02,-831.8 674.02,-837.8 674.02,-837.8 674.02,-964.2 674.02,-964.2 674.02,-970.2 668.02,-976.2 662.02,-976.2 662.02,-976.2 553.009,-976.2 553.009,-976.2 547.009,-976.2 541.009,-970.2 541.009,-964.2 541.009,-964.2 541.009,-837.8 541.009,-837.8 541.009,-831.8 547.009,-825.8 553.009,-825.8"/>
<text text-anchor="middle" x="607.515" y="-958.2" font-family="Times,serif" font-size="14.00">GradingPeriod</text>
<polyline fill="none" stroke="black" points="541.009,-951.4 674.02,-951.4 "/>
<text text-anchor="start" x="549.009" y="-933.4" font-family="Times,serif" font-size="14.00">id :integer</text>
<text text-anchor="start" x="549.009" y="-916.6" font-family="Times,serif" font-size="14.00">starts_on :date</text>
<text text-anchor="start" x="549.009" y="-899.8" font-family="Times,serif" font-size="14.00">ends_on :date</text>
<text text-anchor="start" x="549.009" y="-883" font-family="Times,serif" font-size="14.00">description :string</text>
<text text-anchor="start" x="549.009" y="-866.2" font-family="Times,serif" font-size="14.00">semester_id :integer</text>
<text text-anchor="start" x="549.009" y="-849.4" font-family="Times,serif" font-size="14.00">created_at :datetime</text>
<text text-anchor="start" x="549.009" y="-832.6" font-family="Times,serif" font-size="14.00">updated_at :datetime</text>
</g>
<!-- Guardianship -->
<g id="node8" class="node"><title>Guardianship</title>
<path fill="none" stroke="black" d="M188.009,-231.6C188.009,-231.6 297.02,-231.6 297.02,-231.6 303.02,-231.6 309.02,-237.6 309.02,-243.6 309.02,-243.6 309.02,-336.4 309.02,-336.4 309.02,-342.4 303.02,-348.4 297.02,-348.4 297.02,-348.4 188.009,-348.4 188.009,-348.4 182.009,-348.4 176.009,-342.4 176.009,-336.4 176.009,-336.4 176.009,-243.6 176.009,-243.6 176.009,-237.6 182.009,-231.6 188.009,-231.6"/>
<text text-anchor="middle" x="242.515" y="-330.4" font-family="Times,serif" font-size="14.00">Guardianship</text>
<polyline fill="none" stroke="black" points="176.009,-323.6 309.02,-323.6 "/>
<text text-anchor="start" x="184.009" y="-305.6" font-family="Times,serif" font-size="14.00">id :integer</text>
<text text-anchor="start" x="184.009" y="-288.8" font-family="Times,serif" font-size="14.00">student_id :integer</text>
<text text-anchor="start" x="184.009" y="-272" font-family="Times,serif" font-size="14.00">parent_id :integer</text>
<text text-anchor="start" x="184.009" y="-255.2" font-family="Times,serif" font-size="14.00">created_at :datetime</text>
<text text-anchor="start" x="184.009" y="-238.4" font-family="Times,serif" font-size="14.00">updated_at :datetime</text>
</g>
<!-- Parent -->
<g id="node9" class="node"><title>Parent</title>
<path fill="none" stroke="black" d="M42.0094,-817.4C42.0094,-817.4 151.02,-817.4 151.02,-817.4 157.02,-817.4 163.02,-823.4 163.02,-829.4 163.02,-829.4 163.02,-972.6 163.02,-972.6 163.02,-978.6 157.02,-984.6 151.02,-984.6 151.02,-984.6 42.0094,-984.6 42.0094,-984.6 36.0094,-984.6 30.0094,-978.6 30.0094,-972.6 30.0094,-972.6 30.0094,-829.4 30.0094,-829.4 30.0094,-823.4 36.0094,-817.4 42.0094,-817.4"/>
<text text-anchor="middle" x="96.5148" y="-966.6" font-family="Times,serif" font-size="14.00">Parent</text>
<polyline fill="none" stroke="black" points="30.0094,-959.8 163.02,-959.8 "/>
<text text-anchor="start" x="38.0094" y="-941.8" font-family="Times,serif" font-size="14.00">id :integer</text>
<text text-anchor="start" x="38.0094" y="-925" font-family="Times,serif" font-size="14.00">first_name :string</text>
<text text-anchor="start" x="38.0094" y="-908.2" font-family="Times,serif" font-size="14.00">last_name :string</text>
<text text-anchor="start" x="38.0094" y="-891.4" font-family="Times,serif" font-size="14.00">home_phone :string</text>
<text text-anchor="start" x="38.0094" y="-874.6" font-family="Times,serif" font-size="14.00">work_phone :string</text>
<text text-anchor="start" x="38.0094" y="-857.8" font-family="Times,serif" font-size="14.00">created_at :datetime</text>
<text text-anchor="start" x="38.0094" y="-841" font-family="Times,serif" font-size="14.00">updated_at :datetime</text>
<text text-anchor="start" x="38.0094" y="-824.2" font-family="Times,serif" font-size="14.00">email :string</text>
</g>
<!-- Parent&#45;&gt;Guardianship -->
<g id="edge2" class="edge"><title>Parent&#45;&gt;Guardianship</title>
<path fill="none" stroke="#a46f53" d="M103.573,-809.303C113.507,-686.166 131.716,-477.515 143.515,-444 149.977,-425.646 173.086,-389.605 195.352,-357.113"/>
<ellipse fill="none" stroke="#a46f53" cx="103.252" cy="-813.3" rx="4" ry="4"/>
<polygon fill="#a46f53" stroke="#a46f53" points="195.613,-356.735 204.994,-351.056 198.451,-352.618 201.289,-348.502 201.289,-348.502 201.289,-348.502 198.451,-352.618 197.584,-345.948 195.613,-356.735 195.613,-356.735"/>
</g>
<!-- Student -->
<g id="node14" class="node"><title>Student</title>
<path fill="none" stroke="black" d="M164.234,-444.8C164.234,-444.8 330.796,-444.8 330.796,-444.8 336.796,-444.8 342.796,-450.8 342.796,-456.8 342.796,-456.8 342.796,-751.2 342.796,-751.2 342.796,-757.2 336.796,-763.2 330.796,-763.2 330.796,-763.2 164.234,-763.2 164.234,-763.2 158.234,-763.2 152.234,-757.2 152.234,-751.2 152.234,-751.2 152.234,-456.8 152.234,-456.8 152.234,-450.8 158.234,-444.8 164.234,-444.8"/>
<text text-anchor="middle" x="247.515" y="-745.2" font-family="Times,serif" font-size="14.00">Student</text>
<polyline fill="none" stroke="black" points="152.234,-738.4 342.796,-738.4 "/>
<text text-anchor="start" x="160.234" y="-720.4" font-family="Times,serif" font-size="14.00">id :integer</text>
<text text-anchor="start" x="160.234" y="-703.6" font-family="Times,serif" font-size="14.00">created_at :datetime</text>
<text text-anchor="start" x="160.234" y="-686.8" font-family="Times,serif" font-size="14.00">updated_at :datetime</text>
<text text-anchor="start" x="160.234" y="-670" font-family="Times,serif" font-size="14.00">first_name :string</text>
<text text-anchor="start" x="160.234" y="-653.2" font-family="Times,serif" font-size="14.00">middle_name :string</text>
<text text-anchor="start" x="160.234" y="-636.4" font-family="Times,serif" font-size="14.00">last_name :string</text>
<text text-anchor="start" x="160.234" y="-619.6" font-family="Times,serif" font-size="14.00">home_phone :string</text>
<text text-anchor="start" x="160.234" y="-602.8" font-family="Times,serif" font-size="14.00">cell_phone :string</text>
<text text-anchor="start" x="160.234" y="-586" font-family="Times,serif" font-size="14.00">email :string</text>
<text text-anchor="start" x="160.234" y="-569.2" font-family="Times,serif" font-size="14.00">empl :string</text>
<text text-anchor="start" x="160.234" y="-552.4" font-family="Times,serif" font-size="14.00">dob :date</text>
<text text-anchor="start" x="160.234" y="-535.6" font-family="Times,serif" font-size="14.00">medical_issues :string</text>
<text text-anchor="start" x="160.234" y="-518.8" font-family="Times,serif" font-size="14.00">school_id :integer</text>
<text text-anchor="start" x="160.234" y="-502" font-family="Times,serif" font-size="14.00">gender :string</text>
<text text-anchor="start" x="160.234" y="-485.2" font-family="Times,serif" font-size="14.00">grade_level :string</text>
<text text-anchor="start" x="160.234" y="-468.4" font-family="Times,serif" font-size="14.00">ethnicity :string</text>
<text text-anchor="start" x="160.234" y="-451.6" font-family="Times,serif" font-size="14.00">section_registration_id :integer</text>
</g>
<!-- Parent&#45;&gt;Student -->
<g id="edge3" class="edge"><title>Parent&#45;&gt;Student</title>
<path fill="none" stroke="#fdd6e6" d="M143.7,-807.817C149.501,-796.484 155.563,-784.641 161.718,-772.616"/>
<polygon fill="#fdd6e6" stroke="#fdd6e6" points="143.535,-808.139 134.973,-814.991 141.257,-812.59 138.979,-817.041 138.979,-817.041 138.979,-817.041 141.257,-812.59 142.984,-819.091 143.535,-808.139 143.535,-808.139"/>
<polygon fill="#fdd6e6" stroke="#fdd6e6" points="161.884,-772.292 170.446,-765.441 164.162,-767.841 166.44,-763.391 166.44,-763.391 166.44,-763.391 164.162,-767.841 162.435,-761.34 161.884,-772.292 161.884,-772.292"/>
</g>
<!-- Parent&#45;&gt;Address -->
<g id="edge4" class="edge"><title>Parent&#45;&gt;Address</title>
<path fill="none" stroke="#bca09a" d="M95.0209,-809.022C93.3145,-705.104 90.5113,-534.389 88.5926,-417.541"/>
<ellipse fill="none" stroke="#bca09a" cx="95.09" cy="-813.234" rx="4" ry="4"/>
<polygon fill="#bca09a" stroke="#bca09a" points="88.5915,-417.463 92.9266,-407.39 88.5093,-412.463 88.4272,-407.464 88.4272,-407.464 88.4272,-407.464 88.5093,-412.463 83.9278,-407.538 88.5915,-417.463 88.5915,-417.463"/>
</g>
<!-- School -->
<g id="node10" class="node"><title>School</title>
<path fill="none" stroke="black" d="M193.009,-809C193.009,-809 302.02,-809 302.02,-809 308.02,-809 314.02,-815 314.02,-821 314.02,-821 314.02,-981 314.02,-981 314.02,-987 308.02,-993 302.02,-993 302.02,-993 193.009,-993 193.009,-993 187.009,-993 181.009,-987 181.009,-981 181.009,-981 181.009,-821 181.009,-821 181.009,-815 187.009,-809 193.009,-809"/>
<text text-anchor="middle" x="247.515" y="-975" font-family="Times,serif" font-size="14.00">School</text>
<polyline fill="none" stroke="black" points="181.009,-968.2 314.02,-968.2 "/>
<text text-anchor="start" x="189.009" y="-950.2" font-family="Times,serif" font-size="14.00">id :integer</text>
<text text-anchor="start" x="189.009" y="-933.4" font-family="Times,serif" font-size="14.00">created_at :datetime</text>
<text text-anchor="start" x="189.009" y="-916.6" font-family="Times,serif" font-size="14.00">updated_at :datetime</text>
<text text-anchor="start" x="189.009" y="-899.8" font-family="Times,serif" font-size="14.00">name :string</text>
<text text-anchor="start" x="189.009" y="-883" font-family="Times,serif" font-size="14.00">address :string</text>
<text text-anchor="start" x="189.009" y="-866.2" font-family="Times,serif" font-size="14.00">city :string</text>
<text text-anchor="start" x="189.009" y="-849.4" font-family="Times,serif" font-size="14.00">state :string</text>
<text text-anchor="start" x="189.009" y="-832.6" font-family="Times,serif" font-size="14.00">zip :string</text>
<text text-anchor="start" x="189.009" y="-815.8" font-family="Times,serif" font-size="14.00">site :string</text>
</g>
<!-- School&#45;&gt;Student -->
<g id="edge5" class="edge"><title>School&#45;&gt;Student</title>
<path fill="none" stroke="#a650a3" d="M247.515,-800.457C247.515,-791.743 247.515,-782.778 247.515,-773.704"/>
<ellipse fill="none" stroke="#a650a3" cx="247.515" cy="-804.68" rx="4" ry="4"/>
<polygon fill="#a650a3" stroke="#a650a3" points="247.515,-773.42 252.015,-763.42 247.515,-768.42 247.515,-763.42 247.515,-763.42 247.515,-763.42 247.515,-768.42 243.015,-763.42 247.515,-773.42 247.515,-773.42"/>
</g>
<!-- SchoolYear -->
<g id="node11" class="node"><title>SchoolYear</title>
<path fill="none" stroke="black" d="M549.009,-1453.2C549.009,-1453.2 658.02,-1453.2 658.02,-1453.2 664.02,-1453.2 670.02,-1459.2 670.02,-1465.2 670.02,-1465.2 670.02,-1574.8 670.02,-1574.8 670.02,-1580.8 664.02,-1586.8 658.02,-1586.8 658.02,-1586.8 549.009,-1586.8 549.009,-1586.8 543.009,-1586.8 537.009,-1580.8 537.009,-1574.8 537.009,-1574.8 537.009,-1465.2 537.009,-1465.2 537.009,-1459.2 543.009,-1453.2 549.009,-1453.2"/>
<text text-anchor="middle" x="603.515" y="-1568.8" font-family="Times,serif" font-size="14.00">SchoolYear</text>
<polyline fill="none" stroke="black" points="537.009,-1562 670.02,-1562 "/>
<text text-anchor="start" x="545.009" y="-1544" font-family="Times,serif" font-size="14.00">id :integer</text>
<text text-anchor="start" x="545.009" y="-1527.2" font-family="Times,serif" font-size="14.00">starts_on :date</text>
<text text-anchor="start" x="545.009" y="-1510.4" font-family="Times,serif" font-size="14.00">ends_on :date</text>
<text text-anchor="start" x="545.009" y="-1493.6" font-family="Times,serif" font-size="14.00">description :string</text>
<text text-anchor="start" x="545.009" y="-1476.8" font-family="Times,serif" font-size="14.00">created_at :datetime</text>
<text text-anchor="start" x="545.009" y="-1460" font-family="Times,serif" font-size="14.00">updated_at :datetime</text>
</g>
<!-- Semester -->
<g id="node13" class="node"><title>Semester</title>
<path fill="none" stroke="black" d="M541.62,-1122.8C541.62,-1122.8 665.41,-1122.8 665.41,-1122.8 671.41,-1122.8 677.41,-1128.8 677.41,-1134.8 677.41,-1134.8 677.41,-1261.2 677.41,-1261.2 677.41,-1267.2 671.41,-1273.2 665.41,-1273.2 665.41,-1273.2 541.62,-1273.2 541.62,-1273.2 535.62,-1273.2 529.62,-1267.2 529.62,-1261.2 529.62,-1261.2 529.62,-1134.8 529.62,-1134.8 529.62,-1128.8 535.62,-1122.8 541.62,-1122.8"/>
<text text-anchor="middle" x="603.515" y="-1255.2" font-family="Times,serif" font-size="14.00">Semester</text>
<polyline fill="none" stroke="black" points="529.62,-1248.4 677.41,-1248.4 "/>
<text text-anchor="start" x="537.62" y="-1230.4" font-family="Times,serif" font-size="14.00">id :integer</text>
<text text-anchor="start" x="537.62" y="-1213.6" font-family="Times,serif" font-size="14.00">starts_on :date</text>
<text text-anchor="start" x="537.62" y="-1196.8" font-family="Times,serif" font-size="14.00">ends_on :date</text>
<text text-anchor="start" x="537.62" y="-1180" font-family="Times,serif" font-size="14.00">description :string</text>
<text text-anchor="start" x="537.62" y="-1163.2" font-family="Times,serif" font-size="14.00">created_at :datetime</text>
<text text-anchor="start" x="537.62" y="-1146.4" font-family="Times,serif" font-size="14.00">updated_at :datetime</text>
<text text-anchor="start" x="537.62" y="-1129.6" font-family="Times,serif" font-size="14.00">school_year_id :integer</text>
</g>
<!-- SchoolYear&#45;&gt;Semester -->
<g id="edge6" class="edge"><title>SchoolYear&#45;&gt;Semester</title>
<path fill="none" stroke="#d96996" d="M603.515,-1444.96C603.515,-1396.7 603.515,-1333.61 603.515,-1283.41"/>
<ellipse fill="none" stroke="#d96996" cx="603.515" cy="-1449.08" rx="4" ry="4"/>
<polygon fill="#d96996" stroke="#d96996" points="603.515,-1283.23 608.015,-1273.23 603.515,-1278.23 603.515,-1273.23 603.515,-1273.23 603.515,-1273.23 603.515,-1278.23 599.015,-1273.23 603.515,-1283.23 603.515,-1283.23"/>
</g>
<!-- StudentSectionEnrollment -->
<g id="node15" class="node"><title>StudentSectionEnrollment</title>
<path fill="none" stroke="black" d="M341.635,-231.6C341.635,-231.6 481.394,-231.6 481.394,-231.6 487.394,-231.6 493.394,-237.6 493.394,-243.6 493.394,-243.6 493.394,-336.4 493.394,-336.4 493.394,-342.4 487.394,-348.4 481.394,-348.4 481.394,-348.4 341.635,-348.4 341.635,-348.4 335.635,-348.4 329.635,-342.4 329.635,-336.4 329.635,-336.4 329.635,-243.6 329.635,-243.6 329.635,-237.6 335.635,-231.6 341.635,-231.6"/>
<text text-anchor="middle" x="411.515" y="-330.4" font-family="Times,serif" font-size="14.00">StudentSectionEnrollment</text>
<polyline fill="none" stroke="black" points="329.635,-323.6 493.394,-323.6 "/>
<text text-anchor="start" x="337.635" y="-305.6" font-family="Times,serif" font-size="14.00">id :integer</text>
<text text-anchor="start" x="337.635" y="-288.8" font-family="Times,serif" font-size="14.00">student_id :integer</text>
<text text-anchor="start" x="337.635" y="-272" font-family="Times,serif" font-size="14.00">created_at :datetime</text>
<text text-anchor="start" x="337.635" y="-255.2" font-family="Times,serif" font-size="14.00">updated_at :datetime</text>
<text text-anchor="start" x="337.635" y="-238.4" font-family="Times,serif" font-size="14.00">section_id :integer</text>
</g>
<!-- Section&#45;&gt;StudentSectionEnrollment -->
<g id="edge7" class="edge"><title>Section&#45;&gt;StudentSectionEnrollment</title>
<path fill="none" stroke="#77bc4a" d="M424.689,-792.44C421.398,-667.189 416.062,-464.081 413.299,-358.925"/>
<ellipse fill="none" stroke="#77bc4a" cx="424.794" cy="-796.46" rx="4" ry="4"/>
<polygon fill="#77bc4a" stroke="#77bc4a" points="413.295,-358.749 417.531,-348.634 413.163,-353.751 413.032,-348.753 413.032,-348.753 413.032,-348.753 413.163,-353.751 408.534,-348.871 413.295,-358.749 413.295,-358.749"/>
</g>
<!-- Section&#45;&gt;Student -->
<g id="edge8" class="edge"><title>Section&#45;&gt;Student</title>
<path fill="none" stroke="#56eefb" d="M361.507,-791.82C357.12,-784.631 352.652,-777.308 348.147,-769.925"/>
<polygon fill="#56eefb" stroke="#56eefb" points="361.617,-792.001 362.985,-802.882 364.222,-796.27 366.826,-800.538 366.826,-800.538 366.826,-800.538 364.222,-796.27 370.667,-798.194 361.617,-792.001 361.617,-792.001"/>
<polygon fill="#56eefb" stroke="#56eefb" points="348.054,-769.772 346.687,-758.892 345.45,-765.504 342.845,-761.236 342.845,-761.236 342.845,-761.236 345.45,-765.504 339.004,-763.58 348.054,-769.772 348.054,-769.772"/>
</g>
<!-- Semester&#45;&gt;Section -->
<g id="edge9" class="edge"><title>Semester&#45;&gt;Section</title>
<path fill="none" stroke="#3c995e" d="M560.441,-1115.35C546.798,-1090.3 531.388,-1062.81 516.515,-1038 511.072,-1028.92 505.312,-1019.58 499.447,-1010.25"/>
<ellipse fill="none" stroke="#3c995e" cx="562.519" cy="-1119.18" rx="4.00002" ry="4.00002"/>
<polygon fill="#3c995e" stroke="#3c995e" points="499.381,-1010.15 497.839,-999.294 496.709,-1005.93 494.036,-1001.7 494.036,-1001.7 494.036,-1001.7 496.709,-1005.93 490.233,-1004.1 499.381,-1010.15 499.381,-1010.15"/>
</g>
<!-- Semester&#45;&gt;GradingPeriod -->
<g id="edge10" class="edge"><title>Semester&#45;&gt;GradingPeriod</title>
<path fill="none" stroke="#bace25" d="M604.636,-1114.31C605.177,-1074.4 605.826,-1026.59 606.37,-986.447"/>
<ellipse fill="none" stroke="#bace25" cx="604.578" cy="-1118.56" rx="4" ry="4"/>
<polygon fill="#bace25" stroke="#bace25" points="606.37,-986.416 611.005,-976.478 606.438,-981.417 606.506,-976.417 606.506,-976.417 606.506,-976.417 606.438,-981.417 602.006,-976.356 606.37,-986.416 606.37,-986.416"/>
</g>
<!-- Student&#45;&gt;Guardianship -->
<g id="edge11" class="edge"><title>Student&#45;&gt;Guardianship</title>
<path fill="none" stroke="#d06979" d="M244.849,-436.66C244.407,-409.094 243.972,-381.959 243.6,-358.721"/>
<ellipse fill="none" stroke="#d06979" cx="244.914" cy="-440.715" rx="4" ry="4"/>
<polygon fill="#d06979" stroke="#d06979" points="243.599,-358.67 247.938,-348.6 243.519,-353.671 243.439,-348.672 243.439,-348.672 243.439,-348.672 243.519,-353.671 238.94,-348.744 243.599,-358.67 243.599,-358.67"/>
</g>
<!-- Student&#45;&gt;Address -->
<g id="edge12" class="edge"><title>Student&#45;&gt;Address</title>
<path fill="none" stroke="#16dc0c" d="M162.053,-437.384C158.484,-430.468 154.929,-423.579 151.415,-416.769"/>
<ellipse fill="none" stroke="#16dc0c" cx="164.001" cy="-441.16" rx="4.00002" ry="4.00002"/>
<polygon fill="#16dc0c" stroke="#16dc0c" points="151.237,-416.423 150.65,-405.473 148.944,-411.98 146.651,-407.537 146.651,-407.537 146.651,-407.537 148.944,-411.98 142.652,-409.6 151.237,-416.423 151.237,-416.423"/>
</g>
<!-- Student&#45;&gt;StudentSectionEnrollment -->
<g id="edge13" class="edge"><title>Student&#45;&gt;StudentSectionEnrollment</title>
<path fill="none" stroke="#aa055a" d="M334.527,-437.465C349.406,-409.158 364.065,-381.271 376.533,-357.551"/>
<ellipse fill="none" stroke="#aa055a" cx="332.577" cy="-441.174" rx="4.00002" ry="4.00002"/>
<polygon fill="#aa055a" stroke="#aa055a" points="376.547,-357.523 385.183,-350.765 378.874,-353.098 381.2,-348.672 381.2,-348.672 381.2,-348.672 378.874,-353.098 377.217,-346.578 376.547,-357.523 376.547,-357.523"/>
</g>
<!-- StudentSectionEnrollment&#45;&gt;Grade -->
<g id="edge14" class="edge"><title>StudentSectionEnrollment&#45;&gt;Grade</title>
<path fill="none" stroke="#ba2356" d="M411.515,-223.373C411.515,-198.875 411.515,-170.85 411.515,-145.461"/>
<ellipse fill="none" stroke="#ba2356" cx="411.515" cy="-227.485" rx="4" ry="4"/>
<polygon fill="#ba2356" stroke="#ba2356" points="411.515,-145.133 416.015,-135.133 411.515,-140.133 411.515,-135.133 411.515,-135.133 411.515,-135.133 411.515,-140.133 407.015,-135.133 411.515,-145.133 411.515,-145.133"/>
</g>
<!-- Teacher -->
<g id="node16" class="node"><title>Teacher</title>
<path fill="none" stroke="black" d="M24.237,-1038.8C24.237,-1038.8 204.793,-1038.8 204.793,-1038.8 210.793,-1038.8 216.793,-1044.8 216.793,-1050.8 216.793,-1050.8 216.793,-1345.2 216.793,-1345.2 216.793,-1351.2 210.793,-1357.2 204.793,-1357.2 204.793,-1357.2 24.237,-1357.2 24.237,-1357.2 18.237,-1357.2 12.237,-1351.2 12.237,-1345.2 12.237,-1345.2 12.237,-1050.8 12.237,-1050.8 12.237,-1044.8 18.237,-1038.8 24.237,-1038.8"/>
<text text-anchor="middle" x="114.515" y="-1339.2" font-family="Times,serif" font-size="14.00">Teacher</text>
<polyline fill="none" stroke="black" points="12.237,-1332.4 216.793,-1332.4 "/>
<text text-anchor="start" x="20.237" y="-1314.4" font-family="Times,serif" font-size="14.00">id :integer</text>
<text text-anchor="start" x="20.237" y="-1297.6" font-family="Times,serif" font-size="14.00">email :string</text>
<text text-anchor="start" x="20.237" y="-1280.8" font-family="Times,serif" font-size="14.00">encrypted_password :string</text>
<text text-anchor="start" x="20.237" y="-1264" font-family="Times,serif" font-size="14.00">reset_password_token :string</text>
<text text-anchor="start" x="20.237" y="-1247.2" font-family="Times,serif" font-size="14.00">reset_password_sent_at :datetime</text>
<text text-anchor="start" x="20.237" y="-1230.4" font-family="Times,serif" font-size="14.00">remember_created_at :datetime</text>
<text text-anchor="start" x="20.237" y="-1213.6" font-family="Times,serif" font-size="14.00">sign_in_count :integer</text>
<text text-anchor="start" x="20.237" y="-1196.8" font-family="Times,serif" font-size="14.00">current_sign_in_at :datetime</text>
<text text-anchor="start" x="20.237" y="-1180" font-family="Times,serif" font-size="14.00">last_sign_in_at :datetime</text>
<text text-anchor="start" x="20.237" y="-1163.2" font-family="Times,serif" font-size="14.00">current_sign_in_ip :string</text>
<text text-anchor="start" x="20.237" y="-1146.4" font-family="Times,serif" font-size="14.00">last_sign_in_ip :string</text>
<text text-anchor="start" x="20.237" y="-1129.6" font-family="Times,serif" font-size="14.00">created_at :datetime</text>
<text text-anchor="start" x="20.237" y="-1112.8" font-family="Times,serif" font-size="14.00">updated_at :datetime</text>
<text text-anchor="start" x="20.237" y="-1096" font-family="Times,serif" font-size="14.00">name :string</text>
<text text-anchor="start" x="20.237" y="-1079.2" font-family="Times,serif" font-size="14.00">work_phone :string</text>
<text text-anchor="start" x="20.237" y="-1062.4" font-family="Times,serif" font-size="14.00">home_phone :string</text>
<text text-anchor="start" x="20.237" y="-1045.6" font-family="Times,serif" font-size="14.00">cell_phone :string</text>
</g>
<!-- Teacher&#45;&gt;Address -->
<g id="edge15" class="edge"><title>Teacher&#45;&gt;Address</title>
<path fill="none" stroke="#3b510c" d="M28.5811,-1030.95C25.4439,-1021.3 22.7108,-1011.61 20.5148,-1002 -25.4673,-800.719 16.3153,-560.403 51.1289,-417.036"/>
<ellipse fill="none" stroke="#3b510c" cx="29.9058" cy="-1034.89" rx="4.00001" ry="4.00001"/>
<polygon fill="#3b510c" stroke="#3b510c" points="51.1326,-417.021 57.8867,-408.382 52.3245,-412.165 53.5164,-407.309 53.5164,-407.309 53.5164,-407.309 52.3245,-412.165 49.1462,-406.236 51.1326,-417.021 51.1326,-417.021"/>
</g>
<!-- Teacher&#45;&gt;Section -->
<g id="edge16" class="edge"><title>Teacher&#45;&gt;Section</title>
<path fill="none" stroke="#d05bcd" d="M222.978,-1095.62C255.074,-1065.54 290.254,-1032.48 322.515,-1002 323.195,-1001.36 323.878,-1000.71 324.563,-1000.06"/>
<ellipse fill="none" stroke="#d05bcd" cx="219.94" cy="-1098.47" rx="4.00002" ry="4.00002"/>
<polygon fill="#d05bcd" stroke="#d05bcd" points="324.712,-999.923 335.069,-996.319 328.344,-996.487 331.976,-993.05 331.976,-993.05 331.976,-993.05 328.344,-996.487 328.883,-989.782 324.712,-999.923 324.712,-999.923"/>
</g>
<!-- TimeBlock -->
<g id="node17" class="node"><title>TimeBlock</title>
<path fill="none" stroke="black" d="M1008.01,-1470C1008.01,-1470 1117.02,-1470 1117.02,-1470 1123.02,-1470 1129.02,-1476 1129.02,-1482 1129.02,-1482 1129.02,-1558 1129.02,-1558 1129.02,-1564 1123.02,-1570 1117.02,-1570 1117.02,-1570 1008.01,-1570 1008.01,-1570 1002.01,-1570 996.009,-1564 996.009,-1558 996.009,-1558 996.009,-1482 996.009,-1482 996.009,-1476 1002.01,-1470 1008.01,-1470"/>
<text text-anchor="middle" x="1062.51" y="-1552" font-family="Times,serif" font-size="14.00">TimeBlock</text>
<polyline fill="none" stroke="black" points="996.009,-1545.2 1129.02,-1545.2 "/>
<text text-anchor="start" x="1004.01" y="-1527.2" font-family="Times,serif" font-size="14.00">id :integer</text>
<text text-anchor="start" x="1004.01" y="-1510.4" font-family="Times,serif" font-size="14.00">block :string</text>
<text text-anchor="start" x="1004.01" y="-1493.6" font-family="Times,serif" font-size="14.00">created_at :datetime</text>
<text text-anchor="start" x="1004.01" y="-1476.8" font-family="Times,serif" font-size="14.00">updated_at :datetime</text>
</g>
</g>
</svg>
