<?xml version="1.0" encoding="UTF-8" standalone="no"?>
<!DOCTYPE svg PUBLIC "-//W3C//DTD SVG 1.1//EN"
 "http://www.w3.org/Graphics/SVG/1.1/DTD/svg11.dtd">
<!-- Generated by graphviz version 2.30.1 (20130501.1332)
 -->
<!-- Title: models_diagram Pages: 1 -->
<svg width="1137pt" height="1482pt"
 viewBox="0.00 0.00 1136.51 1482.00" xmlns="http://www.w3.org/2000/svg" xmlns:xlink="http://www.w3.org/1999/xlink">
<g id="graph0" class="graph" transform="scale(1 1) rotate(0) translate(4 1478)">
<title>models_diagram</title>
<polygon fill="white" stroke="white" points="-4,5 -4,-1478 1133.51,-1478 1133.51,5 -4,5"/>
<!-- _diagram_info -->
<g id="node1" class="node"><title>_diagram_info</title>
<text text-anchor="start" x="319.827" y="-1374" font-family="Times,serif" font-size="13.00">Models diagram</text>
<text text-anchor="start" x="319.827" y="-1358.4" font-family="Times,serif" font-size="13.00">Date: May 01 2013 &#45; 09:34</text>
<text text-anchor="start" x="319.827" y="-1342.8" font-family="Times,serif" font-size="13.00">Migration version: 20130423202448</text>
<text text-anchor="start" x="319.827" y="-1327.2" font-family="Times,serif" font-size="13.00">Generated by RailRoady 1.1.0</text>
<text text-anchor="start" x="319.827" y="-1311.6" font-family="Times,serif" font-size="13.00">http://railroady.prestonlee.com</text>
</g>
<!-- Address -->
<g id="node2" class="node"><title>Address</title>
<path fill="none" stroke="black" d="M32.0094,-0.8C32.0094,-0.8 141.02,-0.8 141.02,-0.8 147.02,-0.8 153.02,-6.8 153.02,-12.8 153.02,-12.8 153.02,-223.2 153.02,-223.2 153.02,-229.2 147.02,-235.2 141.02,-235.2 141.02,-235.2 32.0094,-235.2 32.0094,-235.2 26.0094,-235.2 20.0094,-229.2 20.0094,-223.2 20.0094,-223.2 20.0094,-12.8 20.0094,-12.8 20.0094,-6.8 26.0094,-0.8 32.0094,-0.8"/>
<text text-anchor="middle" x="86.5148" y="-217.2" font-family="Times,serif" font-size="14.00">Address</text>
<polyline fill="none" stroke="black" points="20.0094,-210.4 153.02,-210.4 "/>
<text text-anchor="start" x="28.0094" y="-192.4" font-family="Times,serif" font-size="14.00">id :integer</text>
<text text-anchor="start" x="28.0094" y="-175.6" font-family="Times,serif" font-size="14.00">street :string</text>
<text text-anchor="start" x="28.0094" y="-158.8" font-family="Times,serif" font-size="14.00">unit :string</text>
<text text-anchor="start" x="28.0094" y="-142" font-family="Times,serif" font-size="14.00">city :string</text>
<text text-anchor="start" x="28.0094" y="-125.2" font-family="Times,serif" font-size="14.00">state :string</text>
<text text-anchor="start" x="28.0094" y="-108.4" font-family="Times,serif" font-size="14.00">zip :string</text>
<text text-anchor="start" x="28.0094" y="-91.6" font-family="Times,serif" font-size="14.00">created_at :datetime</text>
<text text-anchor="start" x="28.0094" y="-74.8" font-family="Times,serif" font-size="14.00">updated_at :datetime</text>
<text text-anchor="start" x="28.0094" y="-58" font-family="Times,serif" font-size="14.00">student_id :integer</text>
<text text-anchor="start" x="28.0094" y="-41.2" font-family="Times,serif" font-size="14.00">parent_id :integer</text>
<text text-anchor="start" x="28.0094" y="-24.4" font-family="Times,serif" font-size="14.00">address_type :string</text>
<text text-anchor="start" x="28.0094" y="-7.6" font-family="Times,serif" font-size="14.00">teacher_id :integer</text>
</g>
<!-- Admin -->
<g id="node3" class="node"><title>Admin</title>
<path fill="none" stroke="black" d="M700.237,-1222.4C700.237,-1222.4 880.793,-1222.4 880.793,-1222.4 886.793,-1222.4 892.793,-1228.4 892.793,-1234.4 892.793,-1234.4 892.793,-1461.6 892.793,-1461.6 892.793,-1467.6 886.793,-1473.6 880.793,-1473.6 880.793,-1473.6 700.237,-1473.6 700.237,-1473.6 694.237,-1473.6 688.237,-1467.6 688.237,-1461.6 688.237,-1461.6 688.237,-1234.4 688.237,-1234.4 688.237,-1228.4 694.237,-1222.4 700.237,-1222.4"/>
<text text-anchor="middle" x="790.515" y="-1455.6" font-family="Times,serif" font-size="14.00">Admin</text>
<polyline fill="none" stroke="black" points="688.237,-1448.8 892.793,-1448.8 "/>
<text text-anchor="start" x="696.237" y="-1430.8" font-family="Times,serif" font-size="14.00">id :integer</text>
<text text-anchor="start" x="696.237" y="-1414" font-family="Times,serif" font-size="14.00">email :string</text>
<text text-anchor="start" x="696.237" y="-1397.2" font-family="Times,serif" font-size="14.00">encrypted_password :string</text>
<text text-anchor="start" x="696.237" y="-1380.4" font-family="Times,serif" font-size="14.00">reset_password_token :string</text>
<text text-anchor="start" x="696.237" y="-1363.6" font-family="Times,serif" font-size="14.00">reset_password_sent_at :datetime</text>
<text text-anchor="start" x="696.237" y="-1346.8" font-family="Times,serif" font-size="14.00">remember_created_at :datetime</text>
<text text-anchor="start" x="696.237" y="-1330" font-family="Times,serif" font-size="14.00">sign_in_count :integer</text>
<text text-anchor="start" x="696.237" y="-1313.2" font-family="Times,serif" font-size="14.00">current_sign_in_at :datetime</text>
<text text-anchor="start" x="696.237" y="-1296.4" font-family="Times,serif" font-size="14.00">last_sign_in_at :datetime</text>
<text text-anchor="start" x="696.237" y="-1279.6" font-family="Times,serif" font-size="14.00">current_sign_in_ip :string</text>
<text text-anchor="start" x="696.237" y="-1262.8" font-family="Times,serif" font-size="14.00">last_sign_in_ip :string</text>
<text text-anchor="start" x="696.237" y="-1246" font-family="Times,serif" font-size="14.00">created_at :datetime</text>
<text text-anchor="start" x="696.237" y="-1229.2" font-family="Times,serif" font-size="14.00">updated_at :datetime</text>
</g>
<!-- Course -->
<g id="node4" class="node"><title>Course</title>
<path fill="none" stroke="black" d="M359.003,-967.6C359.003,-967.6 496.027,-967.6 496.027,-967.6 502.027,-967.6 508.027,-973.6 508.027,-979.6 508.027,-979.6 508.027,-1072.4 508.027,-1072.4 508.027,-1078.4 502.027,-1084.4 496.027,-1084.4 496.027,-1084.4 359.003,-1084.4 359.003,-1084.4 353.003,-1084.4 347.003,-1078.4 347.003,-1072.4 347.003,-1072.4 347.003,-979.6 347.003,-979.6 347.003,-973.6 353.003,-967.6 359.003,-967.6"/>
<text text-anchor="middle" x="427.515" y="-1066.4" font-family="Times,serif" font-size="14.00">Course</text>
<polyline fill="none" stroke="black" points="347.003,-1059.6 508.027,-1059.6 "/>
<text text-anchor="start" x="355.003" y="-1041.6" font-family="Times,serif" font-size="14.00">id :integer</text>
<text text-anchor="start" x="355.003" y="-1024.8" font-family="Times,serif" font-size="14.00">course_name :string</text>
<text text-anchor="start" x="355.003" y="-1008" font-family="Times,serif" font-size="14.00">course_description :string</text>
<text text-anchor="start" x="355.003" y="-991.2" font-family="Times,serif" font-size="14.00">created_at :datetime</text>
<text text-anchor="start" x="355.003" y="-974.4" font-family="Times,serif" font-size="14.00">updated_at :datetime</text>
</g>
<!-- Section -->
<g id="node11" class="node"><title>Section</title>
<path fill="none" stroke="black" d="M344.234,-628.6C344.234,-628.6 510.796,-628.6 510.796,-628.6 516.796,-628.6 522.796,-634.6 522.796,-640.6 522.796,-640.6 522.796,-817.4 522.796,-817.4 522.796,-823.4 516.796,-829.4 510.796,-829.4 510.796,-829.4 344.234,-829.4 344.234,-829.4 338.234,-829.4 332.234,-823.4 332.234,-817.4 332.234,-817.4 332.234,-640.6 332.234,-640.6 332.234,-634.6 338.234,-628.6 344.234,-628.6"/>
<text text-anchor="middle" x="427.515" y="-811.4" font-family="Times,serif" font-size="14.00">Section</text>
<polyline fill="none" stroke="black" points="332.234,-804.6 522.796,-804.6 "/>
<text text-anchor="start" x="340.234" y="-786.6" font-family="Times,serif" font-size="14.00">id :integer</text>
<text text-anchor="start" x="340.234" y="-769.8" font-family="Times,serif" font-size="14.00">course_id :integer</text>
<text text-anchor="start" x="340.234" y="-753" font-family="Times,serif" font-size="14.00">section_number :integer</text>
<text text-anchor="start" x="340.234" y="-736.2" font-family="Times,serif" font-size="14.00">teacher_id :integer</text>
<text text-anchor="start" x="340.234" y="-719.4" font-family="Times,serif" font-size="14.00">created_at :datetime</text>
<text text-anchor="start" x="340.234" y="-702.6" font-family="Times,serif" font-size="14.00">updated_at :datetime</text>
<text text-anchor="start" x="340.234" y="-685.8" font-family="Times,serif" font-size="14.00">section_registration_id :integer</text>
<text text-anchor="start" x="340.234" y="-669" font-family="Times,serif" font-size="14.00">semester_id :integer</text>
<text text-anchor="start" x="340.234" y="-652.2" font-family="Times,serif" font-size="14.00">days_of_week :string</text>
<text text-anchor="start" x="340.234" y="-635.4" font-family="Times,serif" font-size="14.00">time_block :string</text>
</g>
<!-- Course&#45;&gt;Section -->
<g id="edge1" class="edge"><title>Course&#45;&gt;Section</title>
<path fill="none" stroke="#390263" d="M427.515,-958.966C427.515,-923.851 427.515,-879.759 427.515,-839.666"/>
<ellipse fill="none" stroke="#390263" cx="427.515" cy="-963.421" rx="4" ry="4"/>
<polygon fill="#390263" stroke="#390263" points="427.515,-839.567 432.015,-829.567 427.515,-834.567 427.515,-829.567 427.515,-829.567 427.515,-829.567 427.515,-834.567 423.015,-829.568 427.515,-839.567 427.515,-839.567"/>
</g>
<!-- Ethnicity -->
<g id="node5" class="node"><title>Ethnicity</title>
<polygon fill="none" stroke="black" points="910.853,-1323.2 910.853,-1372.8 978.177,-1372.8 978.177,-1323.2 910.853,-1323.2"/>
<text text-anchor="middle" x="944.515" y="-1354.8" font-family="Times,serif" font-size="14.00">Ethnicity</text>
<polyline fill="none" stroke="black" points="910.853,-1348 978.177,-1348 "/>
<text text-anchor="middle" x="944.515" y="-1330" font-family="Times,serif" font-size="14.00"> </text>
</g>
<!-- GradingPeriod -->
<g id="node6" class="node"><title>GradingPeriod</title>
<path fill="none" stroke="black" d="M553.009,-653.8C553.009,-653.8 662.02,-653.8 662.02,-653.8 668.02,-653.8 674.02,-659.8 674.02,-665.8 674.02,-665.8 674.02,-792.2 674.02,-792.2 674.02,-798.2 668.02,-804.2 662.02,-804.2 662.02,-804.2 553.009,-804.2 553.009,-804.2 547.009,-804.2 541.009,-798.2 541.009,-792.2 541.009,-792.2 541.009,-665.8 541.009,-665.8 541.009,-659.8 547.009,-653.8 553.009,-653.8"/>
<text text-anchor="middle" x="607.515" y="-786.2" font-family="Times,serif" font-size="14.00">GradingPeriod</text>
<polyline fill="none" stroke="black" points="541.009,-779.4 674.02,-779.4 "/>
<text text-anchor="start" x="549.009" y="-761.4" font-family="Times,serif" font-size="14.00">id :integer</text>
<text text-anchor="start" x="549.009" y="-744.6" font-family="Times,serif" font-size="14.00">starts_on :date</text>
<text text-anchor="start" x="549.009" y="-727.8" font-family="Times,serif" font-size="14.00">ends_on :date</text>
<text text-anchor="start" x="549.009" y="-711" font-family="Times,serif" font-size="14.00">description :string</text>
<text text-anchor="start" x="549.009" y="-694.2" font-family="Times,serif" font-size="14.00">semester_id :integer</text>
<text text-anchor="start" x="549.009" y="-677.4" font-family="Times,serif" font-size="14.00">created_at :datetime</text>
<text text-anchor="start" x="549.009" y="-660.6" font-family="Times,serif" font-size="14.00">updated_at :datetime</text>
</g>
<!-- Guardianship -->
<g id="node7" class="node"><title>Guardianship</title>
<path fill="none" stroke="black" d="M188.009,-59.6C188.009,-59.6 297.02,-59.6 297.02,-59.6 303.02,-59.6 309.02,-65.6 309.02,-71.6 309.02,-71.6 309.02,-164.4 309.02,-164.4 309.02,-170.4 303.02,-176.4 297.02,-176.4 297.02,-176.4 188.009,-176.4 188.009,-176.4 182.009,-176.4 176.009,-170.4 176.009,-164.4 176.009,-164.4 176.009,-71.6 176.009,-71.6 176.009,-65.6 182.009,-59.6 188.009,-59.6"/>
<text text-anchor="middle" x="242.515" y="-158.4" font-family="Times,serif" font-size="14.00">Guardianship</text>
<polyline fill="none" stroke="black" points="176.009,-151.6 309.02,-151.6 "/>
<text text-anchor="start" x="184.009" y="-133.6" font-family="Times,serif" font-size="14.00">id :integer</text>
<text text-anchor="start" x="184.009" y="-116.8" font-family="Times,serif" font-size="14.00">student_id :integer</text>
<text text-anchor="start" x="184.009" y="-100" font-family="Times,serif" font-size="14.00">parent_id :integer</text>
<text text-anchor="start" x="184.009" y="-83.2" font-family="Times,serif" font-size="14.00">created_at :datetime</text>
<text text-anchor="start" x="184.009" y="-66.4" font-family="Times,serif" font-size="14.00">updated_at :datetime</text>
</g>
<!-- Parent -->
<g id="node8" class="node"><title>Parent</title>
<path fill="none" stroke="black" d="M42.0094,-645.4C42.0094,-645.4 151.02,-645.4 151.02,-645.4 157.02,-645.4 163.02,-651.4 163.02,-657.4 163.02,-657.4 163.02,-800.6 163.02,-800.6 163.02,-806.6 157.02,-812.6 151.02,-812.6 151.02,-812.6 42.0094,-812.6 42.0094,-812.6 36.0094,-812.6 30.0094,-806.6 30.0094,-800.6 30.0094,-800.6 30.0094,-657.4 30.0094,-657.4 30.0094,-651.4 36.0094,-645.4 42.0094,-645.4"/>
<text text-anchor="middle" x="96.5148" y="-794.6" font-family="Times,serif" font-size="14.00">Parent</text>
<polyline fill="none" stroke="black" points="30.0094,-787.8 163.02,-787.8 "/>
<text text-anchor="start" x="38.0094" y="-769.8" font-family="Times,serif" font-size="14.00">id :integer</text>
<text text-anchor="start" x="38.0094" y="-753" font-family="Times,serif" font-size="14.00">first_name :string</text>
<text text-anchor="start" x="38.0094" y="-736.2" font-family="Times,serif" font-size="14.00">last_name :string</text>
<text text-anchor="start" x="38.0094" y="-719.4" font-family="Times,serif" font-size="14.00">home_phone :string</text>
<text text-anchor="start" x="38.0094" y="-702.6" font-family="Times,serif" font-size="14.00">work_phone :string</text>
<text text-anchor="start" x="38.0094" y="-685.8" font-family="Times,serif" font-size="14.00">created_at :datetime</text>
<text text-anchor="start" x="38.0094" y="-669" font-family="Times,serif" font-size="14.00">updated_at :datetime</text>
<text text-anchor="start" x="38.0094" y="-652.2" font-family="Times,serif" font-size="14.00">email :string</text>
</g>
<!-- Parent&#45;&gt;Guardianship -->
<g id="edge2" class="edge"><title>Parent&#45;&gt;Guardianship</title>
<path fill="none" stroke="#d46145" d="M103.573,-637.303C113.507,-514.166 131.716,-305.515 143.515,-272 149.977,-253.646 173.086,-217.605 195.352,-185.113"/>
<ellipse fill="none" stroke="#d46145" cx="103.252" cy="-641.3" rx="4" ry="4"/>
<polygon fill="#d46145" stroke="#d46145" points="195.613,-184.735 204.994,-179.056 198.451,-180.618 201.289,-176.502 201.289,-176.502 201.289,-176.502 198.451,-180.618 197.584,-173.948 195.613,-184.735 195.613,-184.735"/>
</g>
<!-- Student -->
<g id="node14" class="node"><title>Student</title>
<path fill="none" stroke="black" d="M164.234,-272.8C164.234,-272.8 330.796,-272.8 330.796,-272.8 336.796,-272.8 342.796,-278.8 342.796,-284.8 342.796,-284.8 342.796,-579.2 342.796,-579.2 342.796,-585.2 336.796,-591.2 330.796,-591.2 330.796,-591.2 164.234,-591.2 164.234,-591.2 158.234,-591.2 152.234,-585.2 152.234,-579.2 152.234,-579.2 152.234,-284.8 152.234,-284.8 152.234,-278.8 158.234,-272.8 164.234,-272.8"/>
<text text-anchor="middle" x="247.515" y="-573.2" font-family="Times,serif" font-size="14.00">Student</text>
<polyline fill="none" stroke="black" points="152.234,-566.4 342.796,-566.4 "/>
<text text-anchor="start" x="160.234" y="-548.4" font-family="Times,serif" font-size="14.00">id :integer</text>
<text text-anchor="start" x="160.234" y="-531.6" font-family="Times,serif" font-size="14.00">created_at :datetime</text>
<text text-anchor="start" x="160.234" y="-514.8" font-family="Times,serif" font-size="14.00">updated_at :datetime</text>
<text text-anchor="start" x="160.234" y="-498" font-family="Times,serif" font-size="14.00">first_name :string</text>
<text text-anchor="start" x="160.234" y="-481.2" font-family="Times,serif" font-size="14.00">middle_name :string</text>
<text text-anchor="start" x="160.234" y="-464.4" font-family="Times,serif" font-size="14.00">last_name :string</text>
<text text-anchor="start" x="160.234" y="-447.6" font-family="Times,serif" font-size="14.00">home_phone :string</text>
<text text-anchor="start" x="160.234" y="-430.8" font-family="Times,serif" font-size="14.00">cell_phone :string</text>
<text text-anchor="start" x="160.234" y="-414" font-family="Times,serif" font-size="14.00">email :string</text>
<text text-anchor="start" x="160.234" y="-397.2" font-family="Times,serif" font-size="14.00">empl :string</text>
<text text-anchor="start" x="160.234" y="-380.4" font-family="Times,serif" font-size="14.00">dob :date</text>
<text text-anchor="start" x="160.234" y="-363.6" font-family="Times,serif" font-size="14.00">medical_issues :string</text>
<text text-anchor="start" x="160.234" y="-346.8" font-family="Times,serif" font-size="14.00">school_id :integer</text>
<text text-anchor="start" x="160.234" y="-330" font-family="Times,serif" font-size="14.00">gender :string</text>
<text text-anchor="start" x="160.234" y="-313.2" font-family="Times,serif" font-size="14.00">grade_level :string</text>
<text text-anchor="start" x="160.234" y="-296.4" font-family="Times,serif" font-size="14.00">ethnicity :string</text>
<text text-anchor="start" x="160.234" y="-279.6" font-family="Times,serif" font-size="14.00">section_registration_id :integer</text>
</g>
<!-- Parent&#45;&gt;Student -->
<g id="edge3" class="edge"><title>Parent&#45;&gt;Student</title>
<path fill="none" stroke="#0e6612" d="M143.7,-635.817C149.501,-624.484 155.563,-612.641 161.718,-600.616"/>
<polygon fill="#0e6612" stroke="#0e6612" points="143.535,-636.139 134.973,-642.991 141.257,-640.59 138.979,-645.041 138.979,-645.041 138.979,-645.041 141.257,-640.59 142.984,-647.091 143.535,-636.139 143.535,-636.139"/>
<polygon fill="#0e6612" stroke="#0e6612" points="161.884,-600.292 170.446,-593.441 164.162,-595.841 166.44,-591.391 166.44,-591.391 166.44,-591.391 164.162,-595.841 162.435,-589.34 161.884,-600.292 161.884,-600.292"/>
</g>
<!-- Parent&#45;&gt;Address -->
<g id="edge4" class="edge"><title>Parent&#45;&gt;Address</title>
<path fill="none" stroke="#24c1da" d="M95.0209,-637.022C93.3145,-533.104 90.5113,-362.389 88.5926,-245.541"/>
<ellipse fill="none" stroke="#24c1da" cx="95.09" cy="-641.234" rx="4" ry="4"/>
<polygon fill="#24c1da" stroke="#24c1da" points="88.5915,-245.463 92.9266,-235.39 88.5093,-240.463 88.4272,-235.464 88.4272,-235.464 88.4272,-235.464 88.5093,-240.463 83.9278,-235.538 88.5915,-245.463 88.5915,-245.463"/>
</g>
<!-- School -->
<g id="node9" class="node"><title>School</title>
<path fill="none" stroke="black" d="M193.009,-637C193.009,-637 302.02,-637 302.02,-637 308.02,-637 314.02,-643 314.02,-649 314.02,-649 314.02,-809 314.02,-809 314.02,-815 308.02,-821 302.02,-821 302.02,-821 193.009,-821 193.009,-821 187.009,-821 181.009,-815 181.009,-809 181.009,-809 181.009,-649 181.009,-649 181.009,-643 187.009,-637 193.009,-637"/>
<text text-anchor="middle" x="247.515" y="-803" font-family="Times,serif" font-size="14.00">School</text>
<polyline fill="none" stroke="black" points="181.009,-796.2 314.02,-796.2 "/>
<text text-anchor="start" x="189.009" y="-778.2" font-family="Times,serif" font-size="14.00">id :integer</text>
<text text-anchor="start" x="189.009" y="-761.4" font-family="Times,serif" font-size="14.00">created_at :datetime</text>
<text text-anchor="start" x="189.009" y="-744.6" font-family="Times,serif" font-size="14.00">updated_at :datetime</text>
<text text-anchor="start" x="189.009" y="-727.8" font-family="Times,serif" font-size="14.00">name :string</text>
<text text-anchor="start" x="189.009" y="-711" font-family="Times,serif" font-size="14.00">address :string</text>
<text text-anchor="start" x="189.009" y="-694.2" font-family="Times,serif" font-size="14.00">city :string</text>
<text text-anchor="start" x="189.009" y="-677.4" font-family="Times,serif" font-size="14.00">state :string</text>
<text text-anchor="start" x="189.009" y="-660.6" font-family="Times,serif" font-size="14.00">zip :string</text>
<text text-anchor="start" x="189.009" y="-643.8" font-family="Times,serif" font-size="14.00">site :string</text>
</g>
<!-- School&#45;&gt;Student -->
<g id="edge5" class="edge"><title>School&#45;&gt;Student</title>
<path fill="none" stroke="#b834dd" d="M247.515,-628.457C247.515,-619.743 247.515,-610.778 247.515,-601.704"/>
<ellipse fill="none" stroke="#b834dd" cx="247.515" cy="-632.68" rx="4" ry="4"/>
<polygon fill="#b834dd" stroke="#b834dd" points="247.515,-601.42 252.015,-591.42 247.515,-596.42 247.515,-591.42 247.515,-591.42 247.515,-591.42 247.515,-596.42 243.015,-591.42 247.515,-601.42 247.515,-601.42"/>
</g>
<!-- SchoolYear -->
<g id="node10" class="node"><title>SchoolYear</title>
<path fill="none" stroke="black" d="M549.009,-1281.2C549.009,-1281.2 658.02,-1281.2 658.02,-1281.2 664.02,-1281.2 670.02,-1287.2 670.02,-1293.2 670.02,-1293.2 670.02,-1402.8 670.02,-1402.8 670.02,-1408.8 664.02,-1414.8 658.02,-1414.8 658.02,-1414.8 549.009,-1414.8 549.009,-1414.8 543.009,-1414.8 537.009,-1408.8 537.009,-1402.8 537.009,-1402.8 537.009,-1293.2 537.009,-1293.2 537.009,-1287.2 543.009,-1281.2 549.009,-1281.2"/>
<text text-anchor="middle" x="603.515" y="-1396.8" font-family="Times,serif" font-size="14.00">SchoolYear</text>
<polyline fill="none" stroke="black" points="537.009,-1390 670.02,-1390 "/>
<text text-anchor="start" x="545.009" y="-1372" font-family="Times,serif" font-size="14.00">id :integer</text>
<text text-anchor="start" x="545.009" y="-1355.2" font-family="Times,serif" font-size="14.00">starts_on :date</text>
<text text-anchor="start" x="545.009" y="-1338.4" font-family="Times,serif" font-size="14.00">ends_on :date</text>
<text text-anchor="start" x="545.009" y="-1321.6" font-family="Times,serif" font-size="14.00">description :string</text>
<text text-anchor="start" x="545.009" y="-1304.8" font-family="Times,serif" font-size="14.00">created_at :datetime</text>
<text text-anchor="start" x="545.009" y="-1288" font-family="Times,serif" font-size="14.00">updated_at :datetime</text>
</g>
<!-- Semester -->
<g id="node13" class="node"><title>Semester</title>
<path fill="none" stroke="black" d="M541.62,-950.8C541.62,-950.8 665.41,-950.8 665.41,-950.8 671.41,-950.8 677.41,-956.8 677.41,-962.8 677.41,-962.8 677.41,-1089.2 677.41,-1089.2 677.41,-1095.2 671.41,-1101.2 665.41,-1101.2 665.41,-1101.2 541.62,-1101.2 541.62,-1101.2 535.62,-1101.2 529.62,-1095.2 529.62,-1089.2 529.62,-1089.2 529.62,-962.8 529.62,-962.8 529.62,-956.8 535.62,-950.8 541.62,-950.8"/>
<text text-anchor="middle" x="603.515" y="-1083.2" font-family="Times,serif" font-size="14.00">Semester</text>
<polyline fill="none" stroke="black" points="529.62,-1076.4 677.41,-1076.4 "/>
<text text-anchor="start" x="537.62" y="-1058.4" font-family="Times,serif" font-size="14.00">id :integer</text>
<text text-anchor="start" x="537.62" y="-1041.6" font-family="Times,serif" font-size="14.00">starts_on :date</text>
<text text-anchor="start" x="537.62" y="-1024.8" font-family="Times,serif" font-size="14.00">ends_on :date</text>
<text text-anchor="start" x="537.62" y="-1008" font-family="Times,serif" font-size="14.00">description :string</text>
<text text-anchor="start" x="537.62" y="-991.2" font-family="Times,serif" font-size="14.00">created_at :datetime</text>
<text text-anchor="start" x="537.62" y="-974.4" font-family="Times,serif" font-size="14.00">updated_at :datetime</text>
<text text-anchor="start" x="537.62" y="-957.6" font-family="Times,serif" font-size="14.00">school_year_id :integer</text>
</g>
<!-- SchoolYear&#45;&gt;Semester -->
<g id="edge6" class="edge"><title>SchoolYear&#45;&gt;Semester</title>
<path fill="none" stroke="#2563f9" d="M603.515,-1272.96C603.515,-1224.7 603.515,-1161.61 603.515,-1111.41"/>
<ellipse fill="none" stroke="#2563f9" cx="603.515" cy="-1277.08" rx="4" ry="4"/>
<polygon fill="#2563f9" stroke="#2563f9" points="603.515,-1111.23 608.015,-1101.23 603.515,-1106.23 603.515,-1101.23 603.515,-1101.23 603.515,-1101.23 603.515,-1106.23 599.015,-1101.23 603.515,-1111.23 603.515,-1111.23"/>
</g>
<!-- SectionRegistration -->
<g id="node12" class="node"><title>SectionRegistration</title>
<path fill="none" stroke="black" d="M346.009,-59.6C346.009,-59.6 455.02,-59.6 455.02,-59.6 461.02,-59.6 467.02,-65.6 467.02,-71.6 467.02,-71.6 467.02,-164.4 467.02,-164.4 467.02,-170.4 461.02,-176.4 455.02,-176.4 455.02,-176.4 346.009,-176.4 346.009,-176.4 340.009,-176.4 334.009,-170.4 334.009,-164.4 334.009,-164.4 334.009,-71.6 334.009,-71.6 334.009,-65.6 340.009,-59.6 346.009,-59.6"/>
<text text-anchor="middle" x="400.515" y="-158.4" font-family="Times,serif" font-size="14.00">SectionRegistration</text>
<polyline fill="none" stroke="black" points="334.009,-151.6 467.02,-151.6 "/>
<text text-anchor="start" x="342.009" y="-133.6" font-family="Times,serif" font-size="14.00">id :integer</text>
<text text-anchor="start" x="342.009" y="-116.8" font-family="Times,serif" font-size="14.00">student_id :integer</text>
<text text-anchor="start" x="342.009" y="-100" font-family="Times,serif" font-size="14.00">created_at :datetime</text>
<text text-anchor="start" x="342.009" y="-83.2" font-family="Times,serif" font-size="14.00">updated_at :datetime</text>
<text text-anchor="start" x="342.009" y="-66.4" font-family="Times,serif" font-size="14.00">section_id :integer</text>
</g>
<!-- Section&#45;&gt;SectionRegistration -->
<g id="edge7" class="edge"><title>Section&#45;&gt;SectionRegistration</title>
<path fill="none" stroke="#a5620c" d="M422.746,-620.44C417.193,-495.189 408.188,-292.081 403.526,-186.925"/>
<ellipse fill="none" stroke="#a5620c" cx="422.924" cy="-624.462" rx="4" ry="4"/>
<polygon fill="#a5620c" stroke="#a5620c" points="403.518,-186.743 407.571,-176.553 403.297,-181.748 403.075,-176.753 403.075,-176.753 403.075,-176.753 403.297,-181.748 398.58,-176.952 403.518,-186.743 403.518,-186.743"/>
</g>
<!-- Section&#45;&gt;Student -->
<g id="edge8" class="edge"><title>Section&#45;&gt;Student</title>
<path fill="none" stroke="#85f5b8" d="M361.507,-619.82C357.12,-612.631 352.652,-605.308 348.147,-597.925"/>
<polygon fill="#85f5b8" stroke="#85f5b8" points="361.617,-620.001 362.985,-630.882 364.222,-624.27 366.826,-628.538 366.826,-628.538 366.826,-628.538 364.222,-624.27 370.667,-626.194 361.617,-620.001 361.617,-620.001"/>
<polygon fill="#85f5b8" stroke="#85f5b8" points="348.054,-597.772 346.687,-586.892 345.45,-593.504 342.845,-589.236 342.845,-589.236 342.845,-589.236 345.45,-593.504 339.004,-591.58 348.054,-597.772 348.054,-597.772"/>
</g>
<!-- Semester&#45;&gt;Section -->
<g id="edge9" class="edge"><title>Semester&#45;&gt;Section</title>
<path fill="none" stroke="#321a26" d="M560.441,-943.354C546.798,-918.302 531.388,-890.809 516.515,-866 511.072,-856.921 505.312,-847.582 499.447,-838.254"/>
<ellipse fill="none" stroke="#321a26" cx="562.519" cy="-947.181" rx="4.00002" ry="4.00002"/>
<polygon fill="#321a26" stroke="#321a26" points="499.381,-838.151 497.839,-827.294 496.709,-833.925 494.036,-829.699 494.036,-829.699 494.036,-829.699 496.709,-833.925 490.233,-832.105 499.381,-838.151 499.381,-838.151"/>
</g>
<!-- Semester&#45;&gt;GradingPeriod -->
<g id="edge10" class="edge"><title>Semester&#45;&gt;GradingPeriod</title>
<path fill="none" stroke="#568453" d="M604.636,-942.31C605.177,-902.399 605.826,-854.586 606.37,-814.447"/>
<ellipse fill="none" stroke="#568453" cx="604.578" cy="-946.559" rx="4" ry="4"/>
<polygon fill="#568453" stroke="#568453" points="606.37,-814.416 611.005,-804.478 606.438,-809.417 606.506,-804.417 606.506,-804.417 606.506,-804.417 606.438,-809.417 602.006,-804.356 606.37,-814.416 606.37,-814.416"/>
</g>
<!-- Student&#45;&gt;Guardianship -->
<g id="edge11" class="edge"><title>Student&#45;&gt;Guardianship</title>
<path fill="none" stroke="#2ce344" d="M244.849,-264.66C244.407,-237.094 243.972,-209.959 243.6,-186.721"/>
<ellipse fill="none" stroke="#2ce344" cx="244.914" cy="-268.715" rx="4" ry="4"/>
<polygon fill="#2ce344" stroke="#2ce344" points="243.599,-186.67 247.938,-176.6 243.519,-181.671 243.439,-176.672 243.439,-176.672 243.439,-176.672 243.519,-181.671 238.94,-176.744 243.599,-186.67 243.599,-186.67"/>
</g>
<!-- Student&#45;&gt;Address -->
<g id="edge12" class="edge"><title>Student&#45;&gt;Address</title>
<path fill="none" stroke="#5464a3" d="M162.053,-265.384C158.484,-258.468 154.929,-251.579 151.415,-244.769"/>
<ellipse fill="none" stroke="#5464a3" cx="164.001" cy="-269.16" rx="4.00002" ry="4.00002"/>
<polygon fill="#5464a3" stroke="#5464a3" points="151.237,-244.423 150.65,-233.473 148.944,-239.98 146.651,-235.537 146.651,-235.537 146.651,-235.537 148.944,-239.98 142.652,-237.6 151.237,-244.423 151.237,-244.423"/>
</g>
<!-- Student&#45;&gt;SectionRegistration -->
<g id="edge13" class="edge"><title>Student&#45;&gt;SectionRegistration</title>
<path fill="none" stroke="#05763b" d="M328.691,-265.465C342.511,-237.282 356.127,-209.516 367.726,-185.864"/>
<ellipse fill="none" stroke="#05763b" cx="326.897" cy="-269.123" rx="4.00002" ry="4.00002"/>
<polygon fill="#05763b" stroke="#05763b" points="367.831,-185.65 376.274,-178.653 370.032,-181.161 372.233,-176.672 372.233,-176.672 372.233,-176.672 370.032,-181.161 368.193,-174.69 367.831,-185.65 367.831,-185.65"/>
</g>
<!-- Teacher -->
<g id="node15" class="node"><title>Teacher</title>
<path fill="none" stroke="black" d="M24.237,-866.8C24.237,-866.8 204.793,-866.8 204.793,-866.8 210.793,-866.8 216.793,-872.8 216.793,-878.8 216.793,-878.8 216.793,-1173.2 216.793,-1173.2 216.793,-1179.2 210.793,-1185.2 204.793,-1185.2 204.793,-1185.2 24.237,-1185.2 24.237,-1185.2 18.237,-1185.2 12.237,-1179.2 12.237,-1173.2 12.237,-1173.2 12.237,-878.8 12.237,-878.8 12.237,-872.8 18.237,-866.8 24.237,-866.8"/>
<text text-anchor="middle" x="114.515" y="-1167.2" font-family="Times,serif" font-size="14.00">Teacher</text>
<polyline fill="none" stroke="black" points="12.237,-1160.4 216.793,-1160.4 "/>
<text text-anchor="start" x="20.237" y="-1142.4" font-family="Times,serif" font-size="14.00">id :integer</text>
<text text-anchor="start" x="20.237" y="-1125.6" font-family="Times,serif" font-size="14.00">email :string</text>
<text text-anchor="start" x="20.237" y="-1108.8" font-family="Times,serif" font-size="14.00">encrypted_password :string</text>
<text text-anchor="start" x="20.237" y="-1092" font-family="Times,serif" font-size="14.00">reset_password_token :string</text>
<text text-anchor="start" x="20.237" y="-1075.2" font-family="Times,serif" font-size="14.00">reset_password_sent_at :datetime</text>
<text text-anchor="start" x="20.237" y="-1058.4" font-family="Times,serif" font-size="14.00">remember_created_at :datetime</text>
<text text-anchor="start" x="20.237" y="-1041.6" font-family="Times,serif" font-size="14.00">sign_in_count :integer</text>
<text text-anchor="start" x="20.237" y="-1024.8" font-family="Times,serif" font-size="14.00">current_sign_in_at :datetime</text>
<text text-anchor="start" x="20.237" y="-1008" font-family="Times,serif" font-size="14.00">last_sign_in_at :datetime</text>
<text text-anchor="start" x="20.237" y="-991.2" font-family="Times,serif" font-size="14.00">current_sign_in_ip :string</text>
<text text-anchor="start" x="20.237" y="-974.4" font-family="Times,serif" font-size="14.00">last_sign_in_ip :string</text>
<text text-anchor="start" x="20.237" y="-957.6" font-family="Times,serif" font-size="14.00">created_at :datetime</text>
<text text-anchor="start" x="20.237" y="-940.8" font-family="Times,serif" font-size="14.00">updated_at :datetime</text>
<text text-anchor="start" x="20.237" y="-924" font-family="Times,serif" font-size="14.00">name :string</text>
<text text-anchor="start" x="20.237" y="-907.2" font-family="Times,serif" font-size="14.00">work_phone :string</text>
<text text-anchor="start" x="20.237" y="-890.4" font-family="Times,serif" font-size="14.00">home_phone :string</text>
<text text-anchor="start" x="20.237" y="-873.6" font-family="Times,serif" font-size="14.00">cell_phone :string</text>
</g>
<!-- Teacher&#45;&gt;Address -->
<g id="edge14" class="edge"><title>Teacher&#45;&gt;Address</title>
<path fill="none" stroke="#88240c" d="M28.5811,-858.954C25.4439,-849.303 22.7108,-839.613 20.5148,-830 -25.4673,-628.719 16.3153,-388.403 51.1289,-245.036"/>
<ellipse fill="none" stroke="#88240c" cx="29.9058" cy="-862.893" rx="4.00001" ry="4.00001"/>
<polygon fill="#88240c" stroke="#88240c" points="51.1326,-245.021 57.8867,-236.382 52.3245,-240.165 53.5164,-235.309 53.5164,-235.309 53.5164,-235.309 52.3245,-240.165 49.1462,-234.236 51.1326,-245.021 51.1326,-245.021"/>
</g>
<!-- Teacher&#45;&gt;Section -->
<g id="edge15" class="edge"><title>Teacher&#45;&gt;Section</title>
<path fill="none" stroke="#0d6c1c" d="M222.978,-923.619C255.074,-893.537 290.254,-860.484 322.515,-830 323.195,-829.357 323.878,-828.712 324.563,-828.064"/>
<ellipse fill="none" stroke="#0d6c1c" cx="219.94" cy="-926.465" rx="4.00002" ry="4.00002"/>
<polygon fill="#0d6c1c" stroke="#0d6c1c" points="324.712,-827.923 335.069,-824.319 328.344,-824.487 331.976,-821.05 331.976,-821.05 331.976,-821.05 328.344,-824.487 328.883,-817.782 324.712,-827.923 324.712,-827.923"/>
</g>
<!-- TimeBlock -->
<g id="node16" class="node"><title>TimeBlock</title>
<path fill="none" stroke="black" d="M1008.01,-1298C1008.01,-1298 1117.02,-1298 1117.02,-1298 1123.02,-1298 1129.02,-1304 1129.02,-1310 1129.02,-1310 1129.02,-1386 1129.02,-1386 1129.02,-1392 1123.02,-1398 1117.02,-1398 1117.02,-1398 1008.01,-1398 1008.01,-1398 1002.01,-1398 996.009,-1392 996.009,-1386 996.009,-1386 996.009,-1310 996.009,-1310 996.009,-1304 1002.01,-1298 1008.01,-1298"/>
<text text-anchor="middle" x="1062.51" y="-1380" font-family="Times,serif" font-size="14.00">TimeBlock</text>
<polyline fill="none" stroke="black" points="996.009,-1373.2 1129.02,-1373.2 "/>
<text text-anchor="start" x="1004.01" y="-1355.2" font-family="Times,serif" font-size="14.00">id :integer</text>
<text text-anchor="start" x="1004.01" y="-1338.4" font-family="Times,serif" font-size="14.00">block :string</text>
<text text-anchor="start" x="1004.01" y="-1321.6" font-family="Times,serif" font-size="14.00">created_at :datetime</text>
<text text-anchor="start" x="1004.01" y="-1304.8" font-family="Times,serif" font-size="14.00">updated_at :datetime</text>
</g>
</g>
</svg>
